<?xml version="1.0" encoding="utf-8"?>
<svg xmlns="http://www.w3.org/2000/svg" fill="none" height="278" viewBox="0 0 352 278" width="352">
  <path d="M15.73 215.93a229.31 229.31 0 0 0 6.44 41.75H88.1a477.34 477.34 0 0 1-21.56-30.55c-5.67-8.76-11.37-18.4-15.76-27.59-6.77-14.13-10.4-27.2-6.01-34.43 3.85-6.34 9.91-8.18 9.91-8.18 3.49-1.06 7.2-.68 10.7.68a90.24 90.24 0 0 1 1.95-7.8c-12.73-4.23-29.58-2.88-40.87 9.82-9.26 10.43-10.5 23.68-10.74 28.06-.5 8.4-.62 17.9 0 28.25l.01-.01Z" fill="url(#a)"/>
  <path d="M34.32 220.6c-6.03-20.4-13.46-61.19 14.5-67.85 5.8-1.28 11.85-.85 17.64.19-5.8-.9-11.8-1.2-17.55.2-19.45 4.53-20.39 27.8-17.96 44 1.1 7.74 2.9 15.42 5.33 22.8l-1.97.67h.01Z" fill="#F3F4FF"/>
  <path d="M200.9 216.49a240.29 240.29 0 0 0-69.55-7.2c-24 1.04-55.73 2.44-87.4 22.73-20.46 13.12-33.24 29.2-40.47 40.05l-2.8 5.1h58.96S62.68 236.8 234.82 252L200.9 216.5Z" fill="url(#b)"/>
  <path d="M224.1 174.9c16.86 19.38 3.98 49 2.9 51.38-10.76 23.77-39.13 40.32-39.13 40.32v10.57H302.1a149.37 149.37 0 0 0-9.86-38c-15.63-38.44-49.56-78.44-91.57-83.72-6.43-.8-11.6-.62-13.62-.51l.82 6.72c3.4-.2 23.75-1.12 36.23 13.23Z" fill="url(#c)"/>
  <path d="M276.06 212.35c-.2 26.8-27.53 42.36-52.99 40.64l-21.4-35.1c.84.42 46.27 23.97 56.94-9.86 1.75-5.58 3.55-9.25 4.11-11.06 2.81-9 11.28-17.42 20.38-22.63.98 2.65 1.92 5.6 2.82 8.91a28.46 28.46 0 0 0-4.54 4.98c-5.02 7.15-5.25 10.68-5.33 24.11v.01Z" fill="url(#d)"/>
  <path d="M350.25 235.7a207.04 207.04 0 0 1-7.11 41.47h-72.89a473.18 473.18 0 0 0 23.83-30.34c6.27-8.71 12.58-18.29 17.43-27.4 7.48-14.04 11.51-27.02 6.65-34.2-4.28-6.3-10.97-8.13-10.97-8.13-3.86-1.05-7.96-.68-11.84.68a85.23 85.23 0 0 0-2.14-7.77c14.07-4.18 32.7-2.85 45.18 9.77 10.25 10.36 11.6 23.51 11.87 27.87.56 8.35.7 17.78 0 28.06Z" fill="url(#e)"/>
  <path d="M293.2 170a47.28 47.28 0 0 0-10.1 4.35 66.13 66.13 0 0 0-9.9-18.32c-5.43-7.1-10.83-14.15-18.65-14.77-14.12-1.1-30.15 19.3-40.18 52.1l-15.28-25.5c2.54-8.05 10.04-16.52 17.04-23.08 3.32-3.11 22.76-19.08 43.4-13.1 7.24 2.08 11.9 6.09 15.06 8.87 10.37 9.1 15.75 20.78 18.6 29.44v.01Z" fill="url(#f)"/>
  <path d="M22.3 122.79c6.27-3.46 14.26-1.47 15.83-1.02a31.5 31.5 0 0 1 7.23 3.05c7.47 4.33 11.89 11.14 14.87 18.48a95.07 95.07 0 0 1 3.22 9.73c.78 2.76 1.45 5.5 2.1 8.06.8 3.1 1.58 5.96 2.48 8.42 5.2 14.16 20.2 31.91 65.38 44.48l30.67-43.78a261.35 261.35 0 0 1-26.12 2.95c-1.62.1-3.2.17-4.74.21-6.4.2-12.03.02-17.02-.47a84.53 84.53 0 0 1-9.65-1.47c-12.88-2.75-19.96-8-24.07-13.5-.68-.91-1.34-1.9-1.97-2.97-1.52-2.46-2.98-5.28-4.67-8.24l-.44-.78c-.99-1.72-2.07-3.5-3.29-5.28A49.18 49.18 0 0 0 57.2 126.1a53.43 53.43 0 0 0-19-7.13c-5.44-1.05-17-2.43-25.63 4.21-12.67 9.76-10.24 32.23-9.2 41.13 5.04 42.74 43.01 71.33 57.55 81.2a139.07 139.07 0 0 0 52.17-21.34c-12.37 1.08-35.41 1-57.73-12.44a89.81 89.81 0 0 1-16.76-13.07 97.06 97.06 0 0 1-18.64-25.76c-6.42-13.07-8.82-26.07-6.65-35.46.78-3.33 2.58-11.1 9.03-14.65h-.02Z" fill="url(#g)"/>
  <path d="M295.35 177.77a28.88 28.88 0 0 0-9.42 5.5c-.9-3.3-1.84-6.27-2.82-8.92a47.35 47.35 0 0 1 10.1-4.35 84 84 0 0 1 2.14 7.77Z" fill="url(#h)"/>
  <path d="M202.26 186.14c7.15-25.27 26.45-56.97 57-50.2 13.8 4.2 23.84 23.16 29.6 35.6-5.84-12.1-16.14-30.88-29.76-34.84-22.44-4.62-38.66 12.06-47.62 30.77-3 6.14-5.47 12.62-7.21 19.17l-2.01-.5Z" fill="#F3F4FF"/>
  <path d="M326.08 256.68a126.14 126.14 0 0 0 8.39-51.26l-.16-3.28c.04-12.1-7.11-23.67-18.92-27.45-14.13-4.5-31.7 1.14-39.94 13.6-3.21 5.55-5.1 11.94-7.17 18.03-2.63 8.32-5.03 17.4-11.35 23.87-5.95 6.78-14.91 10.07-23.67 10.97l-.03-.2a48.6 48.6 0 0 0 12.4-3.99c7.78-3.77 13.6-10.81 16.57-18.85 1.5-4.03 2.66-8.26 3.97-12.47 4.68-14.47 8.07-24.67 23.3-30.78 12.27-4.97 27.8-3.52 37.32 6.2a31.3 31.3 0 0 1 8.76 17.66c2.43 19.46-.45 40.92-9.47 57.95Z" fill="#CFD3FF"/>
  <path d="M351.3 277.17h-57a456.11 456.11 0 0 0-1.63-52.1c-1.65-18.38-4-31.74-6.74-41.8a29.1 29.1 0 0 1 9.42-5.5c.33 1.37.55 2.48.7 3.23 1.98 9.36 6.29 21.78 15.46 38.43 7.49 13.6 18.25 30.03 33.64 49.92 1.98 2.55 4.03 5.16 6.16 7.83v-.01Z" fill="url(#i)"/>
  <path d="M323 277.6a510.2 510.2 0 0 1-33.2-97 509.45 509.45 0 0 0 35.09 96.12l-1.88.88Z" fill="#F3F4FF"/>
  <path d="M34.55 276.24s9.84-21 26.34-30.72" stroke="#CFD3FF" stroke-miterlimit="10" stroke-width="2.08"/>
  <path d="M99.23 189.84c-8.56 19.5-3.63 37.97-2.1 43.71a57.87 57.87 0 0 0 3.7 10.36c5.77 12.2 14.64 19.52 20.03 23.23v10.02H53.82a214.95 214.95 0 0 1 5.78-36.01c14.12-56.26 53.74-79.36 53.74-79.36 7.25-4.24 18.96-9.77 35.33-12.25l-1.24 5.8c-6.4.75-22.8 3.57-36.24 16.96a57.8 57.8 0 0 0-11.95 17.53l-.01.01Z" fill="url(#j)"/>
  <path d="M77.84 254.12c-3.44-19.88.2-40.72 9.47-58.56 11.92-22.42 34.09-41.36 60.28-42.62-26.04 1.66-47.72 20.7-59.24 43.16-.58 1.28-2.12 4.53-2.69 5.77-.56 1.33-1.73 4.56-2.27 5.94-1.24 3.9-2.52 8.26-3.24 12.27-2.1 10.99-2.4 22.6-.28 33.57l-2.03.47Z" fill="#F3F4FF"/>
  <path d="M179.8 123.46h-9.34l-92.14 153.7h193.61l-92.13-153.7Z" fill="url(#k)"/>
  <path d="m178.96 146.07-2.73-18.86h-2.2l-2.73 18.86h7.66ZM188.22 210.03l-7.55-52.2h-11.08l-7.55 52.2h26.18ZM158.9 231.75l-6.57 45.42h45.6l-6.57-45.42H158.9Z" fill="#EEF"/>
  <path d="M240.82.6H110.53c-2.55 0-4.6.92-4.6 2.07v31.14c0 1.14 2.07 2.07 4.6 2.07h57.59l7.55 7.51 7.57-7.5h57.58c2.54 0 4.6-.94 4.6-2.08V2.67c0-1.15-2.07-2.08-4.6-2.08Z" fill="url(#l)"/>
  <path d="M124.22 24.67c-.38.01-.67-.09-.88-.3a1.1 1.1 0 0 1-.32-.82c0-.25.08-.47.24-.66.14-.2.36-.3.66-.32l.6-.04c.58-.04 1.02-.22 1.32-.54.3-.33.46-.8.46-1.42v-9c0-.43.1-.75.32-.96.22-.23.54-.34.96-.34.41 0 .72.11.94.34.22.21.34.53.34.96v8.98c0 .84-.16 1.55-.46 2.14-.3.59-.74 1.05-1.32 1.38a5.2 5.2 0 0 1-2.18.56l-.68.04Zm14.03.06c-1.36 0-2.56-.3-3.58-.9a6.15 6.15 0 0 1-2.36-2.52 8.32 8.32 0 0 1-.84-3.84c0-1.1.16-2.1.48-2.98.32-.9.77-1.65 1.36-2.28a5.94 5.94 0 0 1 2.14-1.46 7.27 7.27 0 0 1 2.8-.52c1.37 0 2.56.3 3.58.9a6.02 6.02 0 0 1 2.36 2.5 8.2 8.2 0 0 1 .84 3.82c0 1.1-.16 2.1-.48 3-.32.9-.78 1.66-1.38 2.3a5.93 5.93 0 0 1-2.14 1.48c-.83.33-1.76.5-2.78.5Zm0-2.2c.86 0 1.6-.2 2.2-.6.61-.4 1.08-.98 1.4-1.74.33-.76.5-1.67.5-2.72 0-1.6-.36-2.84-1.08-3.72a3.65 3.65 0 0 0-3.02-1.32 3.73 3.73 0 0 0-3.62 2.32 6.9 6.9 0 0 0-.48 2.72c0 1.59.36 2.83 1.08 3.72.72.9 1.72 1.34 3.02 1.34Zm10.74 2c-.44 0-.78-.11-1.02-.34-.23-.24-.34-.58-.34-1.02V11.79c0-.44.11-.77.34-1 .24-.24.58-.36 1.02-.36h4.8c.99 0 1.83.15 2.52.44.7.3 1.22.71 1.58 1.26.37.55.56 1.2.56 1.96 0 .85-.25 1.57-.74 2.16-.5.59-1.17.98-2.02 1.18v-.3c.99.15 1.75.52 2.3 1.12.55.6.82 1.38.82 2.34 0 1.25-.43 2.23-1.28 2.92a5.45 5.45 0 0 1-3.52 1.02H149Zm1.1-1.94h3.6c.9 0 1.57-.17 2-.52.43-.36.64-.9.64-1.6 0-.72-.21-1.25-.64-1.6-.43-.35-1.1-.52-2-.52h-3.6v4.24Zm0-6.18h3.26c.88 0 1.53-.17 1.96-.5.44-.35.66-.85.66-1.52s-.22-1.17-.66-1.5c-.43-.35-1.08-.52-1.96-.52h-3.26v4.04Zm23.06 8.32c-1.36 0-2.55-.3-3.58-.9a6.15 6.15 0 0 1-2.36-2.52 8.32 8.32 0 0 1-.84-3.84c0-1.1.16-2.1.48-2.98.32-.9.77-1.65 1.36-2.28a5.94 5.94 0 0 1 2.14-1.46 7.27 7.27 0 0 1 2.8-.52c1.37 0 2.57.3 3.58.9a6.02 6.02 0 0 1 2.36 2.5 8.2 8.2 0 0 1 .84 3.82c0 1.1-.16 2.1-.48 3-.32.9-.78 1.66-1.38 2.3a5.93 5.93 0 0 1-2.14 1.48c-.83.33-1.75.5-2.78.5Zm0-2.2c.87 0 1.6-.2 2.2-.6.61-.4 1.08-.98 1.4-1.74.33-.76.5-1.67.5-2.72 0-1.6-.36-2.84-1.08-3.72a3.65 3.65 0 0 0-3.02-1.32 3.74 3.74 0 0 0-3.62 2.32 6.9 6.9 0 0 0-.48 2.72c0 1.59.36 2.83 1.08 3.72.72.9 1.73 1.34 3.02 1.34Zm10.7 2.16c-.41 0-.74-.11-.98-.34-.22-.24-.34-.58-.34-1.02V11.79c0-.44.12-.77.34-1 .24-.24.58-.36 1.02-.36h6.98c.35 0 .61.09.78.26.18.17.26.42.26.74 0 .33-.08.6-.26.78-.17.17-.43.26-.78.26h-5.78v3.98h5.36c.34 0 .59.09.76.26.19.17.28.42.28.74 0 .33-.09.6-.28.78-.17.17-.42.26-.76.26h-5.36v4.84c0 .9-.41 1.36-1.24 1.36Zm11.23 0c-.41 0-.74-.11-.98-.34a1.43 1.43 0 0 1-.34-1.02V11.79c0-.44.12-.77.34-1 .24-.24.58-.36 1.02-.36h6.98c.35 0 .61.09.78.26.18.17.26.42.26.74 0 .33-.08.6-.26.78-.17.17-.43.26-.78.26h-5.78v3.98h5.36c.34 0 .59.09.76.26.19.17.28.42.28.74 0 .33-.09.6-.28.78-.17.17-.42.26-.76.26h-5.36v4.84c0 .9-.41 1.36-1.24 1.36Zm11.27-.16c-.44 0-.78-.11-1.02-.34-.22-.24-.34-.58-.34-1.02V11.79c0-.44.12-.77.34-1 .24-.24.58-.36 1.02-.36h7.14c.34 0 .6.09.76.26.2.17.28.42.28.74 0 .33-.09.6-.28.78-.17.17-.42.26-.76.26h-6.04v3.88h5.6c.35 0 .61.09.78.26.18.17.26.43.26.76s-.08.59-.26.76c-.17.17-.43.26-.78.26h-5.6v4.1h6.04c.34 0 .6.09.76.26.2.17.28.43.28.76s-.09.59-.28.76c-.17.17-.42.26-.76.26h-7.14Zm11.86.16c-.42 0-.74-.11-.96-.34a1.42 1.42 0 0 1-.32-.98V11.73c0-.43.11-.75.34-.96.22-.23.54-.34.96-.34h4.82c1.54 0 2.74.37 3.58 1.12a3.9 3.9 0 0 1 1.26 3.1c0 .87-.2 1.61-.58 2.24-.38.63-.92 1.1-1.64 1.44-.72.33-1.6.5-2.62.5l.18-.3h.66c.54 0 1.02.13 1.42.4.41.27.77.69 1.08 1.26l1.5 2.78c.16.28.23.55.22.82a.93.93 0 0 1-.3.66c-.19.16-.46.24-.82.24a1.6 1.6 0 0 1-.88-.22c-.23-.16-.43-.4-.6-.72l-2.02-3.72a1.89 1.89 0 0 0-.86-.9 2.78 2.78 0 0 0-1.24-.24h-1.9v4.48c0 .41-.1.74-.32.98-.22.23-.54.34-.96.34Zm1.28-7.7h3.12c.92 0 1.61-.19 2.08-.56.48-.39.72-.96.72-1.72 0-.75-.24-1.3-.72-1.68-.47-.39-1.16-.58-2.08-.58h-3.12v4.54Z" fill="#fff"/>
  <path d="M193.15 89.5v-9.42c8.7 0 15.94-6.26 17.47-14.52h-6.06v-9.41h14.08c.93 0 1.68.75 1.68 1.68v4.48a27.2 27.2 0 0 1-27.17 27.17v.01Z" fill="url(#m)"/>
  <path d="M158.18 89.5v-9.42c-8.69 0-15.94-6.26-17.47-14.52h6.07v-9.41H132.7c-.93 0-1.68.75-1.68 1.68v4.48a27.2 27.2 0 0 0 27.16 27.17v.01Z" fill="url(#n)"/>
  <path d="M181.59 104.46h-11.84v19h11.84v-19Z" fill="url(#o)"/>
  <path d="M185.78 119.24h-20.22a2.1 2.1 0 1 0 0 4.2h20.22a2.1 2.1 0 1 0 0-4.2Z" fill="#BABCFF"/>
  <path d="M150.43 47.02h50.47a3.65 3.65 0 0 1 3.66 3.65v30.1a28.9 28.9 0 0 1-28.88 28.88 28.9 28.9 0 0 1-28.89-28.88v-30.1a3.65 3.65 0 0 1 3.65-3.65Z" fill="url(#p)"/>
  <path d="m176 56.21 5.12 10.39c.2.4.58.68 1.03.74L193.6 69a1.37 1.37 0 0 1 .76 2.33l-8.29 8.08c-.32.32-.47.77-.4 1.2l1.96 11.42a1.36 1.36 0 0 1-1.97 1.43l-10.25-5.39c-.4-.2-.87-.2-1.26 0l-10.25 5.39c-1 .52-2.16-.33-1.98-1.43l1.96-11.42c.08-.43-.07-.9-.4-1.2l-8.28-8.08c-.8-.78-.36-2.16.75-2.33l11.46-1.66c.45-.06.83-.34 1.03-.74l5.13-10.39a1.36 1.36 0 0 1 2.43 0Z" fill="#EEF"/>
  <path d="M231.22 52.47c-4.3 1.06-5.16 1.92-6.21 6.25-1.05-4.33-1.91-5.2-6.2-6.25 4.3-1.07 5.15-1.93 6.2-6.26 1.05 4.33 1.91 5.2 6.2 6.26ZM144.6 89.5c-2.5.6-3 1.1-3.62 3.63-.61-2.51-1.12-3.02-3.62-3.64 2.5-.61 3-1.11 3.62-3.64.61 2.52 1.11 3.02 3.62 3.64Z" fill="#594BFF"/>
  <defs>
    <linearGradient gradientUnits="userSpaceOnUse" id="a" x1="61.64" x2="43.95" y1="48.78" y2="365.38">
      <stop offset=".4" stop-color="#FF9A83"/>
      <stop offset=".42" stop-color="#E38E97"/>
      <stop offset=".47" stop-color="#BD7EB2"/>
      <stop offset=".52" stop-color="#9C71CA"/>
      <stop offset=".57" stop-color="#8266DD"/>
      <stop offset=".62" stop-color="#6E5DEC"/>
      <stop offset=".68" stop-color="#5F57F7"/>
      <stop offset=".76" stop-color="#5754FD"/>
      <stop offset=".89" stop-color="#5553FF"/>
    </linearGradient>
    <linearGradient gradientUnits="userSpaceOnUse" id="b" x1="339.15" x2="-384.45" y1="32.51" y2="781.86">
      <stop offset=".15" stop-color="#AAA9FF"/>
      <stop offset=".2" stop-color="#A2A1FB"/>
      <stop offset=".28" stop-color="#8D8BF2"/>
      <stop offset=".38" stop-color="#6B68E2"/>
      <stop offset=".47" stop-color="#4643D2"/>
      <stop offset=".51" stop-color="#413EC5"/>
      <stop offset=".58" stop-color="#3633A5"/>
      <stop offset=".66" stop-color="#232271"/>
      <stop offset=".73" stop-color="#131242"/>
    </linearGradient>
    <linearGradient gradientUnits="userSpaceOnUse" id="c" x1="135.53" x2="357.49" y1="88.18" y2="444.26">
      <stop offset=".43" stop-color="#FF9A83"/>
      <stop offset=".46" stop-color="#E38E97"/>
      <stop offset=".5" stop-color="#BD7EB2"/>
      <stop offset=".54" stop-color="#9C71CA"/>
      <stop offset=".59" stop-color="#8266DD"/>
      <stop offset=".64" stop-color="#6E5DEC"/>
      <stop offset=".7" stop-color="#5F57F7"/>
      <stop offset=".77" stop-color="#5754FD"/>
      <stop offset=".89" stop-color="#5553FF"/>
    </linearGradient>
    <linearGradient gradientUnits="userSpaceOnUse" id="d" x1="45.06" x2="743.79" y1="351.95" y2="-105.48">
      <stop offset=".15" stop-color="#AAA9FF"/>
      <stop offset=".2" stop-color="#A2A1FB"/>
      <stop offset=".28" stop-color="#8D8BF2"/>
      <stop offset=".38" stop-color="#6B68E2"/>
      <stop offset=".47" stop-color="#4643D2"/>
      <stop offset=".51" stop-color="#413EC5"/>
      <stop offset=".58" stop-color="#3633A5"/>
      <stop offset=".66" stop-color="#232271"/>
      <stop offset=".73" stop-color="#131242"/>
    </linearGradient>
    <linearGradient gradientUnits="userSpaceOnUse" id="e" x1="308.78" x2="313.93" y1="102.04" y2="545.55">
      <stop offset=".15" stop-color="#AAA9FF"/>
      <stop offset=".2" stop-color="#A2A1FB"/>
      <stop offset=".28" stop-color="#8D8BF2"/>
      <stop offset=".38" stop-color="#6B68E2"/>
      <stop offset=".47" stop-color="#4643D2"/>
      <stop offset=".51" stop-color="#413EC5"/>
      <stop offset=".58" stop-color="#3633A5"/>
      <stop offset=".66" stop-color="#232271"/>
      <stop offset=".73" stop-color="#131242"/>
    </linearGradient>
    <linearGradient gradientUnits="userSpaceOnUse" id="f" x1="200.26" x2="445.82" y1="124.21" y2="361.28">
      <stop offset=".15" stop-color="#AAA9FF"/>
      <stop offset=".2" stop-color="#A2A1FB"/>
      <stop offset=".28" stop-color="#8D8BF2"/>
      <stop offset=".38" stop-color="#6B68E2"/>
      <stop offset=".47" stop-color="#4643D2"/>
      <stop offset=".51" stop-color="#413EC5"/>
      <stop offset=".58" stop-color="#3633A5"/>
      <stop offset=".66" stop-color="#232271"/>
      <stop offset=".73" stop-color="#131242"/>
    </linearGradient>
    <linearGradient gradientUnits="userSpaceOnUse" id="g" x1="-66.77" x2="148.09" y1="119.27" y2="225.45">
      <stop offset=".08" stop-color="#CCCBFF"/>
      <stop offset=".51" stop-color="#CAC9FF"/>
      <stop offset=".66" stop-color="#C3C2FF"/>
      <stop offset=".77" stop-color="#B7B6FF"/>
      <stop offset=".86" stop-color="#A7A5FF"/>
      <stop offset=".93" stop-color="#918FFF"/>
      <stop offset="1" stop-color="#7775FF"/>
    </linearGradient>
    <linearGradient gradientUnits="userSpaceOnUse" id="h" x1="267.35" x2="338.05" y1="188.65" y2="148.11">
      <stop offset=".15" stop-color="#AAA9FF"/>
      <stop offset=".2" stop-color="#A2A1FB"/>
      <stop offset=".28" stop-color="#8D8BF2"/>
      <stop offset=".38" stop-color="#6B68E2"/>
      <stop offset=".47" stop-color="#4643D2"/>
      <stop offset=".51" stop-color="#413EC5"/>
      <stop offset=".58" stop-color="#3633A5"/>
      <stop offset=".66" stop-color="#232271"/>
      <stop offset=".73" stop-color="#131242"/>
    </linearGradient>
    <linearGradient gradientUnits="userSpaceOnUse" id="i" x1="224.92" x2="448.08" y1="97.14" y2="507.57">
      <stop offset=".15" stop-color="#AAA9FF"/>
      <stop offset=".2" stop-color="#A2A1FB"/>
      <stop offset=".28" stop-color="#8D8BF2"/>
      <stop offset=".38" stop-color="#6B68E2"/>
      <stop offset=".47" stop-color="#4643D2"/>
      <stop offset=".51" stop-color="#413EC5"/>
      <stop offset=".58" stop-color="#3633A5"/>
      <stop offset=".66" stop-color="#232271"/>
      <stop offset=".73" stop-color="#131242"/>
    </linearGradient>
    <linearGradient gradientUnits="userSpaceOnUse" id="j" x1="99.41" x2="110.4" y1="96.8" y2="796.31">
      <stop offset=".15" stop-color="#AAA9FF"/>
      <stop offset=".2" stop-color="#A2A1FB"/>
      <stop offset=".28" stop-color="#8D8BF2"/>
      <stop offset=".38" stop-color="#6B68E2"/>
      <stop offset=".47" stop-color="#4643D2"/>
      <stop offset=".51" stop-color="#413EC5"/>
      <stop offset=".58" stop-color="#3633A5"/>
      <stop offset=".66" stop-color="#232271"/>
      <stop offset=".73" stop-color="#131242"/>
    </linearGradient>
    <linearGradient gradientUnits="userSpaceOnUse" id="k" x1="184.02" x2="147.69" y1="356.83" y2="31.28">
      <stop offset=".09" stop-color="#00C7B2"/>
      <stop offset=".2" stop-color="#08BBB9"/>
      <stop offset=".4" stop-color="#1F9BCE"/>
      <stop offset=".66" stop-color="#4568F0"/>
      <stop offset=".76" stop-color="#5553FF"/>
    </linearGradient>
    <linearGradient gradientUnits="userSpaceOnUse" id="l" x1="185.28" x2="172.04" y1="-75.26" y2="53.5">
      <stop offset=".33" stop-color="#00C7B2"/>
      <stop offset=".47" stop-color="#01C4B3"/>
      <stop offset=".57" stop-color="#08BBB9"/>
      <stop offset=".65" stop-color="#13ACC3"/>
      <stop offset=".72" stop-color="#2397D1"/>
      <stop offset=".79" stop-color="#377BE3"/>
      <stop offset=".85" stop-color="#4F5AFA"/>
      <stop offset=".86" stop-color="#5553FF"/>
    </linearGradient>
    <linearGradient gradientUnits="userSpaceOnUse" id="m" x1="257.52" x2="134.81" y1="70.69" y2="75.17">
      <stop offset=".15" stop-color="#AAA9FF"/>
      <stop offset=".2" stop-color="#A2A1FB"/>
      <stop offset=".28" stop-color="#8D8BF2"/>
      <stop offset=".38" stop-color="#6B68E2"/>
      <stop offset=".47" stop-color="#4643D2"/>
      <stop offset=".51" stop-color="#413EC5"/>
      <stop offset=".58" stop-color="#3633A5"/>
      <stop offset=".66" stop-color="#232271"/>
      <stop offset=".73" stop-color="#131242"/>
    </linearGradient>
    <linearGradient gradientUnits="userSpaceOnUse" id="n" x1="107.84" x2="199.75" y1="73.51" y2="71.83">
      <stop offset=".15" stop-color="#AAA9FF"/>
      <stop offset=".2" stop-color="#A2A1FB"/>
      <stop offset=".28" stop-color="#8D8BF2"/>
      <stop offset=".38" stop-color="#6B68E2"/>
      <stop offset=".47" stop-color="#4643D2"/>
      <stop offset=".51" stop-color="#413EC5"/>
      <stop offset=".58" stop-color="#3633A5"/>
      <stop offset=".66" stop-color="#232271"/>
      <stop offset=".73" stop-color="#131242"/>
    </linearGradient>
    <linearGradient gradientUnits="userSpaceOnUse" id="o" x1="174.9" x2="177.18" y1="96.42" y2="148.25">
      <stop offset=".15" stop-color="#AAA9FF"/>
      <stop offset=".2" stop-color="#A2A1FB"/>
      <stop offset=".28" stop-color="#8D8BF2"/>
      <stop offset=".38" stop-color="#6B68E2"/>
      <stop offset=".47" stop-color="#4643D2"/>
      <stop offset=".51" stop-color="#413EC5"/>
      <stop offset=".58" stop-color="#3633A5"/>
      <stop offset=".66" stop-color="#232271"/>
      <stop offset=".73" stop-color="#131242"/>
    </linearGradient>
    <linearGradient gradientUnits="userSpaceOnUse" id="p" x1="177.36" x2="168.81" y1="-24.91" y2="435.69">
      <stop offset=".15" stop-color="#AAA9FF"/>
      <stop offset=".2" stop-color="#A2A1FB"/>
      <stop offset=".28" stop-color="#8D8BF2"/>
      <stop offset=".38" stop-color="#6B68E2"/>
      <stop offset=".47" stop-color="#4643D2"/>
      <stop offset=".51" stop-color="#413EC5"/>
      <stop offset=".58" stop-color="#3633A5"/>
      <stop offset=".66" stop-color="#232271"/>
      <stop offset=".73" stop-color="#131242"/>
    </linearGradient>
  </defs>
</svg>