<svg xmlns:xlink="http://www.w3.org/1999/xlink" width="32" height="32" viewBox="0 0 32 32" fill="none" xmlns="http://www.w3.org/2000/svg"><path d="M27.4389 5.31519L26.1914 4.06767C26.1443 4.0206 26.0855 4 26.0237 4C25.9619 4 25.9031 4.02354 25.856 4.06767L23.6169 6.30673C22.6436 5.64723 21.4944 5.29561 20.3187 5.29754C18.8122 5.29754 17.3058 5.87128 16.1554 7.0217L13.1572 10.0199C13.1134 10.0641 13.0888 10.1238 13.0888 10.1861C13.0888 10.2484 13.1134 10.3081 13.1572 10.3523L21.1513 18.3465C21.1984 18.3935 21.2572 18.4141 21.319 18.4141C21.3779 18.4141 21.4397 18.3906 21.4867 18.3465L24.4849 15.3483C26.5121 13.3181 26.7504 10.1787 25.1999 7.88967L27.4389 5.65061C27.5301 5.55645 27.5301 5.4064 27.4389 5.31519ZM23.0667 13.9331L21.319 15.6808L15.8229 10.1846L17.5706 8.43692C18.3032 7.7043 19.28 7.29827 20.3187 7.29827C21.3573 7.29827 22.3312 7.70136 23.0667 8.43692C23.7993 9.16955 24.2054 10.1464 24.2054 11.185C24.2054 12.2236 23.7993 13.1975 23.0667 13.9331ZM17.4705 17.0224C17.4263 16.9786 17.3666 16.9541 17.3043 16.9541C17.2421 16.9541 17.1823 16.9786 17.1381 17.0224L15.1785 18.982L12.5217 16.3251L14.4842 14.3626C14.5754 14.2714 14.5754 14.1214 14.4842 14.0302L13.4132 12.9592C13.3689 12.9154 13.3092 12.8908 13.2469 12.8908C13.1847 12.8908 13.1249 12.9154 13.0807 12.9592L11.1182 14.9217L9.85304 13.6565C9.83108 13.6345 9.8049 13.6172 9.77609 13.6056C9.74727 13.5939 9.7164 13.5882 9.68533 13.5888C9.62649 13.5888 9.5647 13.6124 9.51763 13.6565L6.52241 16.6547C4.49519 18.6848 4.25687 21.8242 5.80744 24.1133L3.56838 26.3523C3.52457 26.3966 3.5 26.4563 3.5 26.5186C3.5 26.5808 3.52457 26.6406 3.56838 26.6848L4.8159 27.9323C4.86297 27.9794 4.92182 28 4.9836 28C5.04539 28 5.10424 27.9765 5.15131 27.9323L7.39037 25.6933C8.38191 26.367 9.53528 26.7025 10.6886 26.7025C12.1951 26.7025 13.7015 26.1287 14.8519 24.9783L17.8501 21.9801C17.9413 21.8889 17.9413 21.7389 17.8501 21.6477L16.5849 20.3825L18.5474 18.42C18.6386 18.3288 18.6386 18.1787 18.5474 18.0875L17.4705 17.0224ZM13.4338 23.566C13.0737 23.928 12.6454 24.215 12.1737 24.4104C11.702 24.6058 11.1963 24.7059 10.6857 24.7047C9.64708 24.7047 8.6732 24.3016 7.93763 23.566C7.57568 23.2059 7.28869 22.7776 7.09325 22.306C6.89781 21.8343 6.79779 21.3285 6.79898 20.8179C6.79898 19.7793 7.20207 18.8054 7.93763 18.0699L9.68533 16.3222L15.1815 21.8183L13.4338 23.566Z" fill="#4744D4"></path></svg>