<svg xmlns:xlink="http://www.w3.org/1999/xlink" width="24" height="24" viewBox="0 0 24 24" fill="none" xmlns="http://www.w3.org/2000/svg" class="h-6 w-6 dark:hidden"><g clip-path="url(#tf_a)" fill="none"><path d="M14.66 22.94a8.76 8.76 0 1 0-.02-17.53 8.76 8.76 0 0 0 .02 17.53Z" fill="#091363"></path><path d="M9.1 12.21v-.82c0-.8.12-1.56.46-2.13.33-.56.91-.93 1.86-.93.88 0 1.47.33 1.83.85.35.53.48 1.28.48 2.1a11 11 0 0 1-1.02 3.97 29.06 29.06 0 0 1-1.7 3.31h2.75v1.73H9.05v-1.73c.53-.82 1-1.65 1.44-2.5.37-.7.72-1.51 1-2.33.27-.82.48-1.62.5-2.35 0-.32-.02-.7-.1-.97-.08-.28-.23-.48-.48-.48-.24 0-.38.18-.47.44a3.7 3.7 0 0 0-.1 1v.83H9.1v.01ZM16.2 20.3h-1.71l1.91-6.22-1.88-5.63h1.7l.95 3 .04.14h.07l.04-.15.95-2.99h1.7l-1.88 5.63L20 20.29h-1.7l-1-3.52-.03-.14h-.07l-.03.14-1 3.52h.02Z" fill="#091363"></path><path d="M16.76 2.06h-5.14c-.11 0-.2.1-.2.21V5.6c0 .12.09.21.2.21h5.14c.12 0 .21-.09.21-.2V2.26c0-.11-.1-.2-.2-.2Z" fill="url(&quot;#tf_b&quot;)"></path><path d="M14.2 4.34a9.8 9.8 0 0 0-8.86 5.61H1.12a.83.83 0 0 0-.82.83c0 .45.37.82.82.82h3.61a9.9 9.9 0 0 0-.32 1.95H1.86a.82.82 0 0 0 0 1.64h2.58c.07.67.2 1.33.4 1.95H1.12a.83.83 0 0 0-.82.82c0 .45.37.83.82.83h4.42c.32.6.71 1.18 1.15 1.7H.87a.82.82 0 0 0 0 1.64h7.6A9.82 9.82 0 0 0 24 14.14a9.82 9.82 0 0 0-9.8-9.84v.03Z" fill="url(&quot;#tf_c&quot;)"></path><path d="M14.2 22.94a8.76 8.76 0 1 0-.02-17.52 8.76 8.76 0 0 0 .02 17.52Z" fill="url(&quot;#tf_d&quot;)"></path><path d="M17.6.1h-6.8a.2.2 0 0 0-.2.2v2.36c0 .11.09.2.2.2h6.8c.1 0 .2-.09.2-.2V.31a.2.2 0 0 0-.2-.2Z" fill="url(&quot;#tf_e&quot;)"></path><path d="M8.63 12.21v-.82c0-.8.12-1.56.45-2.13.34-.56.92-.93 1.86-.93.89 0 1.48.33 1.83.85.36.53.48 1.28.48 2.1a11 11 0 0 1-1 3.97 29.06 29.06 0 0 1-1.71 3.31h2.74v1.73h-4.7v-1.73c.53-.82 1-1.65 1.44-2.5.37-.7.72-1.51 1-2.33.27-.82.48-1.62.5-2.35 0-.32-.02-.7-.1-.97-.09-.28-.23-.48-.48-.48-.24 0-.39.18-.47.44a3.7 3.7 0 0 0-.11 1v.83H8.63v.01Z" fill="url(&quot;#tf_f&quot;)"></path><path d="M15.72 20.3h-1.7l1.9-6.22-1.87-5.63h1.7l.94 3 .05.14h.07l.04-.15.95-2.99h1.7l-1.88 5.63 1.9 6.21h-1.7l-1-3.52-.02-.14h-.07l-.03.14-1 3.52h.02Z" fill="url(&quot;#tf_g&quot;)"></path></g><defs><linearGradient id="tf_b" x1="13.66" y1="-3.53" x2="14.54" y2="8.78" gradientUnits="userSpaceOnUse"><stop offset="0.15" stop-color="#A9A8FF"></stop><stop offset="0.2" stop-color="#A1A0FC"></stop><stop offset="0.28" stop-color="#8C8AF3"></stop><stop offset="0.38" stop-color="#6A67E6"></stop><stop offset="0.47" stop-color="#4743D9"></stop><stop offset="0.51" stop-color="#423ECC"></stop><stop offset="0.57" stop-color="#3734AC"></stop><stop offset="0.66" stop-color="#242278"></stop><stop offset="0.73" stop-color="#131245"></stop></linearGradient><linearGradient id="tf_c" x1="22.71" y1="7.25" x2="6.37" y2="18.92" gradientUnits="userSpaceOnUse"><stop offset="0.33" stop-color="#00CAB1"></stop><stop offset="0.43" stop-color="#02C6B3"></stop><stop offset="0.53" stop-color="#0ABBBA"></stop><stop offset="0.62" stop-color="#17A8C7"></stop><stop offset="0.72" stop-color="#2A8ED8"></stop><stop offset="0.8" stop-color="#426CEE"></stop><stop offset="0.86" stop-color="#5553FF"></stop></linearGradient><linearGradient id="tf_d" x1="37.37" y1="-12.06" x2="-16.02" y2="48.38" gradientUnits="userSpaceOnUse"><stop offset="0.4" stop-color="#CBCAFF"></stop><stop offset="0.41" stop-color="#BEBDFF"></stop><stop offset="0.49" stop-color="#918FFF"></stop><stop offset="0.56" stop-color="#706EFF"></stop><stop offset="0.62" stop-color="#5C5AFF"></stop><stop offset="0.66" stop-color="#5553FF"></stop></linearGradient><linearGradient id="tf_e" x1="13.88" y1="-4.11" x2="14.35" y2="4.16" gradientUnits="userSpaceOnUse"><stop offset="0.33" stop-color="#00CAB1"></stop><stop offset="0.43" stop-color="#02C6B3"></stop><stop offset="0.53" stop-color="#0ABBBA"></stop><stop offset="0.62" stop-color="#17A8C7"></stop><stop offset="0.72" stop-color="#2A8ED8"></stop><stop offset="0.8" stop-color="#426CEE"></stop><stop offset="0.86" stop-color="#5553FF"></stop></linearGradient><linearGradient id="tf_f" x1="8.59" y1="14.31" x2="13.3" y2="14.31" gradientUnits="userSpaceOnUse"><stop offset="0.39" stop-color="#131245"></stop><stop offset="1" stop-color="#0E0D2B"></stop></linearGradient><linearGradient id="tf_g" x1="14.02" y1="14.38" x2="19.54" y2="14.38" gradientUnits="userSpaceOnUse"><stop offset="0.39" stop-color="#131245"></stop><stop offset="1" stop-color="#0E0D2B"></stop></linearGradient><clipPath id="tf_a"><path fill="#fff" d="M0 0h24v24H0z"></path></clipPath><linearGradient id="tf_b" x1="13.66" y1="-3.53" x2="14.54" y2="8.78" gradientUnits="userSpaceOnUse"><stop offset="0.15" stop-color="#A9A8FF"></stop><stop offset="0.2" stop-color="#A1A0FC"></stop><stop offset="0.28" stop-color="#8C8AF3"></stop><stop offset="0.38" stop-color="#6A67E6"></stop><stop offset="0.47" stop-color="#4743D9"></stop><stop offset="0.51" stop-color="#423ECC"></stop><stop offset="0.57" stop-color="#3734AC"></stop><stop offset="0.66" stop-color="#242278"></stop><stop offset="0.73" stop-color="#131245"></stop></linearGradient><linearGradient id="tf_c" x1="22.71" y1="7.25" x2="6.37" y2="18.92" gradientUnits="userSpaceOnUse"><stop offset="0.33" stop-color="#00CAB1"></stop><stop offset="0.43" stop-color="#02C6B3"></stop><stop offset="0.53" stop-color="#0ABBBA"></stop><stop offset="0.62" stop-color="#17A8C7"></stop><stop offset="0.72" stop-color="#2A8ED8"></stop><stop offset="0.8" stop-color="#426CEE"></stop><stop offset="0.86" stop-color="#5553FF"></stop></linearGradient><linearGradient id="tf_d" x1="37.37" y1="-12.06" x2="-16.02" y2="48.38" gradientUnits="userSpaceOnUse"><stop offset="0.4" stop-color="#CBCAFF"></stop><stop offset="0.41" stop-color="#BEBDFF"></stop><stop offset="0.49" stop-color="#918FFF"></stop><stop offset="0.56" stop-color="#706EFF"></stop><stop offset="0.62" stop-color="#5C5AFF"></stop><stop offset="0.66" stop-color="#5553FF"></stop></linearGradient><linearGradient id="tf_e" x1="13.88" y1="-4.11" x2="14.35" y2="4.16" gradientUnits="userSpaceOnUse"><stop offset="0.33" stop-color="#00CAB1"></stop><stop offset="0.43" stop-color="#02C6B3"></stop><stop offset="0.53" stop-color="#0ABBBA"></stop><stop offset="0.62" stop-color="#17A8C7"></stop><stop offset="0.72" stop-color="#2A8ED8"></stop><stop offset="0.8" stop-color="#426CEE"></stop><stop offset="0.86" stop-color="#5553FF"></stop></linearGradient><linearGradient id="tf_f" x1="8.59" y1="14.31" x2="13.3" y2="14.31" gradientUnits="userSpaceOnUse"><stop offset="0.39" stop-color="#131245"></stop><stop offset="1" stop-color="#0E0D2B"></stop></linearGradient><linearGradient id="tf_g" x1="14.02" y1="14.38" x2="19.54" y2="14.38" gradientUnits="userSpaceOnUse"><stop offset="0.39" stop-color="#131245"></stop><stop offset="1" stop-color="#0E0D2B"></stop></linearGradient></defs></svg>