<svg xmlns:xlink="http://www.w3.org/1999/xlink" xmlns="http://www.w3.org/2000/svg" width="32" height="32" viewBox="0 0 32 32" fill="none" class="tailwind-hidden h-7 w-7 text-indigo-500 dark:hidden dark:text-indigo-400 lg:block dark:lg:hidden"><mask id="mask0_4077_37804" style="mask-type:alpha" maskUnits="userSpaceOnUse" x="0" y="0" width="32" height="32" fill="none"><rect width="32" height="32" fill="#D9D9D9"></rect></mask><g mask="url(#mask0_4077_37804)" fill="none"><path d="M6.43438 16.0332L11.601 21.1999C11.8455 21.4443 11.9677 21.7554 11.9677 22.1332C11.9677 22.511 11.8455 22.8221 11.601 23.0665C11.3566 23.311 11.0455 23.4332 10.6677 23.4332C10.2899 23.4332 9.97882 23.311 9.73438 23.0665L3.60104 16.9332C3.46771 16.7999 3.37326 16.6554 3.31771 16.4999C3.26215 16.3443 3.23438 16.1776 3.23438 15.9999C3.23438 15.8221 3.26215 15.6554 3.31771 15.4999C3.37326 15.3443 3.46771 15.1999 3.60104 15.0665L9.73438 8.9332C10.001 8.66654 10.3177 8.5332 10.6844 8.5332C11.051 8.5332 11.3677 8.66654 11.6344 8.9332C11.901 9.19987 12.0344 9.51654 12.0344 9.8832C12.0344 10.2499 11.901 10.5665 11.6344 10.8332L6.43438 16.0332ZM25.5677 15.9665L20.401 10.7999C20.1566 10.5554 20.0344 10.2443 20.0344 9.86654C20.0344 9.48876 20.1566 9.17765 20.401 8.9332C20.6455 8.68876 20.9566 8.56654 21.3344 8.56654C21.7122 8.56654 22.0233 8.68876 22.2677 8.9332L28.401 15.0665C28.5344 15.1999 28.6288 15.3443 28.6844 15.4999C28.7399 15.6554 28.7677 15.8221 28.7677 15.9999C28.7677 16.1776 28.7399 16.3443 28.6844 16.4999C28.6288 16.6554 28.5344 16.7999 28.401 16.9332L22.2677 23.0665C22.001 23.3332 21.6899 23.461 21.3344 23.4499C20.9788 23.4388 20.6677 23.2999 20.401 23.0332C20.1344 22.7665 20.001 22.4499 20.001 22.0832C20.001 21.7165 20.1344 21.3999 20.401 21.1332L25.5677 15.9665Z" fill="#4744D4"></path></g></svg>