<svg xmlns:xlink="http://www.w3.org/1999/xlink" width="18" height="16" viewBox="0 0 18 16" fill="none" xmlns="http://www.w3.org/2000/svg"><rect x="0.75" y="0.75" width="16.5" height="13.6463" rx="1.25" stroke="#5553FF" stroke-width="1.5px" fill="none"></rect><path d="M2 3.51577V3.42905C2 3.21453 2.16568 3.04108 2.37334 3.04108L12.69 3C12.8977 3 13.0655 3.17116 13.0655 3.38569V3.47241C13.0655 3.68693 12.8999 3.86038 12.6922 3.86038L2.37555 3.90146C2.16789 3.90146 2 3.72801 2 3.51577Z" fill="#5553FF"></path><path d="M2 5.27261V5.18589C2 4.97136 2.16568 4.79792 2.37334 4.79792L12.69 4.75684C12.8977 4.75684 13.0655 4.928 13.0655 5.14252V5.22925C13.0655 5.44377 12.8999 5.61722 12.6922 5.61722L2.37555 5.65829C2.16789 5.65829 2 5.48485 2 5.27261Z" fill="#5553FF"></path><path d="M2 7.02651V6.93979C2 6.72527 2.16568 6.55182 2.37334 6.55182L12.69 6.51074C12.8977 6.51074 13.0655 6.68191 13.0655 6.89643V6.98315C13.0655 7.19768 12.8999 7.37112 12.6922 7.37112L2.37555 7.4122C2.16789 7.4122 2 7.23876 2 7.02651Z" fill="#5553FF"></path><path d="M11.8096 10.9053H11V12.9682H11.8096V10.9053Z" fill="#5553FF"></path><path d="M13.0088 9.15723H12.1992V12.9684H13.0088V9.15723Z" fill="#5553FF"></path><path d="M14.209 9.86328H13.3994V12.9675H14.209V9.86328Z" fill="#5553FF"></path><path d="M15.4082 7.98145H14.5986V12.9681H15.4082V7.98145Z" fill="#5553FF"></path><path d="M7.37674 9C7.2045 9 7.06492 9.13621 7.06492 9.30394C7.06492 9.36585 7.08405 9.42214 7.11557 9.47054L6.13846 10.5704C6.09794 10.5523 6.05404 10.5411 6.00676 10.5411C5.90995 10.5411 5.82439 10.5839 5.76698 10.6503L4.94522 10.2946C4.94747 10.2811 4.94859 10.2664 4.94859 10.2518C4.94859 10.0852 4.80901 9.94784 4.63677 9.94784C4.46567 9.94784 4.32608 10.0841 4.32608 10.2518C4.32608 10.3114 4.34409 10.3677 4.37449 10.4139L3.44803 11.4225C3.40638 11.4023 3.36023 11.3921 3.31182 11.3921C3.13959 11.3921 3 11.5283 3 11.6961C3 11.8627 3.13959 12 3.31182 12C3.48293 12 3.62251 11.8638 3.62251 11.6961C3.62251 11.6364 3.6045 11.5801 3.57411 11.534L4.50056 10.5253C4.54221 10.5456 4.58837 10.5557 4.63677 10.5557C4.73359 10.5557 4.81914 10.5129 4.87655 10.4465L5.69831 10.8023C5.69606 10.8158 5.69494 10.8304 5.69494 10.845C5.69494 11.0128 5.83452 11.149 6.00676 11.149C6.17786 11.149 6.31745 11.0128 6.31745 10.845C6.31745 10.7842 6.29831 10.7268 6.26679 10.6784L7.2439 9.57861C7.28443 9.59662 7.32833 9.60788 7.37561 9.60788C7.54672 9.60788 7.68631 9.47167 7.68631 9.30394C7.68856 9.13734 7.54897 9 7.37674 9ZM3.31182 11.8356C3.23415 11.8356 3.16998 11.7737 3.16998 11.6972C3.16998 11.6206 3.23415 11.5587 3.31182 11.5587C3.38949 11.5587 3.45366 11.6206 3.45366 11.6972C3.45366 11.7737 3.38949 11.8356 3.31182 11.8356ZM4.6379 10.3914C4.56023 10.3914 4.49606 10.3295 4.49606 10.2529C4.49606 10.1775 4.5591 10.1144 4.6379 10.1144C4.71557 10.1144 4.77974 10.1764 4.77974 10.2529C4.77974 10.3295 4.7167 10.3914 4.6379 10.3914ZM6.00788 10.9835C5.93021 10.9835 5.86604 10.9216 5.86604 10.845C5.86604 10.7696 5.93021 10.7066 6.00788 10.7066C6.08555 10.7066 6.14972 10.7685 6.14972 10.845C6.14972 10.9216 6.08555 10.9835 6.00788 10.9835ZM7.37674 9.4424C7.29906 9.4424 7.2349 9.38049 7.2349 9.30394C7.2349 9.22852 7.29794 9.16548 7.37674 9.16548C7.45441 9.16548 7.51858 9.22739 7.51858 9.30394C7.51858 9.38049 7.45554 9.4424 7.37674 9.4424Z" fill="#5553FF"></path></svg>