<svg xmlns:xlink="http://www.w3.org/1999/xlink" viewBox="0 0 24 19" width="24" height="24" fill="none" xmlns="http://www.w3.org/2000/svg"><path d="M10.5 6 2 3.4 15.1 1h.2l7.6 2.2c.3 0 .3.4 0 .5L10.6 5.9h-.1Z" stroke="#5553FF" fill="none"></path><path d="m2 15.5 8.5 2.5h.1l11.8-2.4c.2 0 .2-.2.2-.3v-6c0-.1-.1-.3-.3-.2l-11.7 2.4h-.1L2 9H2C1.3 8.4.2 5.4 2 3.5m0 0 8.5 2.4h.1L23 3.7c.3 0 .3-.5 0-.5L15.3 1H15l-13 2.5Z" stroke-width="2px" stroke-linecap="round" stroke="#5553FF" fill="none"></path></svg>