<svg xmlns:xlink="http://www.w3.org/1999/xlink" width="102" height="100" fill="none" xmlns="http://www.w3.org/2000/svg" class="tailwind-hidden dark:block"><path d="M13.299 39.398H5.35a2.352 2.352 0 0 0-2.352 2.352v38.159a2.352 2.352 0 0 0 2.352 2.352h7.95a2.352 2.352 0 0 0 2.352-2.352v-38.16a2.353 2.353 0 0 0-2.352-2.352Zm21.326-7.581h-7.948a2.352 2.352 0 0 0-2.353 2.353v45.739a2.352 2.352 0 0 0 2.352 2.352h7.949a2.352 2.352 0 0 0 2.352-2.352v-45.74a2.353 2.353 0 0 0-2.352-2.352Zm21.326-9.993h-7.948a2.352 2.352 0 0 0-2.353 2.352V79.91a2.352 2.352 0 0 0 2.353 2.352h7.948c1.3 0 2.352-1.053 2.352-2.352V24.177c0-1.3-1.053-2.353-2.352-2.353ZM69.329 11.07h7.948a2.354 2.354 0 0 1 2.352 2.353V79.8a2.46 2.46 0 0 1-2.46 2.46h-7.84a2.353 2.353 0 0 1-2.352-2.352V13.423a2.353 2.353 0 0 1 2.352-2.353ZM98.84.299h-7.96a2.346 2.346 0 0 0-2.346 2.346V79.5a2.346 2.346 0 0 0 2.346 2.346h7.961a2.346 2.346 0 0 0 2.346-2.346V2.645A2.346 2.346 0 0 0 98.84.299Z" fill="#172963"></path><path d="M11.129 39.398H3.18A2.352 2.352 0 0 0 .828 41.75v38.159a2.352 2.352 0 0 0 2.352 2.352h7.949a2.352 2.352 0 0 0 2.352-2.352v-38.16a2.353 2.353 0 0 0-2.352-2.352Zm21.326-7.581h-7.948a2.352 2.352 0 0 0-2.353 2.353v45.739a2.352 2.352 0 0 0 2.352 2.352h7.949a2.352 2.352 0 0 0 2.352-2.352v-45.74a2.353 2.353 0 0 0-2.352-2.352Zm21.326-9.993h-7.948a2.352 2.352 0 0 0-2.352 2.352V79.91a2.352 2.352 0 0 0 2.352 2.352h7.948c1.3 0 2.352-1.053 2.352-2.352V24.177c0-1.3-1.053-2.353-2.352-2.353ZM75.107 11.07H67.16a2.352 2.352 0 0 0-2.352 2.353v66.486c0 1.3 1.053 2.352 2.352 2.352h7.948c1.3 0 2.353-1.053 2.353-2.352V13.423c0-1.3-1.054-2.353-2.353-2.353ZM88.478.299h7.962a2.346 2.346 0 0 1 2.346 2.346V79.5a2.346 2.346 0 0 1-2.346 2.346h-8.06a2.248 2.248 0 0 1-2.247-2.246V2.645A2.346 2.346 0 0 1 88.479.299Z" fill="#1E40AF"></path><path d="M50.455 26.414v-5.293h-3.726a20.047 20.047 0 0 0-1.386-5.05l3.26-1.894-2.632-4.585-3.313 1.923a20.205 20.205 0 0 0-3.678-3.637l1.935-3.37-4.56-2.647L34.4 5.269a19.825 19.825 0 0 0-4.95-1.293V0h-5.265v4.004a19.823 19.823 0 0 0-4.91 1.333L17.278 1.86l-4.56 2.646 2.002 3.485a20.17 20.17 0 0 0-3.6 3.607L7.663 9.59 5.03 14.176l3.43 1.991a20.087 20.087 0 0 0-1.345 4.952H3.18v5.294h3.895c.215 1.75.652 3.43 1.286 5.012l-3.33 1.933 2.632 4.584 3.287-1.907a20.199 20.199 0 0 0 3.644 3.725l-1.874 3.266 4.559 2.647 1.848-3.218a19.793 19.793 0 0 0 5.058 1.393v3.685h5.265v-3.659a19.771 19.771 0 0 0 5.1-1.352l1.808 3.15 4.56-2.647-1.81-3.151a20.153 20.153 0 0 0 3.723-3.756l3.142 1.823 2.632-4.584-3.159-1.834a20.104 20.104 0 0 0 1.325-5.11h3.685l-.001.001Zm-23.071 2.577c-3.15.282-5.779-2.36-5.499-5.527.215-2.429 2.16-4.384 4.575-4.6 3.151-.283 5.78 2.36 5.498 5.528-.216 2.429-2.16 4.383-4.574 4.6Z" fill="#172963"></path><path d="M48.09 26.414v-5.293h-3.726a20.047 20.047 0 0 0-1.387-5.05l3.262-1.894-2.633-4.585-3.313 1.923a20.205 20.205 0 0 0-3.678-3.637l1.935-3.37-4.56-2.647-1.956 3.408a19.825 19.825 0 0 0-4.95-1.293V0h-5.265v4.004a19.824 19.824 0 0 0-4.91 1.333L14.912 1.86l-4.56 2.646 2.001 3.485a20.17 20.17 0 0 0-3.599 3.607L5.298 9.59l-2.633 4.585 3.432 1.991A20.087 20.087 0 0 0 4.75 21.12H.814v5.294H4.71c.215 1.75.652 3.43 1.285 5.012l-3.33 1.933 2.633 4.584 3.287-1.907a20.195 20.195 0 0 0 3.644 3.725l-1.875 3.266 4.56 2.647 1.847-3.218a19.792 19.792 0 0 0 5.06 1.393v3.685h5.264v-3.659a19.771 19.771 0 0 0 5.099-1.352l1.808 3.15 4.56-2.647-1.81-3.151a20.15 20.15 0 0 0 3.724-3.756l3.141 1.823 2.633-4.584-3.16-1.834a20.103 20.103 0 0 0 1.325-5.11h3.686l-.002.001Zm-23.072 2.577c-3.15.282-5.778-2.36-5.498-5.527.215-2.429 2.16-4.384 4.575-4.6 3.151-.283 5.78 2.36 5.498 5.528-.216 2.429-2.16 4.383-4.575 4.6Z" fill="#93C5FD"></path><path d="m9.385 85.597 2.31 4.741 5.163.76-3.736 3.69.882 5.212-4.619-2.46L4.767 100l.882-5.211-3.737-3.691 5.164-.76 2.31-4.741Z" fill="#172963"></path><path d="M4.766 100H3.682l1.191-.635-.107.635Z" fill="#091363"></path><path d="m8.301 85.597 2.31 4.741 5.163.76-3.736 3.69.882 5.212-4.62-2.46L3.683 100l.882-5.211-3.737-3.691 5.164-.76 2.31-4.741Z" fill="#FB923C"></path><path d="M9.385 85.597H8.301l.542 1.113.542-1.113ZM14.004 100h-1.085l-.107-.635 1.192.635Z" fill="#091363"></path><path d="m30.498 85.597 2.31 4.741 5.164.76-3.737 3.69.882 5.212-4.618-2.46L25.88 100l.882-5.211-3.737-3.691 5.165-.76 2.308-4.741Z" fill="#172963"></path><path d="M25.88 100h-1.085l1.192-.635-.107.635Z" fill="#091363"></path><path d="m29.413 85.597 2.31 4.741 5.163.76-3.737 3.69.883 5.212-4.62-2.46-4.618 2.46.882-5.211-3.736-3.691 5.164-.76 2.309-4.741Z" fill="#FB923C"></path><path d="M30.499 85.597h-1.085l.543 1.113.542-1.113ZM35.117 100h-1.083l-.108-.635 1.191.635Z" fill="#091363"></path><path d="m51.278 85.597 2.31 4.741 5.163.76-3.737 3.69.882 5.212-4.618-2.46-4.619 2.46.882-5.211-3.736-3.691 5.163-.76 2.31-4.741Z" fill="#172963"></path><path d="M46.659 100h-1.085l1.192-.635-.107.635Z" fill="#091363"></path><path d="m50.194 85.597 2.31 4.741 5.163.76-3.737 3.69.882 5.212-4.618-2.46-4.619 2.46.882-5.211-3.736-3.691 5.164-.76 2.309-4.741Z" fill="#FB923C"></path><path d="M51.278 85.597h-1.085l.543 1.113.542-1.113ZM55.897 100h-1.085l-.107-.635 1.192.635Z" fill="#091363"></path><path d="m72.495 85.597 2.31 4.741 5.163.76-3.737 3.69.883 5.212-4.62-2.46-4.618 2.46.882-5.211-3.736-3.691 5.164-.76 2.309-4.741Z" fill="#172963"></path><path d="M67.877 100h-1.084l1.192-.635-.108.635Z" fill="#091363"></path><path d="m71.41 85.597 2.31 4.741 5.164.76-3.737 3.69.883 5.212-4.62-2.46-4.618 2.46.882-5.211-3.737-3.691 5.165-.76 2.309-4.741Z" fill="#FB923C"></path><path d="M72.495 85.597H71.41l.543 1.113.542-1.113ZM77.114 100H76.03l-.108-.635 1.192.635Z" fill="#091363"></path><path d="m93.713 85.597 2.309 4.741 5.165.76-3.737 3.69.882 5.212-4.619-2.46-4.62 2.46.884-5.211-3.737-3.691 5.164-.76 2.31-4.741Z" fill="#172963"></path><path d="M89.094 100H88.01l1.192-.635-.108.635Z" fill="#091363"></path><path d="m92.63 85.597 2.308 4.741 5.165.76-3.737 3.69.882 5.212-4.619-2.46-4.62 2.46.884-5.211-3.737-3.691 5.164-.76 2.31-4.741Z" fill="#FB923C"></path><path d="M93.713 85.597H92.63l.542 1.113.542-1.113ZM98.331 100h-1.084l-.108-.635 1.192.635Z" fill="#091363"></path></svg>