<svg xmlns:xlink="http://www.w3.org/1999/xlink" width="25" height="26" fill="none" xmlns="http://www.w3.org/2000/svg" class="tailwind-hidden h-6 w-6 dark:block"><path d="M24.114 14.33v-2.675H22.31a10.293 10.293 0 0 0-.675-2.548l1.581-.959-1.274-2.315-1.603.974a10.095 10.095 0 0 0-1.783-1.836l.936-1.7-2.21-1.334-.952 1.723a9.226 9.226 0 0 0-2.398-.652V1h-2.547v2.023A9.238 9.238 0 0 0 9 3.697l-.967-1.753-2.21 1.334.967 1.76A10.06 10.06 0 0 0 5.045 6.86L3.366 5.848 2.093 8.163l1.663 1.004c-.315.787-.54 1.626-.652 2.503h-1.91v2.675h1.888c.104.884.314 1.73.622 2.533l-1.611.974 1.273 2.315 1.596-.967c.51.705 1.102 1.334 1.769 1.881l-.907 1.649 2.21 1.333.9-1.626a9.393 9.393 0 0 0 2.45.705V25h2.547v-1.85a9.235 9.235 0 0 0 2.473-.683l.877 1.589 2.21-1.334-.877-1.588a9.847 9.847 0 0 0 1.806-1.896l1.521.922 1.274-2.316-1.528-.929c.314-.81.532-1.678.644-2.577h1.783v-.008Z" fill="#131242"></path><path d="M11.742 20.751a7.748 7.748 0 1 0 0-15.495 7.748 7.748 0 0 0 0 15.495Z" fill="#93C5FD" stroke="#091363" stroke-width="0.13px" stroke-miterlimit="10"></path><path d="M23.148 14.33v-2.675h-1.806a10.293 10.293 0 0 0-.675-2.548l1.581-.959-1.273-2.315-1.604.974a10.095 10.095 0 0 0-1.783-1.836l.936-1.7-2.21-1.334-.952 1.723a9.226 9.226 0 0 0-2.397-.652V1h-2.548v2.023a9.238 9.238 0 0 0-2.383.674l-.966-1.753-2.21 1.334.966 1.76A10.06 10.06 0 0 0 4.078 6.86L2.4 5.848 1.126 8.163l1.663 1.004c-.315.787-.54 1.626-.652 2.503H.227v2.675h1.888c.105.884.314 1.73.622 2.533l-1.611.974L2.4 20.167l1.596-.967a9.988 9.988 0 0 0 1.768 1.881l-.907 1.649 2.21 1.333.9-1.626a9.393 9.393 0 0 0 2.45.705V25h2.548v-1.85a9.235 9.235 0 0 0 2.472-.683l.877 1.589 2.21-1.334-.876-1.588a9.847 9.847 0 0 0 1.805-1.896l1.522.922 1.273-2.316-1.528-.929c.315-.81.532-1.678.644-2.577h1.784v-.008Zm-10.753 6.204c-4.458.412-8.175-3.477-7.778-8.145.308-3.574 3.058-6.459 6.474-6.78 4.459-.42 8.175 3.476 7.778 8.144-.307 3.574-3.057 6.459-6.474 6.774v.007Z" fill="#172963" stroke="#091363" stroke-width="0.13px" stroke-miterlimit="10"></path><path d="M7.275 11.572v-.584c0-.562.083-1.117.323-1.521.24-.405.652-.667 1.333-.667.63 0 1.057.24 1.312.607.254.382.344.906.344 1.49 0 .862-.322 1.89-.726 2.84-.413.967-.9 1.829-1.222 2.368h1.963v1.23H7.23v-1.23c.383-.584.727-1.183 1.034-1.783.263-.51.518-1.079.712-1.67.195-.585.345-1.162.36-1.68a2.87 2.87 0 0 0-.067-.689c-.06-.194-.158-.344-.345-.344-.172 0-.277.127-.33.307-.06.195-.082.45-.082.727v.584H7.268l.007.015Zm6.282 5.77-.794-5.313-.045-.36h-.068v5.673h-1.146V8.89h1.521l.734 3.866.06.45h.023l.06-.45.734-3.866h1.521v8.452h-1.146V11.67h-.068l-.045.36-.794 5.312h-.547Z" fill="#172963"></path></svg>