<svg xmlns:xlink="http://www.w3.org/1999/xlink" xmlns="http://www.w3.org/2000/svg" width="32" height="32" viewBox="0 0 32 32" fill="none"><mask id="mask0_4077_37809" maskUnits="userSpaceOnUse" x="0" y="0" width="32" height="32" style="mask-type: alpha;" fill="none"><rect width="32" height="32" fill="#D9D9D9"></rect></mask><g mask="url(#mask0_4077_37809)" fill="none"><path d="M14.7992 15.8667L11.1992 25.8C11.177 25.8667 11.1214 25.9444 11.0326 26.0333L9.96589 27.0667C9.76589 27.2667 9.53811 27.3167 9.28255 27.2167C9.027 27.1167 8.877 26.9333 8.83255 26.6667L8.69922 25.2333L8.73255 24.9333L12.4659 14.6C12.7992 14.9111 13.1603 15.1722 13.5492 15.3833C13.9381 15.5944 14.3548 15.7556 14.7992 15.8667ZM15.9992 14.6667C14.8881 14.6667 13.9437 14.2778 13.1659 13.5C12.3881 12.7222 11.9992 11.7778 11.9992 10.6667C11.9992 9.8 12.2492 9.02778 12.7492 8.35C13.2492 7.67222 13.8881 7.2 14.6659 6.93333V5.33333C14.6659 4.95556 14.7937 4.63889 15.0492 4.38333C15.3048 4.12778 15.6214 4 15.9992 4C16.377 4 16.6937 4.12778 16.9492 4.38333C17.2048 4.63889 17.3326 4.95556 17.3326 5.33333V6.93333C18.1103 7.2 18.7492 7.67222 19.2492 8.35C19.7492 9.02778 19.9992 9.8 19.9992 10.6667C19.9992 11.7778 19.6103 12.7222 18.8326 13.5C18.0548 14.2778 17.1103 14.6667 15.9992 14.6667ZM15.9992 12C16.377 12 16.6937 11.8722 16.9492 11.6167C17.2048 11.3611 17.3326 11.0444 17.3326 10.6667C17.3326 10.2889 17.2048 9.97222 16.9492 9.71667C16.6937 9.46111 16.377 9.33333 15.9992 9.33333C15.6214 9.33333 15.3048 9.46111 15.0492 9.71667C14.7937 9.97222 14.6659 10.2889 14.6659 10.6667C14.6659 11.0444 14.7937 11.3611 15.0492 11.6167C15.3048 11.8722 15.6214 12 15.9992 12ZM17.1992 15.8667C17.6437 15.7556 18.0603 15.5944 18.4492 15.3833C18.8381 15.1722 19.1992 14.9111 19.5326 14.6L23.2659 24.9333C23.2881 25 23.2992 25.1 23.2992 25.2333L23.1659 26.6667C23.1214 26.9333 22.9714 27.1167 22.7159 27.2167C22.4603 27.3167 22.2326 27.2667 22.0326 27.0667L20.9659 26.0333L20.7992 25.8L17.1992 15.8667Z" fill="#0F766E"></path></g></svg>