<svg xmlns:xlink="http://www.w3.org/1999/xlink" width="25" height="23" fill="none" xmlns="http://www.w3.org/2000/svg" class="h-6 w-6 dark:hidden"><path d="M14.188 7.938.948 19.432a.462.462 0 0 0-.047.651l1.862 2.144a.461.461 0 0 0 .651.046L16.655 10.78a.462.462 0 0 0 .046-.651l-1.86-2.144a.462.462 0 0 0-.653-.046Zm4.089 1.337 1.485-1.29a.462.462 0 0 0 .046-.651l-1.86-2.144a.462.462 0 0 0-.652-.046l-1.486 1.29a.462.462 0 0 0-.046.651l1.861 2.144c.167.193.46.213.652.046Zm2.773-8.273c.075.26.224.67.545 1.088.268.35.559.581.767.715l1.856.775-1.856 1.252c-.424.611-.85 1.215-1.274 1.826l-.76-1.826a4.395 4.395 0 0 0-1.535-1.297c.514-.245 1.028-.491 1.543-.73l.715-1.81v.007Z" fill="#091363"></path><path d="M13.807 7.497.567 18.99a.462.462 0 0 0-.046.651l1.86 2.144c.168.193.46.214.652.046l13.241-11.494a.462.462 0 0 0 .046-.651l-1.86-2.144a.462.462 0 0 0-.653-.046Z" fill="#594BFF"></path><path d="m17.882 8.822 1.486-1.29a.462.462 0 0 0 .046-.65l-1.861-2.145a.462.462 0 0 0-.652-.046l-1.486 1.29a.462.462 0 0 0-.045.651l1.86 2.144a.462.462 0 0 0 .652.046Z" fill="#19C4B3"></path><path d="m20.931.54 1.013 1.855L23.8 3.41l-1.856 1.02-1.013 1.856-1.013-1.855-1.863-1.021 1.863-1.014L20.93.54Z" fill="#BABCFF"></path></svg>