<svg xmlns:xlink="http://www.w3.org/1999/xlink" width="102" height="100" viewBox="0 0 102 100" fill="none" xmlns="http://www.w3.org/2000/svg" class="dark:hidden"><path d="M18.25 8.33 51 20.06l32.75 29.03-2.7-33.72L12.52 49.1 43.84 8.33l36.69 5.79" stroke="#091363" stroke-width="1.11px" stroke-miterlimit="10" fill="none"></path><path d="m53.23 79.06-40.7-29.97 35.29-17.37 9.64 47.34 26.3-26.18" stroke="#091363" stroke-width="1.11px" stroke-miterlimit="10" fill="none"></path><path d="M18.25 64.8c9.66 0 17.5 7.84 17.5 17.5V99a1 1 0 0 1-1 1h-33a1 1 0 0 1-1-1V82.3c0-9.66 7.84-17.5 17.5-17.5Z" fill="url(&quot;#hm_a&quot;)"></path><path d="M83.75 64.8c9.66 0 17.5 7.84 17.5 17.5V99a1 1 0 0 1-1 1h-33a1 1 0 0 1-1-1V82.3c0-9.66 7.84-17.5 17.5-17.5Z" fill="url(&quot;#hm_b&quot;)"></path><path d="M18.25 60.27a11.18 11.18 0 1 0 0-22.36 11.18 11.18 0 0 0 0 22.36Z" fill="url(&quot;#hm_c&quot;)"></path><path d="M83.75 60.27a11.18 11.18 0 1 0 0-22.36 11.18 11.18 0 0 0 0 22.36Z" fill="url(&quot;#hm_d&quot;)"></path><path d="M66.92 15.92a15.92 15.92 0 1 0-31.12 4.73c1.88 5.97 6.81 8.99 8.42 9.88v9.59h13.56v-9.59c1.61-.9 6.54-3.91 8.43-9.88.21-.68.71-2.54.71-4.73Z" fill="url(&quot;#hm_e&quot;)"></path><path d="M58.96 33.75H43.05a.8.8 0 0 0-.8.8v1.92c0 .44.35.8.8.8h15.91a.8.8 0 0 0 .8-.8v-1.91a.8.8 0 0 0-.8-.8Z" fill="url(&quot;#hm_f&quot;)"></path><path d="M58.96 38.36H43.05a.8.8 0 0 0-.8.8v1.91c0 .45.35.8.8.8h15.91a.8.8 0 0 0 .8-.8v-1.9a.8.8 0 0 0-.8-.81Z" fill="url(&quot;#hm_g&quot;)"></path><path d="M51 23.25a3.19 3.19 0 1 0 0-6.38 3.19 3.19 0 0 0 0 6.38Z" fill="url(&quot;#hm_h&quot;)"></path><path d="M51 23.25v10.5" stroke="#091363" stroke-width="0.56px" stroke-miterlimit="10" fill="none"></path><path d="M56.2 84.2a7.47 7.47 0 1 0 0-14.93 7.47 7.47 0 0 0 0 14.94Z" fill="url(&quot;#hm_i&quot;)"></path><path d="M81.1 20.34a4.96 4.96 0 1 0 0-9.93 4.96 4.96 0 0 0 0 9.93Z" fill="url(&quot;#hm_j&quot;)"></path><path d="M15.77 10.3a2.48 2.48 0 1 0 0-4.96 2.48 2.48 0 0 0 0 4.96Z" fill="url(&quot;#hm_k&quot;)"></path><path d="M24.1 65.81a15.2 15.2 0 0 0-11.02-.22l3.5 3.5-1.51 19.88 3.72 3.73 3.72-3.69-1.92-19.9 3.5-3.3Z" fill="url(&quot;#hm_l&quot;)"></path><defs><linearGradient id="hm_a" x1="18.55" y1="32.54" x2="17.9" y2="157.37" gradientUnits="userSpaceOnUse"><stop offset="0.15" stop-color="#A9A8FF"></stop><stop offset="0.2" stop-color="#A1A0FC"></stop><stop offset="0.28" stop-color="#8C8AF3"></stop><stop offset="0.38" stop-color="#6A67E6"></stop><stop offset="0.47" stop-color="#4743D9"></stop><stop offset="0.51" stop-color="#423ECC"></stop><stop offset="0.57" stop-color="#3734AC"></stop><stop offset="0.66" stop-color="#242278"></stop><stop offset="0.73" stop-color="#131245"></stop></linearGradient><linearGradient id="hm_b" x1="83.16" y1="52.51" x2="84.12" y2="113.92" gradientUnits="userSpaceOnUse"><stop offset="0.24" stop-color="#00CAB1"></stop><stop offset="0.32" stop-color="#09BDB9"></stop><stop offset="0.47" stop-color="#219AD0"></stop><stop offset="0.68" stop-color="#4963F4"></stop><stop offset="0.74" stop-color="#5553FF"></stop></linearGradient><linearGradient id="hm_c" x1="18.3" y1="26.49" x2="18.08" y2="121.16" gradientUnits="userSpaceOnUse"><stop offset="0.15" stop-color="#A9A8FF"></stop><stop offset="0.2" stop-color="#A1A0FC"></stop><stop offset="0.28" stop-color="#8C8AF3"></stop><stop offset="0.38" stop-color="#6A67E6"></stop><stop offset="0.47" stop-color="#4743D9"></stop><stop offset="0.51" stop-color="#423ECC"></stop><stop offset="0.57" stop-color="#3734AC"></stop><stop offset="0.66" stop-color="#242278"></stop><stop offset="0.73" stop-color="#131245"></stop></linearGradient><linearGradient id="hm_d" x1="83.68" y1="25.98" x2="83.87" y2="84.81" gradientUnits="userSpaceOnUse"><stop offset="0.24" stop-color="#00CAB1"></stop><stop offset="0.32" stop-color="#09BDB9"></stop><stop offset="0.47" stop-color="#219AD0"></stop><stop offset="0.68" stop-color="#4963F4"></stop><stop offset="0.74" stop-color="#5553FF"></stop></linearGradient><linearGradient id="hm_e" x1="50.35" y1="-24.22" x2="51.3" y2="34.44" gradientUnits="userSpaceOnUse"><stop offset="0.08" stop-color="#CBCAFF"></stop><stop offset="0.51" stop-color="#C9C8FF"></stop><stop offset="0.66" stop-color="#C2C1FF"></stop><stop offset="0.77" stop-color="#B6B5FF"></stop><stop offset="0.86" stop-color="#A6A4FF"></stop><stop offset="0.94" stop-color="#908EFF"></stop><stop offset="1" stop-color="#7775FF"></stop></linearGradient><linearGradient id="hm_f" x1="51.27" y1="3.24" x2="50.66" y2="76.87" gradientUnits="userSpaceOnUse"><stop offset="0.15" stop-color="#A9A8FF"></stop><stop offset="0.2" stop-color="#A1A0FC"></stop><stop offset="0.28" stop-color="#8C8AF3"></stop><stop offset="0.38" stop-color="#6A67E6"></stop><stop offset="0.47" stop-color="#4743D9"></stop><stop offset="0.51" stop-color="#423ECC"></stop><stop offset="0.57" stop-color="#3734AC"></stop><stop offset="0.66" stop-color="#242278"></stop><stop offset="0.73" stop-color="#131245"></stop></linearGradient><linearGradient id="hm_g" x1="46.78" y1="3.97" x2="53.97" y2="65.5" gradientUnits="userSpaceOnUse"><stop offset="0.15" stop-color="#A9A8FF"></stop><stop offset="0.2" stop-color="#A1A0FC"></stop><stop offset="0.28" stop-color="#8C8AF3"></stop><stop offset="0.38" stop-color="#6A67E6"></stop><stop offset="0.47" stop-color="#4743D9"></stop><stop offset="0.51" stop-color="#423ECC"></stop><stop offset="0.57" stop-color="#3734AC"></stop><stop offset="0.66" stop-color="#242278"></stop><stop offset="0.73" stop-color="#131245"></stop></linearGradient><linearGradient id="hm_h" x1="51.21" y1="-0.67" x2="50.74" y2="46.35" gradientUnits="userSpaceOnUse"><stop offset="0.15" stop-color="#A9A8FF"></stop><stop offset="0.2" stop-color="#A1A0FC"></stop><stop offset="0.28" stop-color="#8C8AF3"></stop><stop offset="0.38" stop-color="#6A67E6"></stop><stop offset="0.47" stop-color="#4743D9"></stop><stop offset="0.51" stop-color="#423ECC"></stop><stop offset="0.57" stop-color="#3734AC"></stop><stop offset="0.66" stop-color="#242278"></stop><stop offset="0.73" stop-color="#131245"></stop></linearGradient><linearGradient id="hm_i" x1="59.49" y1="54.89" x2="54.74" y2="86.45" gradientUnits="userSpaceOnUse"><stop offset="0.08" stop-color="#CBCAFF"></stop><stop offset="0.51" stop-color="#C9C8FF"></stop><stop offset="0.66" stop-color="#C2C1FF"></stop><stop offset="0.77" stop-color="#B6B5FF"></stop><stop offset="0.86" stop-color="#A6A4FF"></stop><stop offset="0.94" stop-color="#908EFF"></stop><stop offset="1" stop-color="#7775FF"></stop></linearGradient><linearGradient id="hm_j" x1="76.57" y1="2.39" x2="88.24" y2="35.89" gradientUnits="userSpaceOnUse"><stop offset="0.15" stop-color="#A9A8FF"></stop><stop offset="0.2" stop-color="#A1A0FC"></stop><stop offset="0.28" stop-color="#8C8AF3"></stop><stop offset="0.38" stop-color="#6A67E6"></stop><stop offset="0.47" stop-color="#4743D9"></stop><stop offset="0.51" stop-color="#423ECC"></stop><stop offset="0.57" stop-color="#3734AC"></stop><stop offset="0.66" stop-color="#242278"></stop><stop offset="0.73" stop-color="#131245"></stop></linearGradient><linearGradient id="hm_k" x1="16.31" y1="0.37" x2="15.16" y2="16.08" gradientUnits="userSpaceOnUse"><stop offset="0.24" stop-color="#00CAB1"></stop><stop offset="0.32" stop-color="#09BDB9"></stop><stop offset="0.47" stop-color="#219AD0"></stop><stop offset="0.68" stop-color="#4963F4"></stop><stop offset="0.74" stop-color="#5553FF"></stop></linearGradient><linearGradient id="hm_l" x1="18.5" y1="19.16" x2="18.65" y2="96.46" gradientUnits="userSpaceOnUse"><stop offset="0.08" stop-color="#CBCAFF"></stop><stop offset="0.51" stop-color="#C9C8FF"></stop><stop offset="0.66" stop-color="#C2C1FF"></stop><stop offset="0.77" stop-color="#B6B5FF"></stop><stop offset="0.86" stop-color="#A6A4FF"></stop><stop offset="0.94" stop-color="#908EFF"></stop><stop offset="1" stop-color="#7775FF"></stop></linearGradient><linearGradient id="hm_a" x1="18.55" y1="32.54" x2="17.9" y2="157.37" gradientUnits="userSpaceOnUse"><stop offset="0.15" stop-color="#A9A8FF"></stop><stop offset="0.2" stop-color="#A1A0FC"></stop><stop offset="0.28" stop-color="#8C8AF3"></stop><stop offset="0.38" stop-color="#6A67E6"></stop><stop offset="0.47" stop-color="#4743D9"></stop><stop offset="0.51" stop-color="#423ECC"></stop><stop offset="0.57" stop-color="#3734AC"></stop><stop offset="0.66" stop-color="#242278"></stop><stop offset="0.73" stop-color="#131245"></stop></linearGradient><linearGradient id="hm_b" x1="83.16" y1="52.51" x2="84.12" y2="113.92" gradientUnits="userSpaceOnUse"><stop offset="0.24" stop-color="#00CAB1"></stop><stop offset="0.32" stop-color="#09BDB9"></stop><stop offset="0.47" stop-color="#219AD0"></stop><stop offset="0.68" stop-color="#4963F4"></stop><stop offset="0.74" stop-color="#5553FF"></stop></linearGradient><linearGradient id="hm_c" x1="18.3" y1="26.49" x2="18.08" y2="121.16" gradientUnits="userSpaceOnUse"><stop offset="0.15" stop-color="#A9A8FF"></stop><stop offset="0.2" stop-color="#A1A0FC"></stop><stop offset="0.28" stop-color="#8C8AF3"></stop><stop offset="0.38" stop-color="#6A67E6"></stop><stop offset="0.47" stop-color="#4743D9"></stop><stop offset="0.51" stop-color="#423ECC"></stop><stop offset="0.57" stop-color="#3734AC"></stop><stop offset="0.66" stop-color="#242278"></stop><stop offset="0.73" stop-color="#131245"></stop></linearGradient><linearGradient id="hm_d" x1="83.68" y1="25.98" x2="83.87" y2="84.81" gradientUnits="userSpaceOnUse"><stop offset="0.24" stop-color="#00CAB1"></stop><stop offset="0.32" stop-color="#09BDB9"></stop><stop offset="0.47" stop-color="#219AD0"></stop><stop offset="0.68" stop-color="#4963F4"></stop><stop offset="0.74" stop-color="#5553FF"></stop></linearGradient><linearGradient id="hm_e" x1="50.35" y1="-24.22" x2="51.3" y2="34.44" gradientUnits="userSpaceOnUse"><stop offset="0.08" stop-color="#CBCAFF"></stop><stop offset="0.51" stop-color="#C9C8FF"></stop><stop offset="0.66" stop-color="#C2C1FF"></stop><stop offset="0.77" stop-color="#B6B5FF"></stop><stop offset="0.86" stop-color="#A6A4FF"></stop><stop offset="0.94" stop-color="#908EFF"></stop><stop offset="1" stop-color="#7775FF"></stop></linearGradient><linearGradient id="hm_f" x1="51.27" y1="3.24" x2="50.66" y2="76.87" gradientUnits="userSpaceOnUse"><stop offset="0.15" stop-color="#A9A8FF"></stop><stop offset="0.2" stop-color="#A1A0FC"></stop><stop offset="0.28" stop-color="#8C8AF3"></stop><stop offset="0.38" stop-color="#6A67E6"></stop><stop offset="0.47" stop-color="#4743D9"></stop><stop offset="0.51" stop-color="#423ECC"></stop><stop offset="0.57" stop-color="#3734AC"></stop><stop offset="0.66" stop-color="#242278"></stop><stop offset="0.73" stop-color="#131245"></stop></linearGradient><linearGradient id="hm_g" x1="46.78" y1="3.97" x2="53.97" y2="65.5" gradientUnits="userSpaceOnUse"><stop offset="0.15" stop-color="#A9A8FF"></stop><stop offset="0.2" stop-color="#A1A0FC"></stop><stop offset="0.28" stop-color="#8C8AF3"></stop><stop offset="0.38" stop-color="#6A67E6"></stop><stop offset="0.47" stop-color="#4743D9"></stop><stop offset="0.51" stop-color="#423ECC"></stop><stop offset="0.57" stop-color="#3734AC"></stop><stop offset="0.66" stop-color="#242278"></stop><stop offset="0.73" stop-color="#131245"></stop></linearGradient><linearGradient id="hm_h" x1="51.21" y1="-0.67" x2="50.74" y2="46.35" gradientUnits="userSpaceOnUse"><stop offset="0.15" stop-color="#A9A8FF"></stop><stop offset="0.2" stop-color="#A1A0FC"></stop><stop offset="0.28" stop-color="#8C8AF3"></stop><stop offset="0.38" stop-color="#6A67E6"></stop><stop offset="0.47" stop-color="#4743D9"></stop><stop offset="0.51" stop-color="#423ECC"></stop><stop offset="0.57" stop-color="#3734AC"></stop><stop offset="0.66" stop-color="#242278"></stop><stop offset="0.73" stop-color="#131245"></stop></linearGradient><linearGradient id="hm_i" x1="59.49" y1="54.89" x2="54.74" y2="86.45" gradientUnits="userSpaceOnUse"><stop offset="0.08" stop-color="#CBCAFF"></stop><stop offset="0.51" stop-color="#C9C8FF"></stop><stop offset="0.66" stop-color="#C2C1FF"></stop><stop offset="0.77" stop-color="#B6B5FF"></stop><stop offset="0.86" stop-color="#A6A4FF"></stop><stop offset="0.94" stop-color="#908EFF"></stop><stop offset="1" stop-color="#7775FF"></stop></linearGradient><linearGradient id="hm_j" x1="76.57" y1="2.39" x2="88.24" y2="35.89" gradientUnits="userSpaceOnUse"><stop offset="0.15" stop-color="#A9A8FF"></stop><stop offset="0.2" stop-color="#A1A0FC"></stop><stop offset="0.28" stop-color="#8C8AF3"></stop><stop offset="0.38" stop-color="#6A67E6"></stop><stop offset="0.47" stop-color="#4743D9"></stop><stop offset="0.51" stop-color="#423ECC"></stop><stop offset="0.57" stop-color="#3734AC"></stop><stop offset="0.66" stop-color="#242278"></stop><stop offset="0.73" stop-color="#131245"></stop></linearGradient><linearGradient id="hm_k" x1="16.31" y1="0.37" x2="15.16" y2="16.08" gradientUnits="userSpaceOnUse"><stop offset="0.24" stop-color="#00CAB1"></stop><stop offset="0.32" stop-color="#09BDB9"></stop><stop offset="0.47" stop-color="#219AD0"></stop><stop offset="0.68" stop-color="#4963F4"></stop><stop offset="0.74" stop-color="#5553FF"></stop></linearGradient><linearGradient id="hm_l" x1="18.5" y1="19.16" x2="18.65" y2="96.46" gradientUnits="userSpaceOnUse"><stop offset="0.08" stop-color="#CBCAFF"></stop><stop offset="0.51" stop-color="#C9C8FF"></stop><stop offset="0.66" stop-color="#C2C1FF"></stop><stop offset="0.77" stop-color="#B6B5FF"></stop><stop offset="0.86" stop-color="#A6A4FF"></stop><stop offset="0.94" stop-color="#908EFF"></stop><stop offset="1" stop-color="#7775FF"></stop></linearGradient></defs></svg>