<svg xmlns:xlink="http://www.w3.org/1999/xlink" xmlns="http://www.w3.org/2000/svg" width="22" height="29" viewBox="0 0 22 29" fill="none" class="text-black dark:text-gray-D50"><path fill="currentColor" d="M20.9 19.03c-.37.83-.8 1.59-1.3 2.3a11.7 11.7 0 0 1-1.66 1.98c-.67.6-1.38.91-2.14.93-.55 0-1.21-.15-1.98-.47a5.73 5.73 0 0 0-2.13-.46c-.68 0-1.4.15-2.18.46-.79.32-1.41.48-1.9.5-.73.03-1.46-.3-2.18-.96a12.3 12.3 0 0 1-1.75-2.06 14.17 14.17 0 0 1-1.84-3.61 13.1 13.1 0 0 1-.77-4.31c0-1.6.35-2.97 1.05-4.12A6.1 6.1 0 0 1 7.27 6.2c.58 0 1.34.18 2.28.53.95.35 1.55.52 1.82.52.2 0 .87-.2 2.01-.62 1.08-.38 2-.54 2.74-.48 2.02.16 3.54.95 4.55 2.37A5 5 0 0 0 18 13.07a4.99 4.99 0 0 0 1.66 3.77c.5.47 1.05.83 1.67 1.08-.13.39-.28.75-.43 1.1ZM16.25.99c0 1.19-.44 2.3-1.32 3.32-1.05 1.22-2.33 1.93-3.72 1.82l-.03-.45c0-1.14.5-2.36 1.4-3.36.44-.5 1.01-.93 1.7-1.26A5.11 5.11 0 0 1 16.23.5l.03.48Z"></path></svg>