<svg xmlns:xlink="http://www.w3.org/1999/xlink" width="25" height="24" fill="none" xmlns="http://www.w3.org/2000/svg" class="tailwind-hidden h-6 w-6 dark:block"><path d="M23.313 0H2.55a.747.747 0 0 0-.747.747v22.506c0 .413.334.747.747.747h20.763a.747.747 0 0 0 .747-.747V.747A.747.747 0 0 0 23.313 0Z" fill="#1F1E63"></path><path d="M22.868 0H2.104a.747.747 0 0 0-.747.747v22.506c0 .413.335.747.747.747h20.764a.747.747 0 0 0 .747-.747V.747A.747.747 0 0 0 22.868 0Z" fill="#172963"></path><path d="M23.622 3.003V.747A.744.744 0 0 0 22.875 0H2.105a.744.744 0 0 0-.748.747v2.256h22.265Z" fill="#1F1E63"></path><path d="M21.322 5.032H3.666c-.567 0-1.026.458-1.026 1.023 0 .564.459 1.022 1.026 1.022H21.32c.567 0 1.027-.458 1.027-1.022 0-.565-.46-1.023-1.026-1.023Zm0 4.074H3.666c-.567 0-1.026.458-1.026 1.023 0 .564.459 1.022 1.026 1.022H21.32c.567 0 1.027-.458 1.027-1.022 0-.565-.46-1.023-1.026-1.023Zm0 4.044H3.666c-.567 0-1.026.458-1.026 1.023 0 .564.459 1.022 1.026 1.022H21.32c.567 0 1.027-.458 1.027-1.022 0-.565-.46-1.023-1.026-1.023Z" fill="#93C5FD"></path><path d="M1.44 14.592h15.715c.211 0 .385.173.385.385v7.96a.386.386 0 0 1-.385.384H1.44v-8.73Z" fill="#1F1E63"></path><path d="M16.72 14.237H.4a.392.392 0 0 0-.392.393v7.869c0 .216.175.392.392.392h16.32a.392.392 0 0 0 .392-.392v-7.87a.392.392 0 0 0-.392-.392Z" fill="#93C5FD"></path><path d="M.604 16.682v-.627c.407-.083.648-.286.822-.467.09-.106.166-.227.219-.34h.588v6.64H1.26v-5.199H.61l-.007-.007Zm4.88 3.832c-.008.272-.06.513-.166.725a1.324 1.324 0 0 1-.385.49c-.181.143-.422.226-.747.226-.324 0-.58-.083-.762-.226a1.23 1.23 0 0 1-.377-.49 1.965 1.965 0 0 1-.166-.725v-3.908c.007-.264.06-.505.166-.717a1.26 1.26 0 0 1 .377-.498c.181-.135.43-.226.762-.226s.566.09.747.226c.181.136.31.317.385.498.098.212.15.453.166.717v3.908Zm-.973-3.908c0-.181-.038-.31-.129-.415a.287.287 0 0 0-.196-.075c-.173 0-.256.128-.287.241a.625.625 0 0 0-.037.242v3.908c0 .188.045.317.135.415a.255.255 0 0 0 .19.075c.173 0 .256-.105.286-.241a.56.56 0 0 0 .038-.242v-3.908Zm4.174 3.908c-.008.272-.06.513-.166.725a1.324 1.324 0 0 1-.385.49c-.18.143-.422.226-.747.226-.324 0-.58-.083-.762-.226a1.23 1.23 0 0 1-.377-.49 1.965 1.965 0 0 1-.166-.725v-3.908c.008-.264.06-.505.166-.717a1.26 1.26 0 0 1 .377-.498c.181-.135.43-.226.762-.226s.566.09.747.226c.181.136.31.317.385.498.098.212.15.453.166.717v3.908Zm-.973-3.908c0-.181-.038-.31-.129-.415a.287.287 0 0 0-.196-.075c-.173 0-.256.128-.286.241a.625.625 0 0 0-.038.242v3.908c0 .188.045.317.136.415a.255.255 0 0 0 .188.075c.174 0 .257-.105.287-.241a.56.56 0 0 0 .038-.242v-3.908Zm4.162 3.908a1.71 1.71 0 0 1-.165.725 1.324 1.324 0 0 1-.385.49c-.181.143-.423.226-.747.226-.325 0-.581-.083-.762-.226a1.23 1.23 0 0 1-.378-.49 1.965 1.965 0 0 1-.166-.725v-3.908c.008-.264.06-.505.166-.717.083-.18.197-.362.378-.498.18-.135.43-.226.762-.226s.566.09.747.226c.18.136.309.317.385.498.098.212.15.453.165.717v3.908Zm-.973-3.908c0-.181-.038-.31-.128-.415a.287.287 0 0 0-.196-.075c-.174 0-.257.128-.287.241a.626.626 0 0 0-.038.242v3.908c0 .188.046.317.136.415a.255.255 0 0 0 .189.075c.173 0 .256-.105.286-.241a.559.559 0 0 0 .038-.242v-3.908Zm1.599 1.652h1.637v-1.524h.762v1.524h1.638v.762h-1.638v1.524h-.762V19.02H12.5v-.762Z" fill="#172963"></path></svg>