<svg xmlns:xlink="http://www.w3.org/1999/xlink" width="25" height="26" fill="none" xmlns="http://www.w3.org/2000/svg" class="tailwind-hidden h-6 w-6 dark:block"><path d="M23.718 8.3c.628 0 1.142-.513 1.142-1.141s-.514-1.141-1.142-1.141h-1.823V4.754a.788.788 0 0 0-.789-.79h-1.264V2.142c0-.628-.513-1.141-1.141-1.141s-1.142.513-1.142 1.141v1.824h-3.554V2.14c0-.628-.513-1.141-1.142-1.141-.628 0-1.141.513-1.141 1.141v1.824H8.168V2.14c0-.627-.514-1.14-1.142-1.14-.628 0-1.141.513-1.141 1.141v1.824H4.62a.788.788 0 0 0-.79.789v1.264H2.01c-.629 0-1.142.513-1.142 1.141S1.38 8.3 2.01 8.3h1.823v3.555H2.009c-.629 0-1.142.513-1.142 1.141s.513 1.142 1.142 1.142h1.823v3.554H2.009c-.629 0-1.142.513-1.142 1.142 0 .628.513 1.14 1.142 1.14h1.823v1.265c0 .436.352.789.789.789h1.264v1.823c0 .628.513 1.141 1.141 1.141s1.142-.513 1.142-1.141v-1.823h3.554v1.823c0 .628.513 1.141 1.141 1.141.629 0 1.142-.513 1.142-1.141v-1.823h3.554v1.823c0 .628.514 1.141 1.142 1.141.628 0 1.141-.513 1.141-1.141v-1.823h1.264a.788.788 0 0 0 .789-.79v-1.263h1.823c.628 0 1.142-.513 1.142-1.142 0-.628-.514-1.14-1.142-1.14h-1.823v-3.555h1.823c.628 0 1.142-.514 1.142-1.142 0-.628-.514-1.141-1.142-1.141h-1.823V8.3h1.823Z" fill="#121D42"></path><path d="M6.651 1h-.008c-.63 0-1.141.511-1.141 1.141v6.504c0 .63.511 1.142 1.141 1.142h.008c.63 0 1.141-.512 1.141-1.142V2.141c0-.63-.51-1.141-1.141-1.141Zm5.838 0h-.008c-.63 0-1.141.511-1.141 1.141v6.504c0 .63.51 1.142 1.141 1.142h.008c.63 0 1.141-.512 1.141-1.142V2.141c0-.63-.51-1.141-1.141-1.141Zm5.836 0h-.008c-.63 0-1.141.511-1.141 1.141v6.504c0 .63.51 1.142 1.141 1.142h.008c.63 0 1.141-.512 1.141-1.142V2.141c0-.63-.51-1.141-1.141-1.141ZM6.651 16.214h-.008c-.63 0-1.141.51-1.141 1.141v6.504c0 .63.511 1.141 1.141 1.141h.008c.63 0 1.141-.51 1.141-1.141v-6.504c0-.63-.51-1.141-1.141-1.141Zm5.838 0h-.008c-.63 0-1.141.51-1.141 1.141v6.504c0 .63.51 1.141 1.141 1.141h.008c.63 0 1.141-.51 1.141-1.141v-6.504c0-.63-.51-1.141-1.141-1.141Zm5.836 0h-.008c-.63 0-1.141.51-1.141 1.141v6.504c0 .63.51 1.141 1.141 1.141h.008c.63 0 1.141-.51 1.141-1.141v-6.504c0-.63-.51-1.141-1.141-1.141Z" fill="#172963" stroke="#1F1E63" stroke-width="0.17px" stroke-miterlimit="10"></path><path d="M24.482 7.159V7.15c0-.63-.51-1.141-1.141-1.141h-6.504c-.63 0-1.141.51-1.141 1.141v.008c0 .63.51 1.141 1.141 1.141h6.504c.63 0 1.141-.51 1.141-1.141Zm0 5.845v-.008c0-.63-.51-1.142-1.141-1.142h-6.504c-.63 0-1.141.512-1.141 1.142v.008c0 .63.51 1.141 1.141 1.141h6.504c.63 0 1.141-.511 1.141-1.141Zm0 5.837v-.007c0-.63-.51-1.142-1.141-1.142h-6.504c-.63 0-1.141.511-1.141 1.142v.007c0 .63.51 1.142 1.141 1.142h6.504c.63 0 1.141-.511 1.141-1.142ZM9.264 7.167v-.008c0-.63-.511-1.141-1.142-1.141H1.62c-.63 0-1.142.51-1.142 1.141v.008c0 .63.511 1.141 1.142 1.141h6.503c.63 0 1.142-.511 1.142-1.141Zm0 5.837v-.008c0-.63-.511-1.142-1.142-1.142H1.62c-.63 0-1.142.512-1.142 1.142v.008c0 .63.511 1.141 1.142 1.141h6.503c.63 0 1.142-.511 1.142-1.141Zm.006 5.844v-.007c0-.63-.511-1.142-1.142-1.142H1.624c-.63 0-1.141.511-1.141 1.142v.007c0 .63.511 1.142 1.141 1.142h6.504c.63 0 1.142-.511 1.142-1.142Z" fill="#172963" stroke="#1F1E63" stroke-width="0.17px" stroke-miterlimit="10"></path><path d="M20.731 3.965H4.238a.789.789 0 0 0-.789.789v16.493c0 .436.353.789.79.789H20.73a.79.79 0 0 0 .79-.79V4.755a.79.79 0 0 0-.79-.79Z" fill="#172963"></path><path d="M7.195 20.296 9.402 5.711h2.62l2.206 14.585h-2.084l-.398-2.98H9.685l-.398 2.98H7.195Zm3.631-9.843-.06-.376h-.123l-.062.376-.613 4.604h1.471l-.613-4.604Zm4.389-4.75h2.145V20.29h-2.145V5.703Z" fill="#93C5FD" stroke="#1F1E63" stroke-width="0.17px" stroke-miterlimit="10"></path></svg>