<svg xmlns:xlink="http://www.w3.org/1999/xlink" width="47" height="15" fill="none" xmlns="http://www.w3.org/2000/svg"><path fill-rule="evenodd" clip-rule="evenodd" d="M28.959 10.977c-2.692 1.99-6.608 3.051-9.986 3.051-4.732 0-8.974-1.746-12.205-4.65-.245-.229-.033-.539.277-.36 3.476 2.024 7.767 3.232 12.205 3.232 2.986 0 6.282-.62 9.317-1.91.457-.179.832.31.392.637Z" fill="#FF9900"></path><path fill-rule="evenodd" clip-rule="evenodd" d="M30.085 9.688c-.343-.44-2.285-.212-3.15-.098-.26.033-.31-.196-.065-.36 1.55-1.092 4.08-.766 4.373-.407.294.359-.081 2.904-1.533 4.112-.229.18-.441.082-.343-.163.326-.816 1.06-2.627.718-3.084Z" fill="#FF9900"></path><path fill-rule="evenodd" clip-rule="evenodd" d="M26.985 1.562V.502c0-.164.114-.262.26-.262h4.732c.147 0 .278.115.278.262v.897c0 .147-.13.343-.36.669L29.449 5.56c.914-.017 1.877.114 2.693.57.18.099.228.262.244.409v1.126c0 .163-.163.342-.342.244-1.453-.766-3.394-.848-4.993.017-.163.081-.343-.082-.343-.245V6.604c0-.163 0-.457.18-.718l2.839-4.063h-2.464c-.147 0-.277-.114-.277-.26ZM9.736 8.138H8.301c-.13-.016-.244-.114-.26-.245V.518c0-.147.13-.261.277-.261h1.338c.147 0 .245.114.26.245v.962h.034c.342-.93 1.011-1.37 1.892-1.37.898 0 1.469.44 1.86 1.37.343-.93 1.143-1.37 1.991-1.37.604 0 1.257.244 1.664.815.457.62.36 1.518.36 2.317v4.667c0 .147-.131.261-.278.261h-1.42c-.146-.016-.26-.13-.26-.26V3.976c0-.31.032-1.093-.033-1.387-.115-.49-.425-.636-.849-.636a.961.961 0 0 0-.865.603c-.146.376-.13.996-.13 1.42v3.916c0 .147-.13.261-.277.261h-1.436c-.147-.016-.261-.13-.261-.26V3.976c0-.816.13-2.04-.882-2.04-1.028 0-.995 1.175-.995 2.04v3.916a.287.287 0 0 1-.294.245ZM36.334.094c2.138 0 3.296 1.827 3.296 4.16 0 2.252-1.273 4.047-3.296 4.047-2.089 0-3.23-1.827-3.23-4.112-.017-2.3 1.142-4.095 3.23-4.095Zm0 1.517c-1.06 0-1.126 1.452-1.126 2.35 0 .897-.016 2.823 1.11 2.823 1.11 0 1.175-1.55 1.175-2.497 0-.62-.033-1.37-.212-1.958-.164-.522-.49-.718-.947-.718Zm6.054 6.527h-1.436c-.147-.016-.261-.13-.261-.261V.485a.282.282 0 0 1 .277-.245h1.338c.13 0 .229.098.261.213v1.125h.033c.408-1.011.963-1.484 1.958-1.484.636 0 1.273.228 1.68.864.376.588.376 1.583.376 2.301v4.65c-.017.131-.13.229-.277.229H44.9c-.131-.016-.245-.114-.262-.229V3.895c0-.815.098-1.99-.897-1.99-.343 0-.669.228-.832.587-.196.457-.229.898-.229 1.403v3.982a.299.299 0 0 1-.293.26ZM23.215 4.613c0 .555.017 1.028-.26 1.534-.23.408-.588.653-.996.653-.555 0-.881-.424-.881-1.044 0-1.224 1.093-1.453 2.137-1.453v.31Zm1.453 3.509a.295.295 0 0 1-.343.032c-.473-.391-.571-.587-.832-.963-.784.8-1.355 1.045-2.366 1.045-1.208 0-2.154-.75-2.154-2.236 0-1.174.636-1.958 1.534-2.35.783-.342 1.876-.407 2.708-.505v-.18c0-.342.033-.75-.18-1.044-.179-.261-.505-.375-.799-.375-.555 0-1.044.277-1.158.865-.033.13-.114.26-.245.26l-1.387-.146c-.114-.033-.245-.114-.212-.294C19.56.534 21.078.028 22.448.028c.702 0 1.616.18 2.17.718.702.653.637 1.534.637 2.48v2.236c0 .669.277.963.538 1.338.098.13.115.294 0 .375-.31.245-.832.702-1.125.947ZM4.369 4.613c0 .555.016 1.028-.261 1.534-.228.408-.587.653-.995.653-.555 0-.881-.424-.881-1.044 0-1.224 1.093-1.453 2.137-1.453v.31Zm1.436 3.509a.295.295 0 0 1-.343.032c-.473-.391-.57-.587-.832-.963-.783.8-1.354 1.045-2.366 1.045C1.057 8.236.11 7.486.11 6c0-1.174.637-1.958 1.534-2.35.783-.342 1.877-.407 2.709-.505v-.18c0-.342.032-.75-.18-1.044-.18-.261-.506-.375-.8-.375-.554 0-1.044.277-1.158.865-.032.13-.114.26-.245.26L.584 2.526C.469 2.492.339 2.41.37 2.23.698.534 2.215.028 3.586.028c.702 0 1.615.18 2.17.718.702.653.636 1.534.636 2.48v2.236c0 .669.278.963.539 1.338.098.13.114.294 0 .375-.31.245-.832.702-1.126.947Z" fill="currentColor"></path></svg>