<svg xmlns:xlink="http://www.w3.org/1999/xlink" width="24" height="24" viewBox="0 0 24 24" fill="none" xmlns="http://www.w3.org/2000/svg" class="h-6 w-6 dark:hidden"><g clip-path="url(#h_a)" fill="none"><path d="M23.34.05H6.47c-.37 0-.66.3-.66.66v22.65c0 .37.3.66.66.66h16.87c.37 0 .66-.3.66-.66V.71c0-.36-.3-.66-.66-.66Z" fill="url(&quot;#h_b&quot;)"></path><path d="M20.28 16.42H9.1a.77.77 0 1 0 0 1.54h11.17a.77.77 0 1 0 0-1.54Z" fill="url(&quot;#h_c&quot;)"></path><path d="M20.28 19.39H9.1a.77.77 0 0 0 0 1.54h11.17a.77.77 0 1 0 0-1.54Z" fill="url(&quot;#h_d&quot;)"></path><path d="M5.8 1.82h15.56c.36 0 .66.3.66.66v10.89c0 .36-.3.66-.66.66H5.8V1.82Z" fill="#231F20" style="mix-blend-mode:soft-light" opacity="0.6"></path><path d="M20.8 1.7H.8a.76.76 0 0 0-.75.76v10.3c0 .42.34.76.75.76h20c.41 0 .75-.34.75-.76V2.46a.76.76 0 0 0-.76-.76Z" fill="url(&quot;#h_e&quot;)"></path><path d="M6.5 6.83c.61.32 1.08.65 1.41.97.33.33.5.76.5 1.28 0 .59-.17 1.07-.5 1.46-.33.38-.74.65-1.23.8-.48.15-1.05.23-1.67.23-1.13 0-1.98-.21-2.54-.64-.56-.43-.85-.92-.85-1.46A1.84 1.84 0 0 1 2.32 8a4.62 4.62 0 0 1 1.3-.78 5.72 5.72 0 0 1-1.26-.96c-.29-.31-.43-.7-.43-1.14 0-.75.28-1.35.85-1.77a3.85 3.85 0 0 1 2.33-.63c.97 0 1.66.21 2.14.64.48.43.72.95.72 1.58 0 .81-.48 1.45-1.47 1.9v-.01Zm-1.4 3.9c.33 0 .62-.1.84-.29a.87.87 0 0 0 .34-.7c0-.42-.16-.78-.47-1.1-.3-.3-.75-.61-1.33-.94-.23.24-.44.51-.6.84-.17.32-.25.63-.25.93 0 .4.14.72.43.94.28.22.63.32 1.04.32ZM5 3.5a.97.97 0 0 0-.7.24.8.8 0 0 0-.25.6c0 .42.1.77.33 1.05s.54.54.95.8c.2-.19.37-.43.52-.72.14-.3.2-.6.2-.9 0-.28-.08-.53-.26-.74A.96.96 0 0 0 5 3.5h-.01Z" fill="url(&quot;#h_f&quot;)"></path><path d="M13.07 11.57a3.7 3.7 0 0 1-2.8-1.21 4.49 4.49 0 0 1-1.13-3.19 4.8 4.8 0 0 1 1.07-3.25 3.57 3.57 0 0 1 2.85-1.22c1.12 0 2.05.42 2.8 1.25A4.65 4.65 0 0 1 17 7.2c0 1.32-.39 2.37-1.14 3.18a3.7 3.7 0 0 1-2.79 1.2Zm-.66-1.47c.29.43.62.65 1 .65.37 0 .66-.22.87-.65.22-.44.32-1.08.32-1.93 0-.72-.06-1.43-.2-2.12a5.7 5.7 0 0 0-.65-1.77c-.29-.5-.62-.73-1-.73-.37 0-.68.24-.9.71a5.21 5.21 0 0 0-.32 2.1 10 10 0 0 0 .22 2.09c.14.66.36 1.21.65 1.65Z" fill="url(&quot;#h_g&quot;)"></path><path d="M18.72 11.13c-.06 0-.09-.04-.09-.13v-.78h-.78c-.08 0-.12-.03-.13-.1v-.36c0-.06.04-.1.13-.1h.78V8.9c0-.1.03-.14.1-.14h.37c.06 0 .09.05.09.14v.78h.79c.03 0 .06 0 .1.02.02.02.03.04.02.07v.37c0 .06-.04.1-.12.1h-.78V11c0 .09-.03.14-.1.14h-.38v-.02Z" fill="url(&quot;#h_h&quot;)"></path></g><defs><linearGradient id="h_b" x1="6.93" y1="-4.84" x2="20.61" y2="24.09" gradientUnits="userSpaceOnUse"><stop offset="0.08" stop-color="#CBCAFF"></stop><stop offset="0.37" stop-color="#C8C7FF"></stop><stop offset="0.55" stop-color="#BFBEFF"></stop><stop offset="0.7" stop-color="#B1B0FF"></stop><stop offset="0.83" stop-color="#9D9BFF"></stop><stop offset="0.95" stop-color="#8381FF"></stop><stop offset="1" stop-color="#7775FF"></stop></linearGradient><linearGradient id="h_c" x1="14.69" y1="11.57" x2="14.69" y2="22.61" gradientUnits="userSpaceOnUse"><stop offset="0.41" stop-color="#4844DB"></stop><stop offset="0.49" stop-color="#3835AE"></stop><stop offset="0.58" stop-color="#282681"></stop><stop offset="0.66" stop-color="#1C1B60"></stop><stop offset="0.72" stop-color="#15144C"></stop><stop offset="0.76" stop-color="#131245"></stop></linearGradient><linearGradient id="h_d" x1="0" y1="14.54" x2="0.75" y2="25.58" gradientUnits="userSpaceOnUse"><stop offset="0.41" stop-color="#4844DB"></stop><stop offset="0.49" stop-color="#3835AE"></stop><stop offset="0.58" stop-color="#282681"></stop><stop offset="0.66" stop-color="#1C1B60"></stop><stop offset="0.72" stop-color="#15144C"></stop><stop offset="0.76" stop-color="#131245"></stop></linearGradient><linearGradient id="h_e" x1="10.61" y1="-3.92" x2="11.21" y2="33.02" gradientUnits="userSpaceOnUse"><stop offset="0.24" stop-color="#00CAB1"></stop><stop offset="0.32" stop-color="#09BDB9"></stop><stop offset="0.47" stop-color="#219AD0"></stop><stop offset="0.68" stop-color="#4963F4"></stop><stop offset="0.74" stop-color="#5553FF"></stop></linearGradient><linearGradient id="h_f" x1="1.61" y1="7.14" x2="8.41" y2="7.14" gradientUnits="userSpaceOnUse"><stop offset="0.39" stop-color="#131245"></stop><stop offset="1" stop-color="#0E0D2B"></stop></linearGradient><linearGradient id="h_g" x1="9.14" y1="7.13" x2="17" y2="7.13" gradientUnits="userSpaceOnUse"><stop offset="0.39" stop-color="#131245"></stop><stop offset="1" stop-color="#0E0D2B"></stop></linearGradient><linearGradient id="h_h" x1="17.72" y1="9.95" x2="20.1" y2="9.95" gradientUnits="userSpaceOnUse"><stop offset="0.39" stop-color="#131245"></stop><stop offset="1" stop-color="#0E0D2B"></stop></linearGradient><clipPath id="h_a"><path fill="#fff" d="M0 0h24v24H0z"></path></clipPath><linearGradient id="h_b" x1="6.93" y1="-4.84" x2="20.61" y2="24.09" gradientUnits="userSpaceOnUse"><stop offset="0.08" stop-color="#CBCAFF"></stop><stop offset="0.37" stop-color="#C8C7FF"></stop><stop offset="0.55" stop-color="#BFBEFF"></stop><stop offset="0.7" stop-color="#B1B0FF"></stop><stop offset="0.83" stop-color="#9D9BFF"></stop><stop offset="0.95" stop-color="#8381FF"></stop><stop offset="1" stop-color="#7775FF"></stop></linearGradient><linearGradient id="h_c" x1="14.69" y1="11.57" x2="14.69" y2="22.61" gradientUnits="userSpaceOnUse"><stop offset="0.41" stop-color="#4844DB"></stop><stop offset="0.49" stop-color="#3835AE"></stop><stop offset="0.58" stop-color="#282681"></stop><stop offset="0.66" stop-color="#1C1B60"></stop><stop offset="0.72" stop-color="#15144C"></stop><stop offset="0.76" stop-color="#131245"></stop></linearGradient><linearGradient id="h_d" x1="0" y1="14.54" x2="0.75" y2="25.58" gradientUnits="userSpaceOnUse"><stop offset="0.41" stop-color="#4844DB"></stop><stop offset="0.49" stop-color="#3835AE"></stop><stop offset="0.58" stop-color="#282681"></stop><stop offset="0.66" stop-color="#1C1B60"></stop><stop offset="0.72" stop-color="#15144C"></stop><stop offset="0.76" stop-color="#131245"></stop></linearGradient><linearGradient id="h_e" x1="10.61" y1="-3.92" x2="11.21" y2="33.02" gradientUnits="userSpaceOnUse"><stop offset="0.24" stop-color="#00CAB1"></stop><stop offset="0.32" stop-color="#09BDB9"></stop><stop offset="0.47" stop-color="#219AD0"></stop><stop offset="0.68" stop-color="#4963F4"></stop><stop offset="0.74" stop-color="#5553FF"></stop></linearGradient><linearGradient id="h_f" x1="1.61" y1="7.14" x2="8.41" y2="7.14" gradientUnits="userSpaceOnUse"><stop offset="0.39" stop-color="#131245"></stop><stop offset="1" stop-color="#0E0D2B"></stop></linearGradient><linearGradient id="h_g" x1="9.14" y1="7.13" x2="17" y2="7.13" gradientUnits="userSpaceOnUse"><stop offset="0.39" stop-color="#131245"></stop><stop offset="1" stop-color="#0E0D2B"></stop></linearGradient><linearGradient id="h_h" x1="17.72" y1="9.95" x2="20.1" y2="9.95" gradientUnits="userSpaceOnUse"><stop offset="0.39" stop-color="#131245"></stop><stop offset="1" stop-color="#0E0D2B"></stop></linearGradient></defs></svg>