<svg xmlns:xlink="http://www.w3.org/1999/xlink" xmlns="http://www.w3.org/2000/svg" viewBox="0 0 24 24" height="20" width="20"><path d="M14.49 13.83a5.31 5.31 0 01-.65.95 4.15 4.15 0 01-2.6 1.44A3.53 3.53 0 019.09 16a3.21 3.21 0 01-1.95-2.58 4 4 0 01.86-3.1 4.51 4.51 0 012.4-1.66 3.88 3.88 0 012.43 0 3.25 3.25 0 011.91 1.81c0 .1 0 .13-.1.16L13.5 11l-.59.16a.24.24 0 01-.28-.09 1.55 1.55 0 00-1-.57 1.87 1.87 0 00-1.34.31 2.17 2.17 0 00-1 2.09 1.6 1.6 0 001.45 1.46 1.89 1.89 0 001.73-.78l.16-.23a.17.17 0 00-.12 0h-1.85c-.18 0-.26-.1-.19-.28.16-.39.34-.77.54-1.15a.3.3 0 01.3-.15h3.13a.11.11 0 00.12-.09 4.53 4.53 0 011.51-2.09 4.27 4.27 0 011.86-.82 5.87 5.87 0 011.25-.11 3.48 3.48 0 013.06 2.13 4 4 0 01.21 1.65 4.36 4.36 0 01-3.17 3.73 4.1 4.1 0 01-2.7-.06 3.32 3.32 0 01-2.07-2.14zm2-1.17v.22a1.72 1.72 0 002 1.45 2.3 2.3 0 001.84-1.81 1.72 1.72 0 00-.81-1.85 1.75 1.75 0 00-1.4-.14 2.24 2.24 0 00-1.64 2.13zM4 11.79H1.56c-.02 0 0-.07 0-.1.26-.31.13-.26.53-.26h4.35c.15 0 .16 0 .11.15s0 .22-.31.22H4zM5 10.85H3.09c-.02 0 0-.06 0-.09.26-.31.14-.27.55-.27H7s.07 0 0 .07l-.18.27c0 .06-.11 0-.17 0H5zM5.15 12.73h-1c-.12 0-.13 0-.07-.12.17-.31.1-.26.44-.26h1.71c.13 0 .14 0 .13.13 0 .28 0 .25-.27.25z" fill="#01ACD6"></path></svg>