<svg xmlns:xlink="http://www.w3.org/1999/xlink" width="24" height="24" viewBox="0 0 24 24" fill="none" xmlns="http://www.w3.org/2000/svg" class="h-6 w-6 dark:hidden"><g clip-path="url(#nr_a)" fill="none"><path d="M4.94 13.2.35 20.55l4.11-.69 1.18 4.01 4.58-7.32-5.28-3.33Z" fill="url(&quot;#nr_b&quot;)"></path><path d="m19.26 13.2 4.58 7.34-4.1-.69-1.18 4.01-4.59-7.32 5.3-3.33Z" fill="url(&quot;#nr_c&quot;)"></path><path d="M12.1 18.54a9.19 9.19 0 0 0 9.17-9.2c0-5.09-4.1-9.2-9.17-9.2a9.19 9.19 0 0 0-9.17 9.2c0 5.08 4.1 9.2 9.17 9.2Z" fill="url(&quot;#nr_d&quot;)"></path><path d="m12.1 3.21 1.99 4.03 4.45.65-3.22 3.14.76 4.44-3.98-2.1-3.98 2.1.75-4.45L5.66 7.9l4.45-.65L12.1 3.2Z" fill="url(&quot;#nr_e&quot;)"></path></g><defs><linearGradient id="nr_b" x1="0.19" y1="8.94" x2="8.69" y2="24.94" gradientUnits="userSpaceOnUse"><stop offset="0.33" stop-color="#00CAB1"></stop><stop offset="0.43" stop-color="#02C6B3"></stop><stop offset="0.53" stop-color="#0ABBBA"></stop><stop offset="0.62" stop-color="#17A8C7"></stop><stop offset="0.72" stop-color="#2A8ED8"></stop><stop offset="0.8" stop-color="#426CEE"></stop><stop offset="0.86" stop-color="#5553FF"></stop></linearGradient><linearGradient id="nr_c" x1="26.37" y1="7.63" x2="14.58" y2="24.86" gradientUnits="userSpaceOnUse"><stop offset="0.33" stop-color="#00CAB1"></stop><stop offset="0.43" stop-color="#02C6B3"></stop><stop offset="0.53" stop-color="#0ABBBA"></stop><stop offset="0.62" stop-color="#17A8C7"></stop><stop offset="0.72" stop-color="#2A8ED8"></stop><stop offset="0.8" stop-color="#426CEE"></stop><stop offset="0.86" stop-color="#5553FF"></stop></linearGradient><linearGradient id="nr_d" x1="12.1" y1="-4.13" x2="12.1" y2="33.75" gradientUnits="userSpaceOnUse"><stop offset="0.41" stop-color="#4844DB"></stop><stop offset="0.54" stop-color="#3835AE"></stop><stop offset="0.69" stop-color="#282681"></stop><stop offset="0.82" stop-color="#1C1B60"></stop><stop offset="0.93" stop-color="#15144C"></stop><stop offset="1" stop-color="#131245"></stop></linearGradient><linearGradient id="nr_e" x1="12.1" y1="-0.7" x2="12.1" y2="15.74" gradientUnits="userSpaceOnUse"><stop offset="0.08" stop-color="#CBCAFF"></stop><stop offset="0.28" stop-color="#C7C6FF"></stop><stop offset="0.48" stop-color="#BBBAFF"></stop><stop offset="0.68" stop-color="#A7A6FF"></stop><stop offset="0.88" stop-color="#8C8AFF"></stop><stop offset="1" stop-color="#7775FF"></stop></linearGradient><clipPath id="nr_a"><path fill="#fff" transform="translate(.1)" d="M0 0h24v24H0z"></path></clipPath><linearGradient id="nr_b" x1="0.19" y1="8.94" x2="8.69" y2="24.94" gradientUnits="userSpaceOnUse"><stop offset="0.33" stop-color="#00CAB1"></stop><stop offset="0.43" stop-color="#02C6B3"></stop><stop offset="0.53" stop-color="#0ABBBA"></stop><stop offset="0.62" stop-color="#17A8C7"></stop><stop offset="0.72" stop-color="#2A8ED8"></stop><stop offset="0.8" stop-color="#426CEE"></stop><stop offset="0.86" stop-color="#5553FF"></stop></linearGradient><linearGradient id="nr_c" x1="26.37" y1="7.63" x2="14.58" y2="24.86" gradientUnits="userSpaceOnUse"><stop offset="0.33" stop-color="#00CAB1"></stop><stop offset="0.43" stop-color="#02C6B3"></stop><stop offset="0.53" stop-color="#0ABBBA"></stop><stop offset="0.62" stop-color="#17A8C7"></stop><stop offset="0.72" stop-color="#2A8ED8"></stop><stop offset="0.8" stop-color="#426CEE"></stop><stop offset="0.86" stop-color="#5553FF"></stop></linearGradient><linearGradient id="nr_d" x1="12.1" y1="-4.13" x2="12.1" y2="33.75" gradientUnits="userSpaceOnUse"><stop offset="0.41" stop-color="#4844DB"></stop><stop offset="0.54" stop-color="#3835AE"></stop><stop offset="0.69" stop-color="#282681"></stop><stop offset="0.82" stop-color="#1C1B60"></stop><stop offset="0.93" stop-color="#15144C"></stop><stop offset="1" stop-color="#131245"></stop></linearGradient><linearGradient id="nr_e" x1="12.1" y1="-0.7" x2="12.1" y2="15.74" gradientUnits="userSpaceOnUse"><stop offset="0.08" stop-color="#CBCAFF"></stop><stop offset="0.28" stop-color="#C7C6FF"></stop><stop offset="0.48" stop-color="#BBBAFF"></stop><stop offset="0.68" stop-color="#A7A6FF"></stop><stop offset="0.88" stop-color="#8C8AFF"></stop><stop offset="1" stop-color="#7775FF"></stop></linearGradient></defs></svg>