<svg xmlns:xlink="http://www.w3.org/1999/xlink" xmlns="http://www.w3.org/2000/svg" width="24" height="24" fill="none" stroke="currentColor" stroke-linecap="round" stroke-linejoin="round" stroke-width="0.5" viewBox="0 0 24 24"><path clip-rule="evenodd" d="M4.4 2.6c-1 0-1.8.8-1.8 2v9.1c0 1.1.8 2 1.8 2h10.1c.2 0 .4 0 .6.2l3.5 2.5V4.6c0-1.2-.9-2-1.8-2H4.4Zm-3.8 2c0-2.2 1.6-4 3.8-4h12.4c2.1 0 3.8 1.8 3.8 4v15.8a1 1 0 0 1-1.6.8l-4.8-3.5H4.4a3.9 3.9 0 0 1-3.8-4V4.6Z" fill="#5553FF" fill-rule="evenodd" stroke="#5553FF" stroke-width="0.5px"></path><path clip-rule="evenodd" d="M6.5 5.2 10 8.5a.9.9 0 0 1 0 1.3l-3.8 3.3-1.1-1.4 3-2.6-2.8-2.6 1.2-1.3Z" fill="#5553FF" fill-rule="evenodd" stroke="#5553FF" stroke-width="0.5px"></path></svg>