<svg xmlns:xlink="http://www.w3.org/1999/xlink" xmlns="http://www.w3.org/2000/svg" viewBox="0 0 24 24" height="20" width="20"><path d="M2 2h20v20H2z" fill="#F7DF1E"></path><path d="M7.23 18.75l1.54-.92c.29.52.56 1 1.21 1s1-.24 1-1.18v-6.43h1.88v6.42a2.55 2.55 0 01-2.81 2.83 2.91 2.91 0 01-2.82-1.72M13.92 18.54l1.53-.89a2 2 0 001.85 1.14c.78 0 1.27-.39 1.27-.93s-.51-.87-1.36-1.25l-.47-.2c-1.36-.58-2.26-1.3-2.26-2.83a2.51 2.51 0 012.75-2.48 2.77 2.77 0 012.67 1.5l-1.46.94a1.28 1.28 0 00-1.21-.81.82.82 0 00-.9.81c0 .56.35.79 1.16 1.14l.47.2c1.6.69 2.5 1.38 2.5 2.95s-1.33 2.62-3.12 2.62a3.61 3.61 0 01-3.42-1.91"></path></svg>