<svg xmlns:xlink="http://www.w3.org/1999/xlink" width="31" height="19" fill="none" xmlns="http://www.w3.org/2000/svg"><path d="M1.266 9.52h14.466m-5.066-4.534L7.052 1.373H1.266m8.493 13.573L6.692 17.48H1.266" stroke="#93C5FD" stroke-width="0.5px" stroke-linecap="round" stroke-linejoin="round" fill="none"></path><path d="M1.267 10.826a1.267 1.267 0 1 0 0-2.533 1.267 1.267 0 0 0 0 2.533Zm0-8.293a1.267 1.267 0 1 0 0-2.533 1.267 1.267 0 0 0 0 2.533Zm0 16.133a1.267 1.267 0 1 0 0-2.533 1.267 1.267 0 0 0 0 2.533Z" fill="#FB923C"></path><path d="M28.615 9.52H14.148m5.067-4.534 3.613-3.613h5.787m-8.494 13.573 3.067 2.534h5.426" stroke="#93C5FD" stroke-width="0.5px" stroke-linecap="round" stroke-linejoin="round" fill="none"></path><path d="M21.16 7.64c-.093-.014-.133-.054-.173-.147-.534-1.613-.68-.6.36-2.293.6-.854-.387-1.494-.92-2.054-.787-.826-1.667.2-2.387.614-.053.04-.133.053-.186.026a5.698 5.698 0 0 0-1.027-.413c-.067-.027-.08-.067-.094-.133-.093-.454-.186-.92-.266-1.374a.972.972 0 0 0-.733-.773c-.16 0-1.294-.04-1.694.027-.44.106-.653.533-.706.96-.08.386-.16.786-.24 1.186 0 .12-.494.227-.614.294-.146.04-.56.32-.667.226a54.88 54.88 0 0 1-1.146-.773c-.853-.587-1.493.387-2.04.92-.827.8.187 1.653.6 2.373.053.08.053.147.027.24-.147.32-.267.64-.4.96-.027.08-.067.134-.16.147-.774.213-2.12.093-2.147 1.2v1.213c0 .16.04.307.093.427.32.653 1.374.573 2.014.76.12.027.173.08.213.187.12.346.293.68.413 1.026-.253.707-1.266 1.36-.88 2.2.267.427.707.747 1.04 1.12a.936.936 0 0 0 1.213.12c.387-.253.76-.506 1.134-.76.066-.053.12-.053.213-.013.32.133.64.267.973.4.134.04.147.12.16.24.28 1.053.067 2.2 1.56 2.08h.587c.2 0 .4.027.587-.053.026 0 .053-.014.08-.027.08-.04.16-.093.24-.16l.053-.053s.027-.027.04-.054c.173-.2.2-.453.253-.706.054-.28.12-.56.174-.84.04-.12.013-.267.107-.36.333-.174.693-.28 1.026-.44.08-.04.147-.027.227 0 0 0-.027-.014-.04-.027 0 0 .04.013.053.027h.014c.266.186.533.36.8.546.346.254.76.494 1.186.307.307-.133.52-.413.76-.64 1.32-1.12.507-1.6-.2-2.747-.027-.053-.08-.093-.053-.16.173-.386.28-.786.466-1.133a.304.304 0 0 1 .16-.08c.334-.067.667-.12 1-.2.307-.067.627-.107.854-.347 0 0 .067-.08.093-.12.134-.2.16-.44.16-.68v-.76c.107-1.426-1.133-1.24-2.146-1.506h-.014Zm-6.24 6.4a4.586 4.586 0 1 1 0-9.173 4.586 4.586 0 0 1 0 9.173Z" fill="#1E40AF"></path><path d="M14.561 4.826c-5.973.573-5.48 9.333.494 9.267 6.186-.334 5.84-9.534-.494-9.267Z" fill="#FB923C"></path><path d="M14.627 5.706c-4.84.467-4.427 7.547.4 7.494 5.013-.267 4.72-7.72-.4-7.494Zm14.292 5.12a1.267 1.267 0 1 0 0-2.533 1.267 1.267 0 0 0 0 2.533Zm0-8.293a1.267 1.267 0 1 0 0-2.533 1.267 1.267 0 0 0 0 2.533Zm0 16.133a1.267 1.267 0 1 0 0-2.533 1.267 1.267 0 0 0 0 2.533Z" fill="#FB923C"></path></svg>