<svg xmlns:xlink="http://www.w3.org/1999/xlink" width="32" height="30" fill="none" xmlns="http://www.w3.org/2000/svg" class="tailwind-hidden text-indigo-500 dark:text-indigo-400 dark:lg:block"><path d="M32 26.767V2.568A2.568 2.568 0 0 0 29.432 0H2.58A2.568 2.568 0 0 0 .012 2.568v24.199a2.568 2.568 0 0 0 2.568 2.568h26.852A2.568 2.568 0 0 0 32 26.767Z" fill="#172963"></path><path d="M31.988 2.582v2.497H.001V2.582A2.568 2.568 0 0 1 2.569.014H29.42a2.568 2.568 0 0 1 2.568 2.568Z" fill="#0B0D67"></path><path d="M4.345 3.725a.931.931 0 1 0 0-1.863.931.931 0 0 0 0 1.863Zm3.727 0a.931.931 0 1 0 0-1.863.931.931 0 0 0 0 1.863Zm3.734 0a.931.931 0 1 0 0-1.863.931.931 0 0 0 0 1.863Z" fill="#FB923C"></path><path d="M25.76 8.635H6.233c-1.072 0-1.947 1.002-1.947 2.215v13.278c0 1.213.875 2.215 1.947 2.215h19.529c1.072 0 1.947-1.002 1.947-2.215V10.85c0-1.213-.875-2.215-1.947-2.215Z" fill="#1E40AF"></path><path d="m12.824 23.183 4.022-12.064 1.904.635-4.02 12.064-1.906-.635Zm7.691-.96 4.727-4.727-4.727-4.726-1.425 1.425 3.316 3.316-3.316 3.315 1.425 1.425v-.028Zm-8.043-1.425-3.316-3.316 3.316-3.316-1.425-1.425-4.727 4.727 4.727 4.727 1.425-1.425v.028Z" fill="#93C5FD"></path></svg>