<svg xmlns:xlink="http://www.w3.org/1999/xlink" width="104" height="100" viewBox="0 0 104 100" fill="none" xmlns="http://www.w3.org/2000/svg" class="dark:hidden"><path d="m53.89 85.55 2.31 4.76 5.18.76-3.74 3.7.88 5.23-4.63-2.47-4.63 2.47.88-5.23-3.75-3.7 5.18-.76 2.32-4.76Z" fill="url(&quot;#sb_a&quot;)"></path><path d="m74.89 85.55 2.31 4.76 5.18.76-3.74 3.7.88 5.23-4.63-2.47-4.63 2.47.88-5.23-3.75-3.7 5.18-.76 2.32-4.76Z" fill="url(&quot;#sb_b&quot;)"></path><path d="m96.45 85.55 2.32 4.76 5.18.76-3.75 3.7.88 5.23-4.63-2.47-4.63 2.47.88-5.23-3.74-3.7 5.17-.76 2.32-4.76Z" fill="url(&quot;#sb_c&quot;)"></path><path d="M14.7 39.22H6.75a2.36 2.36 0 0 0-2.36 2.36v38.27c0 1.3 1.05 2.36 2.36 2.36h7.97c1.3 0 2.36-1.06 2.36-2.36V41.58c0-1.3-1.06-2.36-2.36-2.36Z" fill="url(&quot;#sb_d&quot;)"></path><path d="M36.1 31.61h-7.97a2.36 2.36 0 0 0-2.36 2.36v45.88c0 1.3 1.05 2.36 2.36 2.36h7.97c1.3 0 2.36-1.06 2.36-2.36V33.97c0-1.3-1.06-2.36-2.36-2.36Z" fill="url(&quot;#sb_e&quot;)"></path><path d="M57.49 21.6H49.5a2.36 2.36 0 0 0-2.36 2.35v55.9c0 1.3 1.06 2.36 2.36 2.36h7.98c1.3 0 2.36-1.06 2.36-2.36v-55.9c0-1.3-1.06-2.36-2.36-2.36Z" fill="url(&quot;#sb_f&quot;)"></path><path d="M78.88 10.8h-7.97a2.36 2.36 0 0 0-2.36 2.36v66.69c0 1.3 1.06 2.36 2.36 2.36h7.97c1.3 0 2.36-1.06 2.36-2.36V13.16c0-1.3-1.06-2.36-2.36-2.36Z" fill="url(&quot;#sb_g&quot;)"></path><path d="M92.29 0h7.98c1.3 0 2.36 1.05 2.36 2.35v77.09c0 1.3-1.06 2.35-2.36 2.35H92.2a2.25 2.25 0 0 1-2.25-2.25V2.35c0-1.3 1.05-2.35 2.35-2.35Z" fill="url(&quot;#sb_h&quot;)"></path><path d="m36.6 4.62-4.95-2.17-1.52 3.48a20.5 20.5 0 0 0-5.3-.76l-.43-3.83-5.37.59.44 3.88a20.6 20.6 0 0 0-4.9 1.96l-2.37-3.2-4.34 3.19 2.39 3.22a20.22 20.22 0 0 0-3.24 4.1L3.3 13.47l-2.15 4.92 3.75 1.64c-.49 1.7-.74 3.43-.77 5.14l-4.07.45.61 5.35 4.08-.45a20.62 20.62 0 0 0 1.9 4.85l-3.29 2.4 3.21 4.35 3.27-2.4A20.5 20.5 0 0 0 13.91 43l-1.6 3.68 4.95 2.17 1.59-3.65c1.73.52 3.48.8 5.21.85l.45 3.91 5.37-.59-.44-3.85c1.73-.41 3.4-1.05 4.98-1.89l2.28 3.1 4.35-3.19-2.26-3.05a20.2 20.2 0 0 0 3.38-4.16l3.44 1.51 2.16-4.93-3.42-1.5c.51-1.75.78-3.54.82-5.32l3.68-.4-.6-5.35-3.7.4a20.6 20.6 0 0 0-1.99-5.02l3-2.19-3.21-4.34-3.01 2.2a20.46 20.46 0 0 0-4.24-3.33l1.5-3.44Zm-7.03 22.64a5.19 5.19 0 0 1-9.85-3.28 5.18 5.18 0 0 1 9.85 3.28Z" fill="url(&quot;#sb_i&quot;)"></path><path d="m11.87 85.55 2.32 4.76 5.18.76-3.75 3.7.88 5.23-4.63-2.47L7.24 100l.88-5.23-3.74-3.7 5.18-.76 2.31-4.76Z" fill="url(&quot;#sb_j&quot;)"></path><path d="m33.05 85.55 2.31 4.76 5.18.76-3.74 3.7.88 5.23-4.63-2.47-4.63 2.47.88-5.23-3.75-3.7 5.18-.76 2.32-4.76Z" fill="url(&quot;#sb_k&quot;)"></path><path d="M24.65 39.36a13.71 13.71 0 1 0 0-27.42 13.71 13.71 0 0 0 0 27.42Z" fill="url(&quot;#sb_l&quot;)"></path><defs><linearGradient id="sb_a" x1="54.34" y1="55.76" x2="53.28" y2="138.46" gradientUnits="userSpaceOnUse"><stop offset="0.4" stop-color="#CBCAFF"></stop><stop offset="0.41" stop-color="#BEBDFF"></stop><stop offset="0.49" stop-color="#918FFF"></stop><stop offset="0.56" stop-color="#706EFF"></stop><stop offset="0.62" stop-color="#5C5AFF"></stop><stop offset="0.66" stop-color="#5553FF"></stop></linearGradient><linearGradient id="sb_b" x1="75.34" y1="55.76" x2="74.28" y2="138.46" gradientUnits="userSpaceOnUse"><stop offset="0.4" stop-color="#CBCAFF"></stop><stop offset="0.41" stop-color="#BEBDFF"></stop><stop offset="0.49" stop-color="#918FFF"></stop><stop offset="0.56" stop-color="#706EFF"></stop><stop offset="0.62" stop-color="#5C5AFF"></stop><stop offset="0.66" stop-color="#5553FF"></stop></linearGradient><linearGradient id="sb_c" x1="96.91" y1="55.76" x2="95.84" y2="138.46" gradientUnits="userSpaceOnUse"><stop offset="0.4" stop-color="#CBCAFF"></stop><stop offset="0.41" stop-color="#BEBDFF"></stop><stop offset="0.49" stop-color="#918FFF"></stop><stop offset="0.56" stop-color="#706EFF"></stop><stop offset="0.62" stop-color="#5C5AFF"></stop><stop offset="0.66" stop-color="#5553FF"></stop></linearGradient><linearGradient id="sb_d" x1="11.07" y1="-24.75" x2="10.41" y2="137.13" gradientUnits="userSpaceOnUse"><stop offset="0.15" stop-color="#A9A8FF"></stop><stop offset="0.2" stop-color="#A1A0FC"></stop><stop offset="0.28" stop-color="#8C8AF3"></stop><stop offset="0.38" stop-color="#6A67E6"></stop><stop offset="0.47" stop-color="#4743D9"></stop><stop offset="0.51" stop-color="#423ECC"></stop><stop offset="0.57" stop-color="#3734AC"></stop><stop offset="0.66" stop-color="#242278"></stop><stop offset="0.73" stop-color="#131245"></stop></linearGradient><linearGradient id="sb_e" x1="31.03" y1="-22.59" x2="33.02" y2="123.22" gradientUnits="userSpaceOnUse"><stop offset="0.15" stop-color="#A9A8FF"></stop><stop offset="0.2" stop-color="#A1A0FC"></stop><stop offset="0.28" stop-color="#8C8AF3"></stop><stop offset="0.38" stop-color="#6A67E6"></stop><stop offset="0.47" stop-color="#4743D9"></stop><stop offset="0.51" stop-color="#423ECC"></stop><stop offset="0.57" stop-color="#3734AC"></stop><stop offset="0.66" stop-color="#242278"></stop><stop offset="0.73" stop-color="#131245"></stop></linearGradient><linearGradient id="sb_f" x1="52.6" y1="-14.59" x2="54.26" y2="107.69" gradientUnits="userSpaceOnUse"><stop offset="0.15" stop-color="#A9A8FF"></stop><stop offset="0.2" stop-color="#A1A0FC"></stop><stop offset="0.28" stop-color="#8C8AF3"></stop><stop offset="0.38" stop-color="#6A67E6"></stop><stop offset="0.47" stop-color="#4743D9"></stop><stop offset="0.51" stop-color="#423ECC"></stop><stop offset="0.57" stop-color="#3734AC"></stop><stop offset="0.66" stop-color="#242278"></stop><stop offset="0.73" stop-color="#131245"></stop></linearGradient><linearGradient id="sb_g" x1="74.12" y1="-15.4" x2="75.45" y2="91.3" gradientUnits="userSpaceOnUse"><stop offset="0.15" stop-color="#A9A8FF"></stop><stop offset="0.2" stop-color="#A1A0FC"></stop><stop offset="0.28" stop-color="#8C8AF3"></stop><stop offset="0.38" stop-color="#6A67E6"></stop><stop offset="0.47" stop-color="#4743D9"></stop><stop offset="0.51" stop-color="#423ECC"></stop><stop offset="0.57" stop-color="#3734AC"></stop><stop offset="0.66" stop-color="#242278"></stop><stop offset="0.73" stop-color="#131245"></stop></linearGradient><linearGradient id="sb_h" x1="92.19" y1="-15.93" x2="98.15" y2="66.92" gradientUnits="userSpaceOnUse"><stop offset="0.15" stop-color="#A9A8FF"></stop><stop offset="0.2" stop-color="#A1A0FC"></stop><stop offset="0.28" stop-color="#8C8AF3"></stop><stop offset="0.38" stop-color="#6A67E6"></stop><stop offset="0.47" stop-color="#4743D9"></stop><stop offset="0.51" stop-color="#423ECC"></stop><stop offset="0.57" stop-color="#3734AC"></stop><stop offset="0.66" stop-color="#242278"></stop><stop offset="0.73" stop-color="#131245"></stop></linearGradient><linearGradient id="sb_i" x1="48.86" y1="25.66" x2="0.06" y2="25.65" gradientUnits="userSpaceOnUse"><stop offset="0.08" stop-color="#CBCAFF"></stop><stop offset="0.33" stop-color="#B3B1FF"></stop><stop offset="0.85" stop-color="#7775FF"></stop></linearGradient><linearGradient id="sb_j" x1="12.33" y1="55.76" x2="11.26" y2="138.46" gradientUnits="userSpaceOnUse"><stop offset="0.4" stop-color="#CBCAFF"></stop><stop offset="0.41" stop-color="#BEBDFF"></stop><stop offset="0.49" stop-color="#918FFF"></stop><stop offset="0.56" stop-color="#706EFF"></stop><stop offset="0.62" stop-color="#5C5AFF"></stop><stop offset="0.66" stop-color="#5553FF"></stop></linearGradient><linearGradient id="sb_k" x1="33.51" y1="55.76" x2="32.44" y2="138.46" gradientUnits="userSpaceOnUse"><stop offset="0.4" stop-color="#CBCAFF"></stop><stop offset="0.41" stop-color="#BEBDFF"></stop><stop offset="0.49" stop-color="#918FFF"></stop><stop offset="0.56" stop-color="#706EFF"></stop><stop offset="0.62" stop-color="#5C5AFF"></stop><stop offset="0.66" stop-color="#5553FF"></stop></linearGradient><linearGradient id="sb_l" x1="9.83" y1="-14.23" x2="40.65" y2="68.71" gradientUnits="userSpaceOnUse"><stop offset="0.24" stop-color="#00CAB1"></stop><stop offset="0.32" stop-color="#09BDB9"></stop><stop offset="0.47" stop-color="#219AD0"></stop><stop offset="0.68" stop-color="#4963F4"></stop><stop offset="0.74" stop-color="#5553FF"></stop></linearGradient><linearGradient id="sb_a" x1="54.34" y1="55.76" x2="53.28" y2="138.46" gradientUnits="userSpaceOnUse"><stop offset="0.4" stop-color="#CBCAFF"></stop><stop offset="0.41" stop-color="#BEBDFF"></stop><stop offset="0.49" stop-color="#918FFF"></stop><stop offset="0.56" stop-color="#706EFF"></stop><stop offset="0.62" stop-color="#5C5AFF"></stop><stop offset="0.66" stop-color="#5553FF"></stop></linearGradient><linearGradient id="sb_b" x1="75.34" y1="55.76" x2="74.28" y2="138.46" gradientUnits="userSpaceOnUse"><stop offset="0.4" stop-color="#CBCAFF"></stop><stop offset="0.41" stop-color="#BEBDFF"></stop><stop offset="0.49" stop-color="#918FFF"></stop><stop offset="0.56" stop-color="#706EFF"></stop><stop offset="0.62" stop-color="#5C5AFF"></stop><stop offset="0.66" stop-color="#5553FF"></stop></linearGradient><linearGradient id="sb_c" x1="96.91" y1="55.76" x2="95.84" y2="138.46" gradientUnits="userSpaceOnUse"><stop offset="0.4" stop-color="#CBCAFF"></stop><stop offset="0.41" stop-color="#BEBDFF"></stop><stop offset="0.49" stop-color="#918FFF"></stop><stop offset="0.56" stop-color="#706EFF"></stop><stop offset="0.62" stop-color="#5C5AFF"></stop><stop offset="0.66" stop-color="#5553FF"></stop></linearGradient><linearGradient id="sb_d" x1="11.07" y1="-24.75" x2="10.41" y2="137.13" gradientUnits="userSpaceOnUse"><stop offset="0.15" stop-color="#A9A8FF"></stop><stop offset="0.2" stop-color="#A1A0FC"></stop><stop offset="0.28" stop-color="#8C8AF3"></stop><stop offset="0.38" stop-color="#6A67E6"></stop><stop offset="0.47" stop-color="#4743D9"></stop><stop offset="0.51" stop-color="#423ECC"></stop><stop offset="0.57" stop-color="#3734AC"></stop><stop offset="0.66" stop-color="#242278"></stop><stop offset="0.73" stop-color="#131245"></stop></linearGradient><linearGradient id="sb_e" x1="31.03" y1="-22.59" x2="33.02" y2="123.22" gradientUnits="userSpaceOnUse"><stop offset="0.15" stop-color="#A9A8FF"></stop><stop offset="0.2" stop-color="#A1A0FC"></stop><stop offset="0.28" stop-color="#8C8AF3"></stop><stop offset="0.38" stop-color="#6A67E6"></stop><stop offset="0.47" stop-color="#4743D9"></stop><stop offset="0.51" stop-color="#423ECC"></stop><stop offset="0.57" stop-color="#3734AC"></stop><stop offset="0.66" stop-color="#242278"></stop><stop offset="0.73" stop-color="#131245"></stop></linearGradient><linearGradient id="sb_f" x1="52.6" y1="-14.59" x2="54.26" y2="107.69" gradientUnits="userSpaceOnUse"><stop offset="0.15" stop-color="#A9A8FF"></stop><stop offset="0.2" stop-color="#A1A0FC"></stop><stop offset="0.28" stop-color="#8C8AF3"></stop><stop offset="0.38" stop-color="#6A67E6"></stop><stop offset="0.47" stop-color="#4743D9"></stop><stop offset="0.51" stop-color="#423ECC"></stop><stop offset="0.57" stop-color="#3734AC"></stop><stop offset="0.66" stop-color="#242278"></stop><stop offset="0.73" stop-color="#131245"></stop></linearGradient><linearGradient id="sb_g" x1="74.12" y1="-15.4" x2="75.45" y2="91.3" gradientUnits="userSpaceOnUse"><stop offset="0.15" stop-color="#A9A8FF"></stop><stop offset="0.2" stop-color="#A1A0FC"></stop><stop offset="0.28" stop-color="#8C8AF3"></stop><stop offset="0.38" stop-color="#6A67E6"></stop><stop offset="0.47" stop-color="#4743D9"></stop><stop offset="0.51" stop-color="#423ECC"></stop><stop offset="0.57" stop-color="#3734AC"></stop><stop offset="0.66" stop-color="#242278"></stop><stop offset="0.73" stop-color="#131245"></stop></linearGradient><linearGradient id="sb_h" x1="92.19" y1="-15.93" x2="98.15" y2="66.92" gradientUnits="userSpaceOnUse"><stop offset="0.15" stop-color="#A9A8FF"></stop><stop offset="0.2" stop-color="#A1A0FC"></stop><stop offset="0.28" stop-color="#8C8AF3"></stop><stop offset="0.38" stop-color="#6A67E6"></stop><stop offset="0.47" stop-color="#4743D9"></stop><stop offset="0.51" stop-color="#423ECC"></stop><stop offset="0.57" stop-color="#3734AC"></stop><stop offset="0.66" stop-color="#242278"></stop><stop offset="0.73" stop-color="#131245"></stop></linearGradient><linearGradient id="sb_i" x1="48.86" y1="25.66" x2="0.06" y2="25.65" gradientUnits="userSpaceOnUse"><stop offset="0.08" stop-color="#CBCAFF"></stop><stop offset="0.33" stop-color="#B3B1FF"></stop><stop offset="0.85" stop-color="#7775FF"></stop></linearGradient><linearGradient id="sb_j" x1="12.33" y1="55.76" x2="11.26" y2="138.46" gradientUnits="userSpaceOnUse"><stop offset="0.4" stop-color="#CBCAFF"></stop><stop offset="0.41" stop-color="#BEBDFF"></stop><stop offset="0.49" stop-color="#918FFF"></stop><stop offset="0.56" stop-color="#706EFF"></stop><stop offset="0.62" stop-color="#5C5AFF"></stop><stop offset="0.66" stop-color="#5553FF"></stop></linearGradient><linearGradient id="sb_k" x1="33.51" y1="55.76" x2="32.44" y2="138.46" gradientUnits="userSpaceOnUse"><stop offset="0.4" stop-color="#CBCAFF"></stop><stop offset="0.41" stop-color="#BEBDFF"></stop><stop offset="0.49" stop-color="#918FFF"></stop><stop offset="0.56" stop-color="#706EFF"></stop><stop offset="0.62" stop-color="#5C5AFF"></stop><stop offset="0.66" stop-color="#5553FF"></stop></linearGradient><linearGradient id="sb_l" x1="9.83" y1="-14.23" x2="40.65" y2="68.71" gradientUnits="userSpaceOnUse"><stop offset="0.24" stop-color="#00CAB1"></stop><stop offset="0.32" stop-color="#09BDB9"></stop><stop offset="0.47" stop-color="#219AD0"></stop><stop offset="0.68" stop-color="#4963F4"></stop><stop offset="0.74" stop-color="#5553FF"></stop></linearGradient></defs></svg>