<svg xmlns:xlink="http://www.w3.org/1999/xlink" width="31" height="22" fill="none" xmlns="http://www.w3.org/2000/svg"><path d="M15.145 18.054v2.8m-5.641 0H20.77" stroke="#1E40AF" stroke-width="0.79px" stroke-linecap="round" stroke-linejoin="round" fill="none"></path><path d="M30.293.933V17.64c0 .507-.413.92-.92.92H.92a.922.922 0 0 1-.92-.92V.933C0 .413.413 0 .92 0h28.453c.507 0 .92.413.92.933Z" fill="#1E40AF"></path><path d="M5.454 12.72a1.813 1.813 0 1 0 0-3.626 1.813 1.813 0 0 0 0 3.626Zm4.852 0a1.813 1.813 0 1 0 0-3.626 1.813 1.813 0 0 0 0 3.626Zm4.839 0a1.813 1.813 0 1 0 0-3.626 1.813 1.813 0 0 0 0 3.626Zm4.84 0a1.813 1.813 0 1 0 0-3.626 1.813 1.813 0 0 0 0 3.626Zm4.84 0a1.813 1.813 0 1 0 0-3.626 1.813 1.813 0 0 0 0 3.626Z" fill="#FB923C"></path><path d="M30.293 1.133V3.76H0V1.133C0 .507.413 0 .92 0h28.453c.507 0 .92.507.92 1.133Z" fill="#172963"></path></svg>