<svg xmlns:xlink="http://www.w3.org/1999/xlink" xmlns="http://www.w3.org/2000/svg" width="46" height="23" fill="none" viewBox="0 0 46 23"><path fill="#4885ED" d="M12.411 10.137h-4.8v1.425h3.405c-.169 1.993-1.83 2.849-3.398 2.849a3.743 3.743 0 0 1-3.758-3.792c0-2.156 1.67-3.816 3.762-3.816 1.615 0 2.566 1.03 2.566 1.03l.997-1.033S9.905 5.375 7.57 5.375c-2.973 0-5.272 2.509-5.272 5.219a5.301 5.301 0 0 0 5.347 5.245c2.801 0 4.852-1.92 4.852-4.757 0-.599-.087-.945-.087-.945h.001Z"></path><path fill="#DB3236" d="M16.343 9.106c-1.97 0-3.381 1.54-3.381 3.335 0 1.822 1.368 3.39 3.404 3.39 1.842 0 3.351-1.407 3.351-3.35 0-2.224-1.755-3.375-3.374-3.375Zm.02 1.321c.967 0 1.885.783 1.885 2.045 0 1.234-.914 2.04-1.89 2.04-1.074 0-1.917-.86-1.917-2.05 0-1.165.835-2.035 1.924-2.035h-.003Z"></path><path fill="#F4C20D" d="M23.696 9.106c-1.97 0-3.381 1.54-3.381 3.335 0 1.822 1.368 3.39 3.404 3.39 1.842 0 3.351-1.407 3.351-3.35 0-2.224-1.755-3.375-3.374-3.375Zm.019 1.321c.968 0 1.886.783 1.886 2.045 0 1.234-.914 2.04-1.89 2.04-1.074 0-1.917-.86-1.917-2.05 0-1.165.835-2.035 1.924-2.035h-.003Z"></path><path fill="#4885ED" d="M30.907 9.11c-1.807 0-3.228 1.583-3.228 3.36 0 2.024 1.647 3.367 3.197 3.367.958 0 1.468-.381 1.84-.818v.663c0 1.16-.705 1.856-1.768 1.856-1.027 0-1.543-.764-1.725-1.197l-1.293.536c.459.97 1.382 1.981 3.029 1.981 1.801 0 3.167-1.132 3.167-3.506v-6.04H32.72v.57c-.433-.468-1.026-.772-1.813-.772Zm.13 1.319c.887 0 1.797.756 1.797 2.048 0 1.314-.909 2.038-1.816 2.038-.963 0-1.86-.782-1.86-2.025 0-1.291.931-2.062 1.88-2.062Z"></path><path fill="#DB3236" d="M40.403 9.102c-1.705 0-3.136 1.357-3.136 3.358 0 2.118 1.595 3.374 3.296 3.374 1.423 0 2.3-.778 2.818-1.476l-1.163-.773c-.302.468-.806.926-1.648.926-.945 0-1.38-.518-1.649-1.02l4.51-1.87-.23-.549c-.436-1.073-1.453-1.97-2.798-1.97Zm.06 1.293c.614 0 1.056.327 1.243.719l-3.011 1.258c-.13-.974.793-1.977 1.763-1.977h.004Z"></path><path fill="#3CBA54" d="M35.114 15.635h1.48V5.723h-1.48v9.912Z"></path></svg>