<svg xmlns:xlink="http://www.w3.org/1999/xlink" width="32" height="32" viewBox="0 0 32 32" fill="none" xmlns="http://www.w3.org/2000/svg"><path d="M15.999 20.8002C14.8477 20.8011 13.7344 20.3881 12.8621 19.6366C11.9899 18.885 11.4168 17.845 11.2475 16.7061C11.0782 15.5673 11.3238 14.4055 11.9397 13.4327C12.5556 12.4599 13.5006 11.7409 14.6024 11.4068C15.7042 11.0726 16.8894 11.1457 17.9418 11.6126C18.9943 12.0795 19.8438 12.9091 20.3355 13.9502C20.8273 14.9913 20.9284 16.1744 20.6205 17.2838C20.3126 18.3933 19.6162 19.3551 18.6582 19.9938C17.8707 20.5189 16.9456 20.7995 15.999 20.8002ZM15.999 12.1602C15.2075 12.1645 14.4367 12.4132 13.792 12.8725C13.1473 13.3317 12.6602 13.9789 12.3975 14.7256C12.1348 15.4722 12.1092 16.2818 12.3243 17.0436C12.5394 17.8053 12.9846 18.482 13.599 18.981C14.2401 19.4859 15.0229 19.7776 15.838 19.8155C16.6531 19.8534 17.4596 19.6354 18.1446 19.1922C18.6517 18.8526 19.0705 18.397 19.3664 17.8632C19.6623 17.3294 19.8266 16.7327 19.8458 16.1227C19.8651 15.5127 19.7386 14.9069 19.477 14.3556C19.2154 13.8042 18.8261 13.3231 18.3415 12.9522C17.6714 12.4332 16.8465 12.1543 15.999 12.1602Z" fill="#0F766E"></path><path d="M23.6817 7.84C23.302 7.84 22.9308 7.72739 22.615 7.51642C22.2993 7.30545 22.0532 7.00559 21.9079 6.65475C21.7626 6.30392 21.7245 5.91787 21.7986 5.54543C21.8727 5.17298 22.0556 4.83087 22.3241 4.56236C22.5926 4.29384 22.9347 4.11098 23.3071 4.03689C23.6796 3.96281 24.0656 4.00083 24.4165 4.14615C24.7673 4.29147 25.0672 4.53756 25.2781 4.85331C25.4891 5.16905 25.6017 5.54026 25.6017 5.92C25.6017 6.42922 25.3994 6.91758 25.0394 7.27765C24.6793 7.63772 24.1909 7.84 23.6817 7.84ZM23.6817 4.96C23.4918 4.96 23.3062 5.0163 23.1484 5.12179C22.9905 5.22728 22.8675 5.37721 22.7948 5.55262C22.7221 5.72804 22.7031 5.92107 22.7402 6.10729C22.7772 6.29351 22.8686 6.46457 23.0029 6.59882C23.1372 6.73308 23.3082 6.82451 23.4944 6.86156C23.6807 6.8986 23.8737 6.87959 24.0491 6.80693C24.2245 6.73427 24.3744 6.61122 24.4799 6.45335C24.5854 6.29548 24.6417 6.10987 24.6417 5.92C24.6417 5.66539 24.5406 5.42121 24.3605 5.24118C24.1805 5.06114 23.9363 4.96 23.6817 4.96Z" fill="#0F766E"></path><path d="M26.0802 17.9201C25.7004 17.9201 25.3292 17.8075 25.0135 17.5965C24.6977 17.3855 24.4516 17.0857 24.3063 16.7348C24.161 16.384 24.123 15.9979 24.197 15.6255C24.2711 15.2531 24.454 14.911 24.7225 14.6424C24.991 14.3739 25.3331 14.1911 25.7056 14.117C26.078 14.0429 26.4641 14.0809 26.8149 14.2262C27.1657 14.3716 27.4656 14.6176 27.6766 14.9334C27.8876 15.2491 28.0002 15.6203 28.0002 16.0001C28.0002 16.5093 27.7979 16.9977 27.4378 17.3577C27.0777 17.7178 26.5894 17.9201 26.0802 17.9201ZM26.0802 15.0401C25.8903 15.0401 25.7047 15.0964 25.5468 15.2019C25.3889 15.3074 25.2659 15.4573 25.1932 15.6327C25.1206 15.8081 25.1016 16.0011 25.1386 16.1874C25.1756 16.3736 25.2671 16.5446 25.4013 16.6789C25.5356 16.8132 25.7066 16.9046 25.8929 16.9416C26.0791 16.9787 26.2721 16.9597 26.4475 16.887C26.623 16.8143 26.7729 16.6913 26.8784 16.5334C26.9839 16.3756 27.0402 16.1899 27.0402 16.0001C27.0402 15.7455 26.939 15.5013 26.759 15.3213C26.5789 15.1412 26.3348 15.0401 26.0802 15.0401Z" fill="#0F766E"></path><path d="M21.7598 26.5602C21.3801 26.5602 21.0089 26.4476 20.6931 26.2366C20.3774 26.0257 20.1313 25.7258 19.986 25.375C19.8407 25.0241 19.8027 24.6381 19.8767 24.2656C19.9508 23.8932 20.1337 23.5511 20.4022 23.2826C20.6707 23.0141 21.0128 22.8312 21.3853 22.7571C21.7577 22.683 22.1438 22.721 22.4946 22.8664C22.8454 23.0117 23.1453 23.2578 23.3563 23.5735C23.5672 23.8893 23.6798 24.2605 23.6798 24.6402C23.6798 25.1494 23.4776 25.6378 23.1175 25.9979C22.7574 26.3579 22.2691 26.5602 21.7598 26.5602ZM21.7598 23.6802C21.57 23.6802 21.3844 23.7365 21.2265 23.842C21.0686 23.9475 20.9456 24.0974 20.8729 24.2728C20.8003 24.4483 20.7812 24.6413 20.8183 24.8275C20.8553 25.0137 20.9468 25.1848 21.081 25.319C21.2153 25.4533 21.3863 25.5447 21.5726 25.5818C21.7588 25.6188 21.9518 25.5998 22.1272 25.5271C22.3026 25.4545 22.4526 25.3314 22.5581 25.1736C22.6635 25.0157 22.7198 24.8301 22.7198 24.6402C22.7198 24.3856 22.6187 24.1414 22.4387 23.9614C22.2586 23.7814 22.0145 23.6802 21.7598 23.6802Z" fill="#0F766E"></path><path d="M7.84188 28.0002C7.46214 28.0002 7.09092 27.8876 6.77518 27.6766C6.45944 27.4656 6.21335 27.1657 6.06803 26.8149C5.92271 26.4641 5.88468 26.078 5.95877 25.7056C6.03285 25.3331 6.21571 24.991 6.48423 24.7225C6.75275 24.454 7.09486 24.2711 7.4673 24.197C7.83975 24.123 8.22579 24.161 8.57663 24.3063C8.92746 24.4516 9.22733 24.6977 9.4383 25.0135C9.64927 25.3292 9.76188 25.7004 9.76188 26.0802C9.76188 26.5894 9.55959 27.0777 9.19952 27.4378C8.83945 27.7979 8.35109 28.0002 7.84188 28.0002ZM7.84188 25.1202C7.65201 25.1202 7.4664 25.1765 7.30853 25.2819C7.15066 25.3874 7.02761 25.5374 6.95495 25.7128C6.88229 25.8882 6.86328 26.0812 6.90032 26.2674C6.93736 26.4537 7.0288 26.6247 7.16305 26.759C7.29731 26.8932 7.46837 26.9847 7.65459 27.0217C7.84081 27.0588 8.03384 27.0397 8.20925 26.9671C8.38467 26.8944 8.5346 26.7714 8.64009 26.6135C8.74557 26.4556 8.80188 26.27 8.80188 26.0802C8.80188 25.8255 8.70073 25.5814 8.5207 25.4013C8.34066 25.2213 8.09648 25.1202 7.84188 25.1202Z" fill="#0F766E"></path><path d="M5.92 12.6398C5.54026 12.6398 5.16905 12.5272 4.85331 12.3162C4.53756 12.1053 4.29147 11.8054 4.14615 11.4546C4.00083 11.1037 3.96281 10.7177 4.03689 10.3452C4.11098 9.97279 4.29384 9.63068 4.56236 9.36216C4.83087 9.09364 5.17298 8.91078 5.54543 8.8367C5.91787 8.76261 6.30392 8.80064 6.65475 8.94596C7.00559 9.09128 7.30545 9.33737 7.51642 9.65311C7.72739 9.96885 7.84 10.3401 7.84 10.7198C7.84 11.229 7.63772 11.7174 7.27765 12.0775C6.91758 12.4375 6.42922 12.6398 5.92 12.6398ZM5.92 9.75981C5.73013 9.75981 5.54452 9.81611 5.38665 9.92159C5.22878 10.0271 5.10574 10.177 5.03308 10.3524C4.96042 10.5278 4.94141 10.7209 4.97845 10.9071C5.01549 11.0933 5.10692 11.2644 5.24118 11.3986C5.37544 11.5329 5.54649 11.6243 5.73271 11.6614C5.91894 11.6984 6.11196 11.6794 6.28738 11.6067C6.46279 11.5341 6.61273 11.411 6.71821 11.2532C6.8237 11.0953 6.88 10.9097 6.88 10.7198C6.88 10.4652 6.77886 10.221 6.59882 10.041C6.41879 9.86095 6.17461 9.75981 5.92 9.75981Z" fill="#0F766E"></path><path d="M26.0798 16.48H20.3198C20.1925 16.48 20.0704 16.4294 19.9804 16.3394C19.8904 16.2494 19.8398 16.1273 19.8398 16C19.8398 15.8727 19.8904 15.7506 19.9804 15.6606C20.0704 15.5706 20.1925 15.52 20.3198 15.52H26.0798C26.2071 15.52 26.3292 15.5706 26.4193 15.6606C26.5093 15.7506 26.5598 15.8727 26.5598 16C26.5598 16.1273 26.5093 16.2494 26.4193 16.3394C26.3292 16.4294 26.2071 16.48 26.0798 16.48Z" fill="#0F766E"></path><path d="M18.6156 13.0482C18.526 13.048 18.4383 13.0227 18.3624 12.9752C18.2864 12.9278 18.2253 12.86 18.1858 12.7796C18.1464 12.6992 18.1302 12.6094 18.1391 12.5203C18.1481 12.4312 18.1817 12.3463 18.2364 12.2754L23.3004 5.62737C23.3373 5.5741 23.3846 5.52887 23.4395 5.4944C23.4944 5.45993 23.5557 5.43693 23.6198 5.4268C23.6838 5.41667 23.7492 5.41961 23.8121 5.43544C23.8749 5.45127 23.9339 5.47967 23.9855 5.51893C24.0371 5.55818 24.0802 5.60747 24.1122 5.66384C24.1442 5.7202 24.1645 5.78246 24.1718 5.84687C24.179 5.91127 24.1732 5.97649 24.1546 6.03859C24.136 6.10068 24.1051 6.15837 24.0636 6.20817L18.9996 12.861C18.9544 12.9197 18.8962 12.9672 18.8295 12.9996C18.7629 13.0321 18.6897 13.0487 18.6156 13.0482Z" fill="#0F766E"></path><path d="M7.84101 26.5599C7.75018 26.5602 7.66112 26.5347 7.58419 26.4865C7.50726 26.4382 7.4456 26.369 7.4064 26.2871C7.36719 26.2052 7.35203 26.1138 7.36269 26.0236C7.37335 25.9334 7.40939 25.848 7.46661 25.7775L12.9098 19.0575C12.9922 18.9659 13.1066 18.9095 13.2294 18.8999C13.3522 18.8903 13.4739 18.9283 13.5695 19.006C13.6651 19.0837 13.7271 19.1951 13.7428 19.3173C13.7585 19.4395 13.7267 19.563 13.6538 19.6623L8.21061 26.3823C8.16595 26.4374 8.10964 26.4819 8.04573 26.5126C7.98183 26.5433 7.91191 26.5594 7.84101 26.5599Z" fill="#0F766E"></path><path d="M21.7597 25.12C21.6811 25.1201 21.6036 25.1009 21.5341 25.0641C21.4647 25.0273 21.4053 24.9739 21.3613 24.9088L17.9965 19.84C17.9341 19.7344 17.9144 19.6089 17.9417 19.4892C17.9689 19.3696 18.0409 19.2649 18.1429 19.1967C18.2449 19.1285 18.3691 19.102 18.4901 19.1225C18.611 19.1431 18.7195 19.2091 18.7933 19.3072L22.1533 24.352C22.2073 24.424 22.24 24.5097 22.2476 24.5993C22.2553 24.689 22.2376 24.7789 22.1965 24.859C22.1555 24.9391 22.0928 25.006 22.0155 25.0522C21.9383 25.0983 21.8496 25.1218 21.7597 25.12Z" fill="#0F766E"></path><path d="M12.1612 14.4785C12.0844 14.4788 12.0087 14.4607 11.9404 14.4257L5.70036 11.1473C5.64304 11.1189 5.59198 11.0793 5.55018 11.0309C5.50838 10.9824 5.47669 10.9261 5.45697 10.8653C5.43724 10.8044 5.42989 10.7402 5.43534 10.6764C5.44078 10.6127 5.45892 10.5507 5.48868 10.494C5.51844 10.4374 5.55922 10.3873 5.60863 10.3466C5.65804 10.306 5.71507 10.2756 5.77639 10.2573C5.8377 10.239 5.90205 10.2332 5.96565 10.2401C6.02926 10.2471 6.09083 10.2667 6.14676 10.2977L12.3868 13.5761C12.4806 13.6268 12.5549 13.7072 12.598 13.8048C12.641 13.9024 12.6503 14.0115 12.6245 14.115C12.5986 14.2184 12.539 14.3103 12.4551 14.3762C12.3712 14.442 12.2678 14.478 12.1612 14.4785Z" fill="#0F766E"></path></svg>