<svg xmlns:xlink="http://www.w3.org/1999/xlink" width="70" height="14" viewBox="0 0 70 14" fill="none" xmlns="http://www.w3.org/2000/svg"><path d="M3.1 9.228c0 .8.2 1.4.4 1.8.3.5.8.7 1.2.7.6 0 1.2-.2 2.2-1.6l2.5-3.8 1.1-1.7c.8-1.2 1.7-2.5 2.7-3.4.9-.7 1.8-1.1 2.8-1.1 1.5 0 3 .9 4.1 2.5 1.2 1.8 1.9 4.1 1.9 6.5 0 1.4-.3 2.4-.8 3.2-.5.8-1.4 1.6-2.9 1.6v-2.2c1.3 0 1.7-1.2 1.7-2.5 0-2-.5-4-1.5-5.6-.7-1-1.6-1.7-2.6-1.7s-2 .8-3 2.2l-1.6 2.9-.8 1a29.196 29.196 0 0 1-2.3 3.8c-1.1 1.5-2.1 2.1-3.5 2.1-1.5 0-2.5-.7-3-1.7a6 6 0 0 1-.8-3h2.2Z" fill="#0081FB"></path><path d="M2.7 2.828c1-1.6 2.5-2.8 4.2-2.8 1 0 2 .3 3 1.1 1.2 1 2.4 2.4 3.9 5l.5.8a36.992 36.992 0 0 0 2.5 3.8c.5.7 1 .9 1.4.9 1.3 0 1.7-1.2 1.7-2.5l2-.1c0 1.4-.3 2.4-.8 3.2-.5.8-1.4 1.6-2.9 1.6-.9 0-1.7-.2-2.6-1-.7-.7-1.6-1.9-2.2-3l-1.9-3c-1-1.6-1.8-2.8-2.3-3.3-.5-.5-1.2-1.1-2.2-1.1-1 0-1.7.6-2.3 1.5l-2-1.1Z" fill="url(&quot;#m_a&quot;)"></path><path d="M6.9 2.428c-1 0-1.7.6-2.3 1.5a10 10 0 0 0-1.6 5.3c0 .8.2 1.4.4 1.8l-1.9 1.2a6 6 0 0 1-.7-3c0-2.3.6-4.6 1.8-6.4 1.1-1.6 2.6-2.8 4.3-2.8v2.4Z" fill="url(&quot;#m_b&quot;)"></path><path d="M26.3.528h2.6l4.4 8 4.5-8h2.6v13.2h-2.2v-10.1l-3.9 7h-2l-3.9-7v10h-2.1V.528Zm20.8 5c-1.6 0-2.5 1-2.7 2.5h5.2c-.1-1.5-1-2.6-2.5-2.6v.1Zm-4.8 3.3c0-3 2-5.2 4.8-5.2s4.5 2.2 4.5 5.4v.5h-7.2c.2 1.6 1.3 2.6 3 2.6a4 4 0 0 0 2.9-1.1l1.1 1.4a6 6 0 0 1-4.1 1.5c-3.2 0-5-2.3-5-5.1Zm12-3.2h-2v-1.6h2v-3h2v3h3v1.7h-3v4.3c0 1.5.5 2 1.7 2h1.3v1.6c-.6.2-1.1.3-1.7.3-2.2 0-3.4-1.2-3.4-3.6v-4.7h.1Zm13.7 1.7c-.4-1-1.4-1.8-2.7-1.8-1.8 0-3 1.2-3 3.3 0 2 1.1 3.2 2.9 3.2 1.4 0 2.4-.8 2.8-1.8v-2.9Zm2 6.4h-2v-1.4c-.5.8-1.6 1.6-3.2 1.6-2.7 0-4.5-2.2-4.5-5.1 0-3 1.8-5.2 4.6-5.2 1.3 0 2.4.6 3.1 1.5v-1.1h2v9.8-.1Z" fill="currentColor"></path><defs><linearGradient id="m_a" x1="5.299" y1="8.628" x2="19.799" y2="9.328" gradientUnits="userSpaceOnUse"><stop stop-color="#0064E1"></stop><stop offset="0.4" stop-color="#0064E1"></stop><stop offset="0.8" stop-color="#0073EE"></stop><stop offset="1" stop-color="#0082FB"></stop></linearGradient><linearGradient id="m_b" x1="4.2" y1="10.128" x2="4.2" y2="4.928" gradientUnits="userSpaceOnUse"><stop stop-color="#0082FB"></stop><stop offset="1" stop-color="#0064E0"></stop></linearGradient><linearGradient id="m_a" x1="5.299" y1="8.628" x2="19.799" y2="9.328" gradientUnits="userSpaceOnUse"><stop stop-color="#0064E1"></stop><stop offset="0.4" stop-color="#0064E1"></stop><stop offset="0.8" stop-color="#0073EE"></stop><stop offset="1" stop-color="#0082FB"></stop></linearGradient><linearGradient id="m_b" x1="4.2" y1="10.128" x2="4.2" y2="4.928" gradientUnits="userSpaceOnUse"><stop stop-color="#0082FB"></stop><stop offset="1" stop-color="#0064E0"></stop></linearGradient></defs></svg>