<svg xmlns:xlink="http://www.w3.org/1999/xlink" width="14" height="14" viewBox="0 0 14 14" fill="none" xmlns="http://www.w3.org/2000/svg" class="h-full w-full"><path d="M11.952 9.285a1.333 1.333 0 0 0-.681-.365l-1.592-.318a4 4 0 0 0-2.573.344l-.212.106a4 4 0 0 1-2.573.345l-1.288-.258c-.437-.087-.89.05-1.204.365m2.504-7.838h5.334L9 2.333V5.78c0 .354.14.693.39.943l3.334 3.333c.84.84.245 2.277-.943 2.277H2.219c-1.188 0-1.783-1.437-.943-2.277l3.333-3.333c.25-.25.39-.589.39-.943V2.333l-.666-.667Z" stroke="#5553FF" stroke-width="1.5px" stroke-linecap="round" stroke-linejoin="round" fill="none"></path></svg>