<svg xmlns:xlink="http://www.w3.org/1999/xlink" width="24" height="24" fill="none" xmlns="http://www.w3.org/2000/svg" class="tailwind-hidden h-6 w-6 dark:block"><path d="M19.76 14.143a9.105 9.105 0 0 0 1.49-5.002c0-1.238-.238-2.43-.715-3.557a9.14 9.14 0 0 0-1.961-2.907A9.14 9.14 0 0 0 15.666.716 9.074 9.074 0 0 0 12.11 0c-1.23 0-2.43.239-3.556.716a9.139 9.139 0 0 0-2.908 1.96 9.139 9.139 0 0 0-1.961 2.908 9.074 9.074 0 0 0-.716 3.557c0 1.79.515 3.519 1.491 5.002L.367 20.66l4.138-.686L5.691 24l3.824-6.091a9.251 9.251 0 0 0 2.595.372c.88 0 1.752-.126 2.595-.372l3.824 6.09 1.186-4.025 4.138.686-4.094-6.517Z" fill="#0E0D29"></path><path d="M17.969 24h.551l-.462-.977-.09.977Zm5.317-3.333.559-.007-.79-.299.23.306ZM5.682 24h-.477l.134-.872.239-.187.104 1.06Z" fill="#0E0D29"></path><path d="M4.533 13 0 20.247l4.063-.678 1.156 3.966 4.533-7.247L4.533 13Zm14.147 0 4.533 7.247-4.064-.678-1.163 3.966-4.533-7.247L18.68 13Z" fill="#172963"></path><path d="M11.603 18.252c5.007 0 9.066-4.073 9.066-9.096C20.67 4.132 16.61.06 11.603.06c-5.007 0-9.066 4.072-9.066 9.096 0 5.023 4.06 9.095 9.066 9.095Z" fill="#93C5FD"></path><path d="M6.01 9.41 5.898 9h-.074v5.04H4.63V5.152h1.155l1.268 4.63.112.41h.074v-5.04h1.193v8.888H7.278L6.01 9.41Zm3.385-4.258h2.974v1.342h-1.677v2.334H11.9v1.424h-1.208v2.438h1.677v1.342H9.395V5.145v.007Zm5.568 8.88h-1.014l-1.193-8.887h1.208l.514 4.615.023.29h.096l.038-.29.551-4.615h.94l.552 4.615.037.29h.097l.022-.29.515-4.615h1.207l-1.193 8.887H16.35l-.603-4.205-.075-.522h-.045l-.074.522-.604 4.205h.015Z" fill="#172963"></path></svg>