<svg xmlns:xlink="http://www.w3.org/1999/xlink" width="25" height="26" fill="none" xmlns="http://www.w3.org/2000/svg" class="tailwind-hidden h-6 w-6 dark:block"><path d="M17.198 3.464H12.15a.203.203 0 0 0-.203.203v3.267c0 .112.091.203.203.203h5.048c.112 0 .203-.09.203-.203V3.667a.203.203 0 0 0-.203-.203Z" fill="#091363" stroke="#091363" stroke-width="0.13px" stroke-miterlimit="10"></path><path d="M14.674 5.695a9.605 9.605 0 0 0-8.684 5.499H1.858a.806.806 0 0 0-.803.811c0 .443.36.811.803.811h3.538a10.02 10.02 0 0 0-.315 1.916H3.947a.811.811 0 0 0 0 1.623H5.11c.068.66.203 1.299.398 1.915H1.86a.811.811 0 0 0 0 1.622h4.334A9.697 9.697 0 0 0 7.32 21.56h-4.5a.806.806 0 0 0-.804.811c0 .444.36.812.804.812h6.242A9.561 9.561 0 0 0 14.681 25c5.31 0 9.607-4.311 9.607-9.637 0-5.326-4.304-9.638-9.607-9.638l-.007-.03Z" fill="#091363" stroke="#091363" stroke-width="0.13px" stroke-miterlimit="10"></path><path d="M14.672 23.933c4.738 0 8.579-3.85 8.579-8.6S19.41 6.73 14.672 6.73s-8.578 3.851-8.578 8.601c0 4.75 3.84 8.601 8.578 8.601ZM18 1h-6.655a.203.203 0 0 0-.202.203V3.5c0 .112.09.203.202.203h6.656c.112 0 .203-.09.203-.203V1.203A.203.203 0 0 0 18 1Z" fill="#091363" stroke="#091363" stroke-width="0.13px" stroke-miterlimit="10"></path><path d="M9.217 13.41v-.804c0-.774.113-1.533.443-2.081.33-.556.902-.917 1.826-.917.864 0 1.45.33 1.795.834.346.518.473 1.247.473 2.05 0 1.188-.443 2.592-.991 3.9-.564 1.33-1.232 2.508-1.668 3.252h2.697v1.69H9.18v-1.69a31.62 31.62 0 0 0 1.42-2.449c.36-.69.706-1.487.976-2.29.27-.805.473-1.593.488-2.307 0-.315-.015-.676-.098-.946-.075-.27-.217-.474-.473-.474-.233 0-.375.173-.458.428-.075.27-.113.617-.113.992v.804H9.225l-.008.007Zm6.951 7.924H14.5l1.87-6.092-1.84-5.513h1.668l.931 2.937.045.142h.06l.045-.142.932-2.937h1.667l-1.84 5.513 1.87 6.092h-1.667l-.977-3.455-.03-.143h-.06l-.03.143-.976 3.455Z" fill="#091363" stroke="#091363" stroke-width="0.13px" stroke-miterlimit="10"></path><path d="M16.737 3.464h-5.048a.203.203 0 0 0-.203.203v3.267c0 .112.091.203.203.203h5.048c.112 0 .203-.09.203-.203V3.667a.203.203 0 0 0-.203-.203Z" fill="#172963" stroke="#091363" stroke-width="0.11px" stroke-miterlimit="10"></path><path d="M14.214 5.695a9.605 9.605 0 0 0-8.683 5.499H1.399a.806.806 0 0 0-.803.811c0 .443.36.811.803.811h3.538a10 10 0 0 0-.315 1.916H2.12a.805.805 0 0 0 0 1.607h2.532c.067.662.203 1.3.398 1.916H1.4a.806.806 0 0 0-.804.811c0 .443.36.812.803.812h4.335a9.698 9.698 0 0 0 1.126 1.667H1.151a.805.805 0 0 0 0 1.608h7.445a9.561 9.561 0 0 0 5.618 1.817c5.311 0 9.608-4.311 9.608-9.637 0-5.326-4.304-9.638-9.608-9.638Z" fill="#172963" stroke="#091363" stroke-width="0.13px" stroke-miterlimit="10"></path><path d="M14.213 23.933c4.738 0 8.579-3.85 8.579-8.6S18.95 6.73 14.213 6.73s-8.578 3.851-8.578 8.601c0 4.75 3.84 8.601 8.578 8.601Z" fill="#93C5FD" stroke="#091363" stroke-width="0.13px" stroke-miterlimit="10"></path><path d="M17.54 1h-6.655a.203.203 0 0 0-.203.203V3.5c0 .112.09.203.202.203h6.656c.112 0 .203-.09.203-.203V1.203A.203.203 0 0 0 17.54 1Z" fill="#091363" stroke="#091363" stroke-width="0.1px" stroke-miterlimit="10"></path><path d="M8.76 13.41v-.804c0-.774.113-1.533.443-2.081.33-.556.902-.917 1.826-.917.864 0 1.45.33 1.795.834.346.518.473 1.247.473 2.05 0 1.188-.443 2.592-.991 3.9-.564 1.33-1.232 2.508-1.668 3.252h2.697v1.69H8.723v-1.69a31.62 31.62 0 0 0 1.42-2.449c.36-.69.705-1.487.976-2.29.27-.805.473-1.593.488-2.307 0-.315-.015-.676-.098-.946-.075-.27-.217-.474-.473-.474-.233 0-.375.173-.458.428a3.83 3.83 0 0 0-.113.992v.804H8.768l-.008.007Zm6.949 7.924H14.04l1.87-6.092-1.84-5.513h1.668l.931 2.937.045.142h.06l.045-.142.932-2.937h1.667l-1.84 5.513 1.87 6.092h-1.667l-.977-3.455-.03-.143h-.06l-.03.143-.976 3.455Z" fill="#122163" stroke="#091363" stroke-width="0.13px" stroke-miterlimit="10"></path></svg>