<svg xmlns:xlink="http://www.w3.org/1999/xlink" xmlns="http://www.w3.org/2000/svg" width="46" height="15" fill="none" viewBox="0 0 46 15"><path fill="#D81F26" d="M6.188 12.378c-.677.118-1.366.154-2.079.249L1.936 6.261v6.64c-.677.07-1.295.165-1.936.26V1h1.805l2.47 6.9V1h1.913v11.378Zm3.74-6.924c.737 0 1.865-.036 2.542-.036v1.9c-.843 0-1.829 0-2.541.036v2.827c1.116-.072 2.233-.167 3.36-.202v1.828l-5.26.416V1h5.26v1.9H9.93v2.554ZM20.357 2.9h-1.971v8.741c-.642 0-1.283 0-1.9.024V2.9h-1.972V1h5.843v1.9Zm3.088 2.423h2.601v1.9h-2.6v4.311h-1.866V1h5.31v1.9h-3.445v2.423Zm6.532 4.549c1.081.023 2.174.107 3.23.166v1.877c-1.698-.107-3.396-.214-5.13-.25V1h1.9v8.872Zm4.834 2.173c.606.036 1.247.071 1.864.143V1H34.81v11.045ZM45 1l-2.411 5.784L45 13.162c-.713-.096-1.425-.226-2.138-.345l-1.366-3.515-1.389 3.23c-.689-.119-1.354-.154-2.043-.25l2.447-5.57L38.3 1h2.043l1.247 3.195L42.921 1H45Z"></path></svg>