<svg xmlns:xlink="http://www.w3.org/1999/xlink" height="20" width="19.988" viewBox="67.569 17.147 19.988 20" xmlns="http://www.w3.org/2000/svg"><path d="M84.082 17.147c.207.054.411.121.61.2a2.248 2.248 0 0 1 1.411 2.163c.016 2.301 0 4.599 0 6.204 0 .044 0 .09-.014.148a2.427 2.427 0 0 0-1.527.181v-6.487h-15.44c0 .064-.012.134-.012.2v12.767c0 .622.294.916.91.916h7.596c-.147.503-.287.999-.437 1.473a.196.196 0 0 1-.059.052.178.178 0 0 1-.075.02H69.994a2.33 2.33 0 0 1-2.318-1.629c-.04-.13-.071-.262-.107-.4V19.181a.78.78 0 0 0 .037-.102 2.263 2.263 0 0 1 1.334-1.72c.218-.085.441-.156.668-.212h14.474ZM83.202 30.004l2.447 2.427c-.038.042-.082.09-.126.134-1.199 1.2-2.404 2.399-3.614 3.599a.828.828 0 0 1-.328.2c-.854.26-1.711.509-2.571.755a.603.603 0 0 1-.304.016.32.32 0 0 1-.216-.4c.267-.932.538-1.858.814-2.776a.451.451 0 0 1 .116-.178 1019.19 1019.19 0 0 1 3.742-3.751.131.131 0 0 1 .04-.026Zm-1.857 5.702c-.072-.382-.14-.748-.214-1.11a.157.157 0 0 0-.09-.108c-.366-.082-.735-.156-1.111-.232-.136.464-.254.912-.4 1.35a.401.401 0 0 0 .134.438.293.293 0 0 0 .368.054l1.313-.392Z" fill="#5553FF"></path><path d="M82.233 26.428v1.515H71.437v-1.515h10.796ZM82.231 23.345v1.517H71.435v-1.517h10.796ZM81.509 29.52c-.714.502-1.399 1-2.107 1.476a.527.527 0 0 1-.256.056h-7.505c-.064 0-.128 0-.21-.016V29.52h10.078ZM86.391 31.542 84.08 29.26c.342-.363.662-.743 1.026-1.071a.741.741 0 0 1 .973.05c.436.412.862.836 1.272 1.273a.803.803 0 0 1 0 1.072c-.042.05-.087.098-.134.144l-.826.814Z" fill="#5553FF"></path></svg>