<svg xmlns:xlink="http://www.w3.org/1999/xlink" xmlns="http://www.w3.org/2000/svg" viewBox="0 0 16 16" fill="currentColor" class="mt-0.5 h-4 w-4" width="16"  height="16" ><path d="M13.333 5.167 12.7 3.8l-1.367-.633 1.367-.634.633-1.366.634 1.366 1.366.634-1.366.633-.634 1.367Zm-7.666 0L5.033 3.8l-1.366-.633 1.366-.634.634-1.366.633 1.366 1.367.634L6.3 3.8l-.633 1.367Zm7.666 7.666-.633-1.366-1.367-.634L12.7 10.2l.633-1.367.634 1.367 1.366.633-1.366.634-.634 1.366ZM3.4 14.967 1.533 13.1a.659.659 0 0 1-.2-.483c0-.19.067-.35.2-.484L8.967 4.7a.658.658 0 0 1 .483-.2c.189 0 .35.067.483.2L11.8 6.567c.133.133.2.294.2.483s-.067.35-.2.483l-7.433 7.434a.658.658 0 0 1-.484.2.658.658 0 0 1-.483-.2Zm.5-1.4 4.767-4.8-.934-.934-4.8 4.767.967.967Z" fill="#5553FF"></path></svg>