<svg xmlns:xlink="http://www.w3.org/1999/xlink" width="100" height="100" fill="none" xmlns="http://www.w3.org/2000/svg" class="tailwind-hidden dark:block"><path d="M99.996 51.088v42.357A6.555 6.555 0 0 1 93.441 100H51.084V81.827a6.283 6.283 0 0 0 6.284-6.283 6.283 6.283 0 0 0-6.284-6.284V51.087h48.912v.001Z" fill="#172963"></path><path d="M51.084 69.261v-18.18h-18.18a6.283 6.283 0 0 0-6.283-6.283 6.283 6.283 0 0 0-6.284 6.283H2.164v42.364A6.555 6.555 0 0 0 8.72 100h42.364V81.827a6.283 6.283 0 0 0 6.284-6.283 6.283 6.283 0 0 0-6.284-6.284l.001.001Z" fill="#172963"></path><path d="M93.441 2.165H51.084v48.919h18.173v.003c0 3.342 2.813 6.052 6.284 6.052 3.47 0 6.283-2.71 6.283-6.052v-.003h18.174V8.72a6.555 6.555 0 0 0-6.556-6.555Z" fill="#172963"></path><path d="M51.936 20.574c-.289 0-.574.02-.853.057V2.17H8.72a6.555 6.555 0 0 0-6.555 6.555v42.357h18.173a6.283 6.283 0 0 1 6.284-6.283 6.283 6.283 0 0 1 6.284 6.283h18.18V32.62c.279.037.562.058.852.058 3.47 0 6.284-2.71 6.284-6.052 0-3.343-2.813-6.052-6.284-6.052Z" fill="#091363" stroke="#091363" stroke-width="0.541px" stroke-miterlimit="10"></path><path d="M97.83 48.922v42.357a6.556 6.556 0 0 1-6.555 6.556H48.918V79.66a6.283 6.283 0 0 0 6.284-6.283 6.283 6.283 0 0 0-6.284-6.284V48.921h48.913v.001Z" fill="#1E40AF"></path><path d="M48.918 67.095v-18.18h-18.18a6.283 6.283 0 0 0-6.283-6.283 6.283 6.283 0 0 0-6.284 6.284H-.002v42.363a6.555 6.555 0 0 0 6.555 6.555h42.364V79.661a6.283 6.283 0 0 0 6.284-6.283 6.283 6.283 0 0 0-6.284-6.284l.001.001Z" fill="#172963"></path><path d="M91.275 0H48.918v48.919h18.173v.003c0 3.342 2.813 6.052 6.284 6.052 3.47 0 6.283-2.71 6.283-6.052v-.003h18.174V6.555A6.555 6.555 0 0 0 91.276 0Z" fill="#FB923C"></path><path d="M49.772 18.408c-.289 0-.574.02-.853.057V.003H6.555A6.555 6.555 0 0 0 0 6.558v42.357h18.173a6.283 6.283 0 0 1 6.284-6.283 6.283 6.283 0 0 1 6.283 6.283h18.18V30.453c.28.037.563.058.853.058 3.47 0 6.284-2.71 6.284-6.052 0-3.343-2.813-6.052-6.284-6.052Z" fill="#1E40AF"></path></svg>