<svg xmlns:xlink="http://www.w3.org/1999/xlink" xmlns="http://www.w3.org/2000/svg" viewBox="0 0 24 24" height="20" width="20"><path d="M22 7.37a1.93 1.93 0 00-.25-1 1.87 1.87 0 00-.72-.7L13 1.06a2 2 0 00-2.12 0C9.86 1.71 4.55 4.75 3 5.67a1.84 1.84 0 00-1 1.7v9.26a2.06 2.06 0 00.23 1 1.9 1.9 0 00.74.72c1.58.92 6.89 4 8 4.59a2 2 0 002.12 0l8-4.61a1.9 1.9 0 00.74-.72 2.06 2.06 0 00.23-1V7.37" fill="#5C8DBC"></path><path d="M12 12l-9.8 5.64a1.9 1.9 0 00.74.72c1.58.92 6.89 4 8 4.59a2 2 0 002.12 0l8-4.61a1.9 1.9 0 00.74-.72L12 12" fill="#1A4674"></path><path d="M9.13 13.64a3.3 3.3 0 005.75 0L12 12l-2.9 1.67" fill="#1A4674"></path><path d="M22 7.37a1.93 1.93 0 00-.25-1L12 12l9.74 5.64a2.06 2.06 0 00.23-1V7.37" fill="#1B598E"></path><path d="M21.5 12.34h-.79v.78h-.78v-.78h-.78v-.7h.78v-.78h.78v.78h.79v.7M18.68 12.34h-.78v.78h-.71v-.78h-.78v-.7h.78v-.78h.71v.78h.78v.7" fill="#FFFFFF"></path><path d="M14.88 13.62a3.3 3.3 0 01-5.75 0A3.24 3.24 0 018.69 12a3.31 3.31 0 016.17-1.66l2.89-1.66a6.64 6.64 0 100 6.61l-2.89-1.67" fill="#FFFFFF"></path></svg>