<svg xmlns:xlink="http://www.w3.org/1999/xlink" xmlns="http://www.w3.org/2000/svg" viewBox="0 0 24 24" height="20" width="20"><path d="M9.74 16.83s-.77.45.54.6a11.46 11.46 0 004.14-.18 7.18 7.18 0 001.1.54c-3.91 1.68-8.86-.1-5.78-1M9.26 14.64s-.86.64.45.77a16.18 16.18 0 005.35-.25 2.31 2.31 0 00.82.5c-4.74 1.38-10 .11-6.62-1" fill="#5382A1"></path><path d="M13.29 10.93A1.46 1.46 0 0113 13s2.45-1.27 1.32-2.85-1.81-2.15 2.55-4.7c0 0-6.85 1.71-3.58 5.48" fill="#E76F00"></path><path d="M18.47 18.45s.57.47-.62.83c-2.26.68-9.41.89-11.39 0-.72-.32.62-.75 1-.84a2.74 2.74 0 01.69-.07C7.4 17.84 3.06 19.49 6 20c8 1.29 14.55-.58 12.48-1.52M10.11 12.37s-3.64.87-1.29 1.18a28 28 0 004.81-.05c1.5-.13 3-.4 3-.4a6.51 6.51 0 00-.91.49c-3.69 1-10.83.52-8.77-.47a6.92 6.92 0 013.15-.75M16.63 16c3.75-1.95 2-3.83.8-3.57a3.59 3.59 0 00-.43.11.72.72 0 01.32-.25c2.4-.84 4.24 2.49-.77 3.81a.55.55 0 00.08-.1" fill="#5382A1"></path><path d="M14.36 1.36s2.08 2.08-2 5.28c-3.24 2.56-.74 4 0 5.7C10.5 10.63 9.11 9.12 10 7.72c1.37-2.06 5.16-3 4.32-6.36" fill="#E76F00"></path><path d="M10.47 21.3c3.61.23 9.14-.13 9.27-1.83 0 0-.25.65-3 1.16a29.56 29.56 0 01-9.11.14s.46.38 2.82.53" fill="#5382A1"></path></svg>