<svg xmlns:xlink="http://www.w3.org/1999/xlink" width="32" height="32" viewBox="0 0 32 32" fill="none" xmlns="http://www.w3.org/2000/svg"><g id="engineering management" fill="none"><g id="Group 1000001209" fill="none"><path id="Vector" d="M11.4994 14.3154C15.2008 14.3154 18.1981 17.0141 18.1981 20.3421V26.0914C18.1981 26.2834 18.0274 26.4328 17.8141 26.4328H5.18478C4.97145 26.4328 4.80078 26.2834 4.80078 26.0914V20.3421C4.80078 17.0141 7.79811 14.3154 11.4994 14.3154Z" fill="#4744D4"></path><path id="Vector_2" d="M11.4961 13.3545C13.8584 13.3545 15.7734 11.4394 15.7734 9.07714C15.7734 6.71483 13.8584 4.7998 11.4961 4.7998C9.13378 4.7998 7.21875 6.71483 7.21875 9.07714C7.21875 11.4394 9.13378 13.3545 11.4961 13.3545Z" fill="#4744D4"></path><path id="Vector_3" d="M24.9836 18.3997C24.909 18.389 24.877 18.357 24.845 18.2824C24.4183 16.9917 24.301 17.8024 25.133 16.4477C25.613 15.765 24.8236 15.253 24.397 14.805C23.7676 14.1437 23.0636 14.965 22.4876 15.2957C22.445 15.3277 22.381 15.3384 22.3383 15.317C22.0716 15.1784 21.805 15.0717 21.517 14.9864C21.4636 14.965 21.453 14.933 21.4423 14.8797C21.3676 14.517 21.293 14.1437 21.229 13.781C21.1756 13.4824 20.941 13.2264 20.6423 13.1624C20.5143 13.1624 19.6076 13.1304 19.2876 13.1837C18.9356 13.269 18.765 13.6104 18.7223 13.9517C18.6583 14.261 18.5943 14.581 18.5303 14.901C18.5303 14.997 18.1356 15.0824 18.0396 15.1357C17.9223 15.1677 17.5916 15.3917 17.5063 15.317C17.197 15.1144 16.8983 14.9117 16.589 14.6984C15.9063 14.229 15.3943 15.0077 14.957 15.4344C14.2956 16.0744 15.1063 16.757 15.437 17.333C15.4796 17.397 15.4796 17.4504 15.4583 17.525C15.341 17.781 15.245 18.037 15.1383 18.293C15.117 18.357 15.085 18.3997 15.0103 18.4104C14.3916 18.581 13.3143 18.485 13.293 19.3704C13.293 19.6904 13.293 20.021 13.293 20.341C13.293 20.469 13.325 20.5864 13.3676 20.6824C13.6236 21.205 14.4663 21.141 14.9783 21.2904C15.0743 21.3117 15.117 21.3544 15.149 21.4397C15.245 21.717 15.3836 21.9837 15.4796 22.261C15.277 22.8264 14.4663 23.349 14.7756 24.021C14.989 24.3624 15.341 24.6184 15.6076 24.917C15.8743 25.1837 16.269 25.2264 16.5783 25.013C16.8876 24.8104 17.1863 24.6077 17.485 24.405C17.5383 24.3624 17.581 24.3624 17.6556 24.3944C17.9116 24.501 18.1676 24.6077 18.4343 24.7144C18.541 24.7464 18.5516 24.8104 18.5623 24.9064C18.7863 25.749 18.6156 26.6664 19.8103 26.5704C19.9703 26.5704 20.1303 26.5704 20.2796 26.5704C20.4396 26.5704 20.5996 26.5917 20.749 26.5277C20.7703 26.5277 20.7916 26.517 20.813 26.5064C20.877 26.4744 20.941 26.4317 21.005 26.3784C21.005 26.3784 21.037 26.3464 21.0476 26.3357C21.0476 26.3357 21.069 26.3144 21.0796 26.293C21.2183 26.133 21.2396 25.9304 21.2823 25.7277C21.325 25.5037 21.3783 25.2797 21.421 25.0557C21.453 24.9597 21.4316 24.8424 21.5063 24.7677C21.773 24.629 22.061 24.5437 22.3276 24.4157C22.3916 24.3837 22.445 24.3944 22.509 24.4157C22.509 24.4157 22.4876 24.405 22.477 24.3944C22.477 24.3944 22.509 24.405 22.5196 24.4157C22.5196 24.4157 22.5196 24.4157 22.5303 24.4157C22.7436 24.565 22.957 24.7037 23.1703 24.853C23.4476 25.0557 23.7783 25.2477 24.1196 25.0984C24.365 24.9917 24.5356 24.7677 24.7276 24.5864C25.7836 23.6904 25.133 23.3064 24.5676 22.389C24.5463 22.3464 24.5036 22.3144 24.525 22.261C24.6636 21.9517 24.749 21.6317 24.8983 21.3544C24.9303 21.3224 24.973 21.301 25.0263 21.2904C25.293 21.237 25.5596 21.1944 25.8263 21.1304C26.0716 21.077 26.3276 21.045 26.509 20.853C26.509 20.853 26.5623 20.789 26.5836 20.757C26.6903 20.597 26.7116 20.405 26.7116 20.213C26.7116 20.0104 26.7116 19.8077 26.7116 19.605C26.797 18.4637 25.805 18.613 24.9943 18.3997H24.9836ZM19.9916 23.5197C17.965 23.5197 16.3223 21.877 16.3223 19.8504C16.3223 17.8237 17.965 16.181 19.9916 16.181C22.0183 16.181 23.661 17.8237 23.661 19.8504C23.661 21.877 22.0183 23.5197 19.9916 23.5197Z" fill="#AAA9FF"></path><path id="Vector_4" d="M19.7131 16.1481C14.9344 16.6068 15.3291 23.6148 20.1078 23.5614C25.0571 23.2948 24.7797 15.9348 19.7131 16.1481Z" fill="#4744D4"></path><path id="Vector_5" d="M19.7647 16.8537C15.8927 17.227 16.2233 22.891 20.0847 22.8483C24.0953 22.635 23.8607 16.6723 19.7647 16.8537Z" fill="#AAA9FF"></path></g></g></svg>