<svg xmlns:xlink="http://www.w3.org/1999/xlink" width="28" height="28" fill="none" xmlns="http://www.w3.org/2000/svg"><path d="M8.373 11.894c4.627 0 8.374 3.373 8.374 7.533v7.187c0 .24-.214.426-.48.426H.48c-.267 0-.48-.186-.48-.426v-7.187c0-4.16 3.747-7.533 8.373-7.533Zm-.003-1.201A5.347 5.347 0 1 0 8.37 0a5.347 5.347 0 0 0 0 10.693Z" fill="#172963"></path><path d="M25.227 17c-.094-.013-.134-.053-.174-.147-.533-1.613-.68-.6.36-2.293.6-.853-.386-1.493-.92-2.053-.786-.827-1.666.2-2.386.613-.054.04-.134.053-.187.027a5.703 5.703 0 0 0-1.027-.414c-.066-.026-.08-.066-.093-.133-.093-.453-.187-.92-.267-1.373a.972.972 0 0 0-.733-.774c-.16 0-1.293-.04-1.693.027-.44.107-.654.533-.707.96-.08.387-.16.787-.24 1.187 0 .12-.493.226-.613.293-.147.04-.56.32-.667.227a57.39 57.39 0 0 1-1.147-.774c-.853-.586-1.493.387-2.04.92-.826.8.187 1.654.6 2.374.054.08.054.146.027.24-.147.32-.267.64-.4.96-.027.08-.067.133-.16.146-.773.214-2.12.094-2.147 1.2v1.214c0 .16.04.306.094.426.32.654 1.373.574 2.013.76.12.027.173.08.213.187.12.347.294.68.414 1.027-.254.706-1.267 1.36-.88 2.2.266.426.706.746 1.04 1.12a.935.935 0 0 0 1.213.12c.387-.254.76-.507 1.133-.76.067-.054.12-.054.214-.014.32.134.64.267.973.4.133.04.147.12.16.24.28 1.054.067 2.2 1.56 2.08h.587c.2 0 .4.027.586-.053a.177.177 0 0 0 .08-.027c.08-.04.16-.093.24-.16l.054-.053s.026-.027.04-.053c.173-.2.2-.454.253-.707.053-.28.12-.56.173-.84.04-.12.014-.267.107-.36.333-.173.693-.28 1.027-.44.08-.04.146-.027.226 0 0 0-.026-.013-.04-.027 0 0 .04.014.054.027h.013c.267.187.533.36.8.547.347.253.76.493 1.187.306.306-.133.52-.413.76-.64 1.32-1.12.506-1.6-.2-2.746-.027-.054-.08-.094-.054-.16.174-.387.28-.787.467-1.134a.304.304 0 0 1 .16-.08c.333-.066.667-.12 1-.2.307-.066.627-.106.853-.346 0 0 .067-.08.094-.12.133-.2.16-.44.16-.68v-.76c.106-1.427-1.134-1.24-2.147-1.507h-.013Zm-6.24 6.4a4.587 4.587 0 1 1 0-9.173 4.587 4.587 0 0 1 0 9.173Z" fill="#1E40AF"></path><path d="M18.64 14.186c-5.974.574-5.48 9.334.493 9.267 6.186-.333 5.84-9.533-.494-9.267Z" fill="#FB923C"></path><path d="M18.705 15.067c-4.84.466-4.427 7.546.4 7.493 5.013-.267 4.72-7.72-.4-7.493Z" fill="#FB923C"></path></svg>