<svg xmlns:xlink="http://www.w3.org/1999/xlink" xmlns="http://www.w3.org/2000/svg" viewBox="0 0 20 20" height="20" width="20"><path d="M9.93 0C4.86 0 5.18 2.21 5.18 2.21v2.37H10v.63H3.26S0 4.84 0 10s2.84 5 2.84 5h1.71v-2.4a2.71 2.71 0 012.81-2.91h4.76a2.59 2.59 0 002.7-2.62V2.66S15.23 0 9.93 0zM7.25 1.59a.88.88 0 11-.87.87.87.87 0 01.87-.87z" fill="#0071BC"></path><path d="M10.07 20c5.07 0 4.75-2.21 4.75-2.21V15.5H10v-.63h6.78s3.22.37 3.22-4.78-2.84-5-2.84-5h-1.71v2.4a2.67 2.67 0 01-2.77 2.82h-4.8a2.59 2.59 0 00-2.7 2.62v4.41S4.77 20 10.07 20zm2.67-1.52a.88.88 0 11.88-.88.87.87 0 01-.88.88z" fill="#FFC331"></path></svg>