<svg xmlns:xlink="http://www.w3.org/1999/xlink" width="104" height="101" fill="none" xmlns="http://www.w3.org/2000/svg" class="tailwind-hidden dark:block"><path d="M26.208 65.813a15.178 15.178 0 0 0-6.165-1.154 15.14 15.14 0 0 0-4.848.926C8.07 67.802 2.86 74.475 2.86 82.305v16.698a1 1 0 0 0 .998.997h33.01a1 1 0 0 0 .997-.997V82.305c0-7.58-4.883-14.072-11.656-16.492Zm59.658-1.011c-9.627 0-17.503 7.876-17.503 17.502v16.698c0 .549.45.998.998.998h33.009c.549 0 .998-.45.998-.998V82.304c0-9.626-7.876-17.502-17.502-17.502Zm-57.598-7.807c4.367-4.366 4.367-11.446 0-15.813-4.366-4.366-11.446-4.366-15.813 0-4.366 4.367-4.366 11.447 0 15.813 4.367 4.367 11.447 4.367 15.813 0Zm65.504 0c4.367-4.366 4.367-11.446 0-15.813-4.367-4.366-11.446-4.366-15.813 0-4.366 4.367-4.366 11.447 0 15.813 4.367 4.367 11.447 4.367 15.813 0ZM53.116.001c-8.792 0-15.92 7.127-15.92 15.92 0 2.19.499 4.05.713 4.731 1.887 5.968 6.814 8.985 8.426 9.882v3.223h-1.177a.805.805 0 0 0-.804.804v1.906c0 .444.36.804.804.804h1.177v1.09h-1.177a.805.805 0 0 0-.804.804v1.907c0 .444.36.804.804.804h15.914c.444 0 .804-.36.804-.804v-1.907a.805.805 0 0 0-.804-.804h-1.177v-1.09h1.177c.444 0 .804-.36.804-.804v-1.906a.805.805 0 0 0-.804-.804h-1.177v-3.223c1.612-.897 6.539-3.914 8.425-9.882.216-.68.715-2.54.715-4.73C69.034 7.129 61.906 0 53.113 0h.002Zm6.394 84.105a7.468 7.468 0 1 0-2.393-14.742 7.468 7.468 0 0 0 2.393 14.742Zm23.694-63.769a4.962 4.962 0 1 0 0-9.924 4.962 4.962 0 0 0 0 9.924ZM18.28 10.268a2.48 2.48 0 1 0-.795-4.897 2.48 2.48 0 0 0 .795 4.897Z" fill="#172963"></path><path d="M18.134 8.325 50.889 20.06l32.749 29.03-2.704-33.714L12.408 49.09 43.724 8.325 80.41 14.12" stroke="#1E40AF" stroke-width="1.112px" stroke-miterlimit="10" fill="none"></path><path d="M53.113 79.055 12.408 49.09l35.295-17.365 9.641 47.331 26.294-26.18" stroke="#1E40AF" stroke-width="1.112px" stroke-miterlimit="10" fill="none"></path><path d="M18.135 64.802c9.66 0 17.502 7.842 17.502 17.502v16.698c0 .55-.447.998-.997.998H1.63a.998.998 0 0 1-.997-.998V82.304c0-9.66 7.842-17.502 17.502-17.502Z" fill="#1E40AF"></path><path d="M83.502 65c9.66 0 17.503 7.843 17.503 17.502v16.699c0 .55-.448.997-.998.997h-33.01a.998.998 0 0 1-.997-.997V82.502C66 72.842 73.842 65 83.502 65Z" fill="#FB923C"></path><path d="M18.134 60.27c6.176 0 11.182-5.006 11.182-11.181 0-6.176-5.006-11.182-11.181-11.182-6.176 0-11.182 5.006-11.182 11.182 0 6.175 5.006 11.181 11.181 11.181Z" fill="#1E40AF"></path><path d="M83.638 60.27c6.176 0 11.182-5.006 11.182-11.181 0-6.176-5.006-11.182-11.182-11.182-6.175 0-11.181 5.006-11.181 11.182 0 6.175 5.006 11.181 11.181 11.181ZM66.81 15.92C66.81 7.129 59.683 0 50.89 0c-8.794 0-15.921 7.127-15.921 15.92 0 2.19.5 4.05.714 4.731 1.886 5.968 6.813 8.985 8.425 9.882v9.586h13.56v-9.586c1.612-.897 6.54-3.914 8.426-9.882.216-.68.714-2.54.714-4.73h.002Z" fill="#FB923C"></path><path d="M58.845 33.755H42.931a.804.804 0 0 0-.804.804v1.908c0 .444.36.804.804.804h15.914c.444 0 .804-.36.804-.804v-1.908a.804.804 0 0 0-.804-.804Zm0 4.605H42.931a.804.804 0 0 0-.804.804v1.908c0 .444.36.804.804.804h15.914c.444 0 .804-.36.804-.804v-1.908a.804.804 0 0 0-.804-.804Zm-7.956-15.115a3.186 3.186 0 1 0 0-6.371 3.186 3.186 0 0 0 0 6.371Z" fill="#1E40AF"></path><path d="M50.889 23.245v10.51" stroke="#60A5FA" stroke-width="0.556px" stroke-miterlimit="10" fill="none"></path><path d="M56.08 84.207a7.468 7.468 0 1 0 .001-14.935 7.468 7.468 0 0 0 0 14.935Zm24.895-63.87a4.962 4.962 0 1 0 0-9.924 4.962 4.962 0 0 0 0 9.924ZM15.654 10.301a2.48 2.48 0 1 0 0-4.96 2.48 2.48 0 0 0 0 4.96Z" fill="#1E40AF"></path><path d="m12.97 65.585 5.461 5.461 5.55-5.234a15.2 15.2 0 0 0-6.165-1.153c-2.058.05-3.725.514-4.847.926Z" fill="#93C5FD"></path><path d="M20.47 69.023h-3.99l-1.524 19.948 3.72 3.73 3.721-3.688c-.642-6.664-1.284-13.326-1.924-19.99h-.001Z" fill="#93C5FD"></path></svg>