<svg xmlns:xlink="http://www.w3.org/1999/xlink" width="24" height="24" viewBox="0 0 24 24" fill="none" xmlns="http://www.w3.org/2000/svg" class="h-6 w-6 dark:hidden"><g clip-path="url(#tml_a)" fill="none"><path d="M12.08 19.76c4.47 0 8.1-3.47 8.1-7.75 0-4.29-3.63-7.76-8.1-7.76-4.48 0-8.1 3.47-8.1 7.76 0 4.28 3.62 7.75 8.1 7.75Z" fill="url(&quot;#tml_b&quot;)"></path><path d="M24 13.33v-2.67h-1.9c-.12-.9-.35-1.75-.7-2.55l1.65-.96-1.33-2.32-1.68.97c-.54-.69-1.16-1.3-1.86-1.83l.98-1.7-2.3-1.34-1 1.72a10.1 10.1 0 0 0-2.5-.65V0h-2.67v2.02c-.87.12-1.7.34-2.5.67L7.2.94 4.86 2.27 5.9 4.03a9.98 9.98 0 0 0-1.83 1.83L2.31 4.84.97 7.16l1.74 1a9.97 9.97 0 0 0-.68 2.51H.05v2.68h1.97c.1.88.33 1.73.66 2.53l-1.7.98 1.34 2.32L4 18.2c.53.7 1.15 1.33 1.84 1.88l-.95 1.65 2.31 1.34.94-1.63c.8.34 1.66.58 2.56.7v1.86h2.67v-1.85c.9-.11 1.77-.34 2.58-.68l.92 1.59 2.3-1.34-.9-1.59c.7-.54 1.34-1.18 1.88-1.9l1.6.93 1.33-2.32-1.6-.93a9.9 9.9 0 0 0 .67-2.58H24 24Zm-11.24 6.21A7.5 7.5 0 0 1 11.39 4.6a7.5 7.5 0 0 1 1.37 14.94Z" fill="url(&quot;#tml_c&quot;)"></path><path d="M7.4 10.57V10c0-.56.1-1.12.35-1.52.25-.4.68-.67 1.4-.67.65 0 1.1.24 1.36.6.27.39.36.91.36 1.5a7.6 7.6 0 0 1-.75 2.84c-.44.97-.94 1.83-1.28 2.37h2.06v1.23H7.37v-1.23c.4-.58.76-1.18 1.08-1.78.28-.51.54-1.08.74-1.68.2-.58.36-1.16.38-1.68 0-.23-.02-.49-.08-.69-.06-.19-.16-.34-.36-.34-.18 0-.28.13-.34.3-.06.2-.08.46-.08.73v.59H7.4v.01Z" fill="url(&quot;#tml_d&quot;)"></path><path d="m13.97 16.36-.83-5.32-.04-.36h-.08v5.68h-1.2V7.9h1.59l.77 3.87.06.45h.03l.06-.45.77-3.87h1.59v8.46h-1.2v-5.68h-.08l-.04.36-.83 5.32h-.56Z" fill="url(&quot;#tml_e&quot;)"></path></g><defs><linearGradient id="tml_b" x1="12.25" y1="-3.49" x2="11.8" y2="38.39" gradientUnits="userSpaceOnUse"><stop offset="0.22" stop-color="#CBCAFF"></stop><stop offset="0.29" stop-color="#C3C2FF"></stop><stop offset="0.38" stop-color="#AEACFF"></stop><stop offset="0.51" stop-color="#8B89FF"></stop><stop offset="0.64" stop-color="#5B59FF"></stop><stop offset="0.66" stop-color="#5553FF"></stop></linearGradient><linearGradient id="tml_c" x1="11.29" y1="-4.91" x2="13.3" y2="41.16" gradientUnits="userSpaceOnUse"><stop offset="0.15" stop-color="#A9A8FF"></stop><stop offset="0.2" stop-color="#A1A0FC"></stop><stop offset="0.28" stop-color="#8C8AF3"></stop><stop offset="0.38" stop-color="#6A67E6"></stop><stop offset="0.47" stop-color="#4743D9"></stop><stop offset="0.51" stop-color="#423ECC"></stop><stop offset="0.57" stop-color="#3734AC"></stop><stop offset="0.66" stop-color="#242278"></stop><stop offset="0.73" stop-color="#131245"></stop></linearGradient><linearGradient id="tml_d" x1="7.37" y1="12.08" x2="10.9" y2="12.08" gradientUnits="userSpaceOnUse"><stop offset="0.39" stop-color="#131245"></stop><stop offset="1" stop-color="#0E0D2B"></stop></linearGradient><linearGradient id="tml_e" x1="11.82" y1="12.13" x2="16.68" y2="12.13" gradientUnits="userSpaceOnUse"><stop offset="0.39" stop-color="#131245"></stop><stop offset="1" stop-color="#0E0D2B"></stop></linearGradient><clipPath id="tml_a"><path fill="#fff" d="M0 0h24v24H0z"></path></clipPath><linearGradient id="tml_b" x1="12.25" y1="-3.49" x2="11.8" y2="38.39" gradientUnits="userSpaceOnUse"><stop offset="0.22" stop-color="#CBCAFF"></stop><stop offset="0.29" stop-color="#C3C2FF"></stop><stop offset="0.38" stop-color="#AEACFF"></stop><stop offset="0.51" stop-color="#8B89FF"></stop><stop offset="0.64" stop-color="#5B59FF"></stop><stop offset="0.66" stop-color="#5553FF"></stop></linearGradient><linearGradient id="tml_c" x1="11.29" y1="-4.91" x2="13.3" y2="41.16" gradientUnits="userSpaceOnUse"><stop offset="0.15" stop-color="#A9A8FF"></stop><stop offset="0.2" stop-color="#A1A0FC"></stop><stop offset="0.28" stop-color="#8C8AF3"></stop><stop offset="0.38" stop-color="#6A67E6"></stop><stop offset="0.47" stop-color="#4743D9"></stop><stop offset="0.51" stop-color="#423ECC"></stop><stop offset="0.57" stop-color="#3734AC"></stop><stop offset="0.66" stop-color="#242278"></stop><stop offset="0.73" stop-color="#131245"></stop></linearGradient><linearGradient id="tml_d" x1="7.37" y1="12.08" x2="10.9" y2="12.08" gradientUnits="userSpaceOnUse"><stop offset="0.39" stop-color="#131245"></stop><stop offset="1" stop-color="#0E0D2B"></stop></linearGradient><linearGradient id="tml_e" x1="11.82" y1="12.13" x2="16.68" y2="12.13" gradientUnits="userSpaceOnUse"><stop offset="0.39" stop-color="#131245"></stop><stop offset="1" stop-color="#0E0D2B"></stop></linearGradient></defs></svg>