<svg xmlns:xlink="http://www.w3.org/1999/xlink" width="201" height="201" fill="none" xmlns="http://www.w3.org/2000/svg" class="tailwind-hidden order-1 mb-10 shrink-0 sm:order-2 dark:sm:block"><g clip-path="url(#a)" fill="none"><path d="M191.813 40.24H11.058a8.107 8.107 0 0 0-8.105 8.105v112.74a8.107 8.107 0 0 0 8.105 8.105h142.42c1.14 0 2.25.455 3.02 1.295 1.67 1.82 2.76 3.61 3.495 5.18 3.53 7.54 1.59 15.83-1.29 22.305a.953.953 0 0 0 .305 1.155c.405.31.985.24 1.305-.155 7.715-9.42 15.43-18.835 23.14-28.255a4.166 4.166 0 0 1 3.22-1.525h5.13a8.107 8.107 0 0 0 8.105-8.105V48.345a8.107 8.107 0 0 0-8.105-8.105h.01Z" fill="#172963"></path><path d="m158.742 199.495-.125-.09c-.745-.555-1.58-1.435-2.205-2.875 1.32-1.525 2.64-3.055 3.96-4.58l.27 4.39-1.9 3.155Z" fill="#172963"></path><path d="M189.223 38.16H8.478a7.607 7.607 0 0 0-7.605 7.605v112.74a7.607 7.607 0 0 0 7.605 7.605h142.42c1.27 0 2.517.507 3.388 1.457 1.709 1.862 2.826 3.695 3.58 5.306 3.624 7.741 1.612 15.205-1.286 21.72L189.223 38.16Zm0 0a7.607 7.607 0 0 1 7.605 7.605v112.74a7.606 7.606 0 0 1-7.605 7.605h-5.13a4.666 4.666 0 0 0-3.607 1.708l.387.317-.387-.317c-3.85 4.704-7.702 9.158-11.559 13.618l-.035.04c-3.845 4.444-7.695 8.895-11.546 13.597l-.001.002M189.223 38.16l-31.878 156.915m0 0a.444.444 0 0 1-.642.052.453.453 0 0 1-.123-.534l.765.482Z" fill="#1E40AF" stroke="#1D4ED8"></path><path d="m12.859 63.387-2.1 7.28-.756-3.024c.933 0 1.698.27 2.296.812.597.541.896 1.288.896 2.24 0 .952-.308 1.717-.924 2.296-.598.56-1.354.84-2.268.84-.915 0-1.68-.28-2.296-.84-.598-.579-.896-1.344-.896-2.296 0-.261.018-.523.056-.784a8.13 8.13 0 0 1 .28-.952c.13-.373.326-.859.588-1.456l1.792-4.116h3.332Zm7.336 0-2.1 7.28-.756-3.024c.933 0 1.698.27 2.296.812.597.541.896 1.288.896 2.24 0 .952-.308 1.717-.924 2.296-.598.56-1.354.84-2.268.84-.915 0-1.68-.28-2.296-.84-.598-.579-.896-1.344-.896-2.296 0-.261.018-.523.056-.784.056-.261.149-.579.28-.952.13-.373.326-.859.588-1.456l1.792-4.116h3.332Z" fill="#FB923C"></path><path d="M174.913 77.501H27.458a3.619 3.619 0 1 0 0 7.235h147.455a3.619 3.619 0 1 0 0-7.235Zm0 19.269H27.458a3.619 3.619 0 1 0 0 7.236h147.455a3.619 3.619 0 1 0 0-7.236Zm0 19.265H27.458a3.618 3.618 0 1 0 0 7.235h147.455a3.618 3.618 0 1 0 0-7.235Zm0 19.271H27.458a3.618 3.618 0 1 0 0 7.235h147.455a3.618 3.618 0 1 0 0-7.235Z" fill="#172963"></path><path d="M173.288 76.216H25.833a3.619 3.619 0 1 0 0 7.235h147.455a3.619 3.619 0 1 0 0-7.235Zm0 19.269H25.833a3.618 3.618 0 1 0 0 7.235h147.455a3.618 3.618 0 1 0 0-7.235Zm0 19.271H25.833a3.618 3.618 0 1 0 0 7.235h147.455a3.618 3.618 0 1 0 0-7.235Zm0 19.265H25.833a3.618 3.618 0 1 0 0 7.235h147.455a3.618 3.618 0 1 0 0-7.235Z" fill="#93C5FD"></path><path d="m103.929 5.135 7.545 15.29a2.6 2.6 0 0 0 1.95 1.42l16.875 2.45c2.125.31 2.975 2.92 1.435 4.42l-12.21 11.9a2.594 2.594 0 0 0-.745 2.295l2.88 16.805c.365 2.12-1.86 3.73-3.76 2.735l-15.09-7.935a2.599 2.599 0 0 0-2.41 0l-15.09 7.935c-1.9 1-4.125-.615-3.76-2.735l2.88-16.805c.145-.84-.135-1.7-.745-2.295l-12.21-11.9c-1.54-1.5-.69-4.11 1.435-4.42l16.875-2.45a2.592 2.592 0 0 0 1.95-1.42l7.545-15.29c.95-1.925 3.7-1.925 4.65 0Z" fill="#172963"></path><path d="m101.462 3.9 7.545 15.29a2.6 2.6 0 0 0 1.95 1.42l16.875 2.45c2.125.31 2.975 2.92 1.435 4.42l-12.21 11.9a2.594 2.594 0 0 0-.745 2.296l2.88 16.805c.365 2.12-1.86 3.73-3.76 2.735l-15.09-7.935a2.598 2.598 0 0 0-2.41 0l-15.09 7.935c-1.9 1-4.125-.615-3.76-2.735l2.88-16.805c.145-.84-.135-1.7-.745-2.295l-12.21-11.9c-1.54-1.5-.69-4.11 1.435-4.42l16.875-2.45a2.592 2.592 0 0 0 1.95-1.42L96.812 3.9c.95-1.925 3.7-1.925 4.65 0Z" fill="#FB923C"></path><path d="m156.689 19.85 5.4 10.945c.27.55.795.925 1.395 1.015l12.08 1.755c1.52.22 2.13 2.09 1.03 3.165l-8.74 8.52a1.868 1.868 0 0 0-.535 1.64l2.065 12.03c.26 1.515-1.33 2.67-2.69 1.955l-10.805-5.68a1.847 1.847 0 0 0-1.725 0l-10.805 5.68c-1.36.715-2.95-.44-2.69-1.955l2.065-12.03a1.84 1.84 0 0 0-.535-1.64l-8.74-8.52c-1.1-1.075-.495-2.945 1.03-3.165l12.08-1.755a1.85 1.85 0 0 0 1.395-1.015l5.4-10.945c.68-1.38 2.645-1.38 3.33 0h-.005Z" fill="#172963"></path><path d="m154.923 18.97 5.4 10.946c.27.55.795.924 1.395 1.014l12.08 1.755c1.52.22 2.13 2.09 1.03 3.165l-8.74 8.52a1.868 1.868 0 0 0-.535 1.64l2.065 12.03c.26 1.516-1.33 2.67-2.69 1.956l-10.805-5.68a1.847 1.847 0 0 0-1.725 0l-10.805 5.68c-1.36.715-2.95-.44-2.69-1.956l2.065-12.03a1.84 1.84 0 0 0-.535-1.64l-8.74-8.52c-1.1-1.075-.495-2.944 1.03-3.165l12.08-1.755a1.85 1.85 0 0 0 1.395-1.014l5.4-10.945c.68-1.38 2.645-1.38 3.33 0h-.005Z" fill="#93C5FD"></path><path d="m49.153 19.85 5.4 10.945c.27.55.795.925 1.395 1.015l12.08 1.755c1.52.22 2.13 2.09 1.03 3.165l-8.74 8.52a1.868 1.868 0 0 0-.535 1.64l2.065 12.03c.26 1.515-1.33 2.67-2.69 1.955l-10.805-5.68a1.847 1.847 0 0 0-1.725 0l-10.805 5.68c-1.36.715-2.95-.44-2.69-1.955l2.065-12.03a1.84 1.84 0 0 0-.535-1.64l-8.74-8.52c-1.1-1.075-.495-2.945 1.03-3.165l12.08-1.755a1.85 1.85 0 0 0 1.395-1.015l5.4-10.945c.68-1.38 2.645-1.38 3.33 0h-.005Z" fill="#172963"></path><path d="m47.388 18.97 5.4 10.946c.27.55.795.924 1.395 1.014l12.08 1.755c1.52.22 2.13 2.09 1.03 3.165l-8.74 8.52a1.868 1.868 0 0 0-.535 1.64l2.065 12.03c.26 1.516-1.33 2.67-2.69 1.956l-10.805-5.68a1.847 1.847 0 0 0-1.725 0l-10.805 5.68c-1.36.715-2.95-.44-2.69-1.956l2.065-12.03a1.84 1.84 0 0 0-.535-1.64l-8.74-8.52c-1.1-1.075-.495-2.944 1.03-3.165l12.08-1.755a1.85 1.85 0 0 0 1.395-1.014l5.4-10.945c.68-1.38 2.645-1.38 3.33 0h-.005Z" fill="#93C5FD"></path></g><defs><clipPath id="a"><path fill="#fff" d="M.373.976h200v200h-200z"></path></clipPath></defs></svg>