<svg xmlns:xlink="http://www.w3.org/1999/xlink" width="25" height="24" fill="none" xmlns="http://www.w3.org/2000/svg" class="tailwind-hidden h-6 w-6 dark:block"><path d="M23.438 0H7.316a.646.646 0 0 0-.646.646v22.708c0 .357.29.646.646.646h16.122c.357 0 .646-.29.646-.646V.646A.646.646 0 0 0 23.438 0Z" fill="#0E0D29"></path><path d="M23.033 0H6.55a.653.653 0 0 0-.654.653v22.694c0 .36.293.653.654.653h16.483c.36 0 .653-.293.653-.653V.653A.653.653 0 0 0 23.033 0Z" fill="#172963"></path><path d="M20.375 2.14h-8.14a.773.773 0 1 0 0 1.547h8.14a.773.773 0 1 0 0-1.547Zm0 3.042h-8.14a.773.773 0 1 0 0 1.547h8.14a.773.773 0 1 0 0-1.547Zm0 3.041h-8.14a.773.773 0 1 0 0 1.547h8.14a.773.773 0 1 0 0-1.547Zm0 3.034h-8.14a.773.773 0 1 0 0 1.547h8.14a.773.773 0 0 0 0-1.547Zm.008 3.041H9.2a.773.773 0 1 0 0 1.547h11.182a.773.773 0 0 0 0-1.547Zm0 3.041H9.2a.773.773 0 1 0 0 1.547h11.182a.773.773 0 0 0 0-1.547Zm0 2.974H9.2a.773.773 0 0 0 0 1.546h11.182a.773.773 0 1 0 0-1.547Z" fill="#93C5FD"></path><path d="M5.92 1.764h6.48a.4.4 0 0 1 .399.398v9.47a.4.4 0 0 1-.399.398H5.92V1.757v.007Z" fill="#091363" stroke="#091363" stroke-width="0.09px" stroke-miterlimit="10"></path><path d="M11.926 1.441H.67a.54.54 0 0 0-.541.541v9.282c0 .298.242.54.54.54h11.257a.54.54 0 0 0 .54-.54V1.982a.54.54 0 0 0-.54-.54Z" fill="#93C5FD" stroke="#172963" stroke-width="0.12px" stroke-miterlimit="10"></path><path d="M3.834 4.385c.353.188.623.375.811.563.188.188.286.436.286.736 0 .338-.098.616-.286.834a1.484 1.484 0 0 1-.706.458c-.278.082-.6.127-.96.127-.654 0-1.135-.12-1.458-.368-.323-.24-.488-.525-.488-.84a1.06 1.06 0 0 1 .398-.841 2.92 2.92 0 0 1 .353-.256c.113-.068.24-.128.39-.195a3.589 3.589 0 0 1-.72-.548.932.932 0 0 1-.248-.654c0-.435.165-.773.488-1.021.33-.24.773-.36 1.337-.36.563 0 .953.12 1.231.367.278.24.413.549.413.902 0 .473-.278.833-.84 1.096Zm-.803 2.238a.706.706 0 0 0 .48-.165.512.512 0 0 0 .196-.398c0-.24-.09-.451-.263-.631-.18-.18-.436-.36-.766-.54a1.919 1.919 0 0 0-.346.48c-.097.18-.142.36-.142.533 0 .24.082.42.24.54.165.12.36.188.6.188v-.007Zm-.06-4.145a.522.522 0 0 0-.39.142.472.472 0 0 0-.151.346c0 .24.06.435.195.6.128.166.308.316.54.459.114-.106.219-.248.294-.413.082-.173.12-.338.12-.511a.662.662 0 0 0-.158-.436c-.105-.127-.255-.187-.45-.187ZM7.6 7.103a2.103 2.103 0 0 1-1.599-.69c-.435-.466-.646-1.074-.646-1.833 0-.758.203-1.397.609-1.862.405-.466.953-.698 1.637-.698.638 0 1.179.24 1.607.72.435.481.646 1.097.646 1.855 0 .759-.218 1.367-.654 1.825-.435.458-.968.69-1.6.69v-.007Zm-.382-.84c.165.247.36.375.57.375.21 0 .383-.128.504-.376.12-.247.187-.615.187-1.104 0-.413-.037-.818-.12-1.216a3.401 3.401 0 0 0-.368-1.021c-.165-.278-.353-.42-.57-.42-.218 0-.398.134-.519.405-.12.27-.187.675-.187 1.201 0 .42.045.819.127 1.202.083.383.21.698.376.946v.007Zm3.626.593s-.053-.023-.053-.075v-.45h-.45c-.045 0-.075-.016-.075-.053v-.21s.03-.053.075-.053h.45v-.45c0-.053.015-.076.053-.076h.218s.052.023.052.075v.45h.45s.038 0 .053.016a.041.041 0 0 1 .023.037v.218s-.023.053-.075.053h-.45v.45c0 .053-.016.075-.053.075h-.218v-.007ZM2.249 10.07v.45a.79.79 0 0 1-.083.361.59.59 0 0 1-.195.24.553.553 0 0 1-.368.113.574.574 0 0 1-.563-.353.909.909 0 0 1-.083-.36V8.584c0-.128.03-.248.083-.353a.59.59 0 0 1 .187-.248.62.62 0 0 1 .376-.113.58.58 0 0 1 .563.36.902.902 0 0 1 .083.354v.45h-.45v-.45c0-.09-.023-.15-.076-.203-.023-.023-.06-.038-.113-.038-.082 0-.127.06-.15.12-.015.038-.015.075-.022.12v1.938c0 .098.03.158.075.203a.13.13 0 0 0 .097.037c.105 0 .143-.052.166-.12.015-.03.015-.075.015-.12v-.45h.458Zm1.545.458a.79.79 0 0 1-.083.36.59.59 0 0 1-.195.24.553.553 0 0 1-.368.113.574.574 0 0 1-.563-.353.908.908 0 0 1-.083-.36V8.59c0-.127.03-.247.083-.353a.59.59 0 0 1 .187-.247.62.62 0 0 1 .376-.113.58.58 0 0 1 .563.36.902.902 0 0 1 .083.353v1.938ZM3.313 8.59c0-.09-.015-.15-.06-.202a.143.143 0 0 0-.098-.038c-.082 0-.127.06-.142.12-.015.038-.015.075-.015.12v1.938c0 .097.022.157.067.202a.13.13 0 0 0 .098.038c.082 0 .127-.053.142-.12.015-.03.015-.075.015-.12V8.59h-.007Zm2.097-.675v2.613c0 .136-.03.256-.082.36a.59.59 0 0 1-.195.241.553.553 0 0 1-.368.113.574.574 0 0 1-.563-.353.909.909 0 0 1-.083-.36V7.914h.48v2.613c0 .098.023.158.068.203a.13.13 0 0 0 .098.038c.083 0 .128-.053.143-.12.015-.03.015-.076.015-.12V7.914h.488Zm1.216 3.281-.248-1.389H6.25v1.39h-.48v-3.29h.48c.578 0 .826.323.826.946 0 .323-.082.624-.27.744l.308 1.592h-.48l-.008.007Zm-.383-1.832c.067 0 .157-.007.225-.075.075-.06.128-.18.128-.413 0-.233-.06-.36-.128-.42a.341.341 0 0 0-.225-.068v.976Zm1.928-.571c0-.105 0-.225-.038-.322-.03-.09-.082-.15-.157-.15-.128 0-.165.134-.165.322 0 .113.052.225.12.353.075.128.165.255.262.39.113.166.226.339.308.504.083.165.143.338.143.51 0 .218-.037.428-.135.579-.105.15-.27.247-.533.247-.308 0-.48-.112-.579-.292-.097-.18-.12-.413-.12-.661l.473-.045c0 .135 0 .277.038.383.03.105.083.18.188.18.142 0 .195-.15.195-.36 0-.106-.053-.233-.128-.361a6.254 6.254 0 0 0-.127-.195 9.38 9.38 0 0 1-.3-.45 2.1 2.1 0 0 1-.241-.511.769.769 0 0 1-.038-.263c0-.18.038-.368.143-.518a.582.582 0 0 1 .488-.248c.293 0 .458.112.556.293.098.18.12.398.12.578l-.473.045v-.008Zm.737-.878h1.104v.495H9.39v.864h.45V9.8h-.45v.9h.623v.496H8.908V7.907v.008Zm2.169.878c0-.105 0-.225-.037-.322-.03-.09-.083-.15-.158-.15-.128 0-.165.134-.165.322 0 .113.052.225.12.353a5.1 5.1 0 0 0 .263.39c.112.166.225.339.308.504.082.165.142.338.142.51 0 .218-.037.428-.135.579-.105.15-.27.247-.533.247-.308 0-.48-.112-.578-.292-.098-.18-.12-.413-.12-.661l.473-.045c0 .135 0 .277.037.383.03.105.083.18.188.18.143 0 .195-.15.195-.36 0-.106-.052-.233-.127-.361a9.012 9.012 0 0 0-.128-.195 9.364 9.364 0 0 1-.3-.45 2.103 2.103 0 0 1-.24-.511.77.77 0 0 1-.038-.263c0-.18.037-.368.142-.518a.583.583 0 0 1 .489-.248c.292 0 .457.112.555.293.098.18.12.398.12.578l-.473.045v-.008Z" fill="#172963"></path></svg>