<svg xmlns:xlink="http://www.w3.org/1999/xlink" xmlns="http://www.w3.org/2000/svg" width="41" height="40" fill="none" viewBox="0 0 41 40" class="h-8 w-8"><rect width="40" height="40" x="0.5" class="fill-blue-100 dark:fill-blue-900" rx="4" fill="#DBEAFE"></rect><path class="fill-blue-500 dark:fill-blue-300" d="M31.8 12A7.6 7.6 0 0 0 20 11a7.6 7.6 0 0 0-11.8 1 1 1 0 0 0-.2.4v16.9a1 1 0 0 0 1.7.5 5.7 5.7 0 0 1 4.8-2.5c1.9 0 3.6.9 4.7 2.5l.1.1.2.2.5.1.5-.1.1-.1v-.1h.2c1-1.7 2.8-2.6 4.7-2.6 2 0 3.7.9 4.8 2.5.2.4.6.5 1 .4.4-.1.7-.5.7-1V12.5c0-.1 0-.3-.2-.5ZM14.5 25.3c-1.7 0-3.3.5-4.6 1.5V12.7c1-1.4 2.7-2.3 4.6-2.3 1.8 0 3.5.9 4.6 2.4V27c-1.3-1-3-1.6-4.6-1.6ZM30 26.9a7.6 7.6 0 0 0-9.2 0v-14a5.6 5.6 0 0 1 9.2 0V27Z" fill="#3B82F6"></path></svg>