<svg xmlns:xlink="http://www.w3.org/1999/xlink" width="100" height="100" viewBox="0 0 100 100" fill="none" xmlns="http://www.w3.org/2000/svg" class="dark:hidden"><path d="M100 50v43.3c0 3.7-3 6.7-6.7 6.7H50V81.42a6.42 6.42 0 1 0 0-12.84V50h50Z" fill="url(&quot;#ind_a&quot;)"></path><path d="M50 68.58V50H31.42a6.42 6.42 0 1 0-12.84 0H0v43.3C0 97 3 100 6.7 100H50V81.43a6.42 6.42 0 1 0 0-12.85Z" fill="url(&quot;#ind_b&quot;)"></path><path d="M93.3 0H50v50h18.58A6.3 6.3 0 0 0 75 56.2a6.3 6.3 0 0 0 6.43-6.2H100V6.7C100 3 97 0 93.3 0Z" fill="url(&quot;#ind_c&quot;)"></path><path d="M50.87 18.82c-.3 0-.58.02-.87.06V.01H6.7C3 .01 0 3.01 0 6.71v43.3h18.58a6.42 6.42 0 1 1 12.84 0H50V31.12A6.3 6.3 0 0 0 57.3 25a6.3 6.3 0 0 0-6.42-6.18Z" fill="url(&quot;#ind_d&quot;)"></path><defs><linearGradient id="ind_a" x1="25.44" y1="25.44" x2="101.09" y2="101.09" gradientUnits="userSpaceOnUse"><stop offset="0.08" stop-color="#CBCAFF"></stop><stop offset="0.43" stop-color="#C8C7FF"></stop><stop offset="0.6" stop-color="#C1C0FF"></stop><stop offset="0.73" stop-color="#B4B3FF"></stop><stop offset="0.84" stop-color="#A2A0FF"></stop><stop offset="0.94" stop-color="#8A89FF"></stop><stop offset="1" stop-color="#7775FF"></stop></linearGradient><linearGradient id="ind_b" x1="40.7" y1="48.74" x2="-6.03" y2="126.93" gradientUnits="userSpaceOnUse"><stop offset="0.41" stop-color="#4743D9"></stop><stop offset="0.46" stop-color="#423ECC"></stop><stop offset="0.57" stop-color="#3734AC"></stop><stop offset="0.71" stop-color="#242278"></stop><stop offset="0.83" stop-color="#131245"></stop></linearGradient><linearGradient id="ind_c" x1="28.54" y1="83.3" x2="125.71" y2="-38.62" gradientUnits="userSpaceOnUse"><stop offset="0.24" stop-color="#00CAB1"></stop><stop offset="0.31" stop-color="#06C0B6"></stop><stop offset="0.43" stop-color="#18A8C7"></stop><stop offset="0.58" stop-color="#3480E1"></stop><stop offset="0.73" stop-color="#5553FF"></stop></linearGradient><linearGradient id="ind_d" x1="76.41" y1="52.94" x2="-19.83" y2="0.65" gradientUnits="userSpaceOnUse"><stop offset="0.08" stop-color="#CBCAFF"></stop><stop offset="0.45" stop-color="#A7A6FF"></stop><stop offset="1" stop-color="#7775FF"></stop></linearGradient><linearGradient id="ind_a" x1="25.44" y1="25.44" x2="101.09" y2="101.09" gradientUnits="userSpaceOnUse"><stop offset="0.08" stop-color="#CBCAFF"></stop><stop offset="0.43" stop-color="#C8C7FF"></stop><stop offset="0.6" stop-color="#C1C0FF"></stop><stop offset="0.73" stop-color="#B4B3FF"></stop><stop offset="0.84" stop-color="#A2A0FF"></stop><stop offset="0.94" stop-color="#8A89FF"></stop><stop offset="1" stop-color="#7775FF"></stop></linearGradient><linearGradient id="ind_b" x1="40.7" y1="48.74" x2="-6.03" y2="126.93" gradientUnits="userSpaceOnUse"><stop offset="0.41" stop-color="#4743D9"></stop><stop offset="0.46" stop-color="#423ECC"></stop><stop offset="0.57" stop-color="#3734AC"></stop><stop offset="0.71" stop-color="#242278"></stop><stop offset="0.83" stop-color="#131245"></stop></linearGradient><linearGradient id="ind_c" x1="28.54" y1="83.3" x2="125.71" y2="-38.62" gradientUnits="userSpaceOnUse"><stop offset="0.24" stop-color="#00CAB1"></stop><stop offset="0.31" stop-color="#06C0B6"></stop><stop offset="0.43" stop-color="#18A8C7"></stop><stop offset="0.58" stop-color="#3480E1"></stop><stop offset="0.73" stop-color="#5553FF"></stop></linearGradient><linearGradient id="ind_d" x1="76.41" y1="52.94" x2="-19.83" y2="0.65" gradientUnits="userSpaceOnUse"><stop offset="0.08" stop-color="#CBCAFF"></stop><stop offset="0.45" stop-color="#A7A6FF"></stop><stop offset="1" stop-color="#7775FF"></stop></linearGradient></defs></svg>