<svg xmlns:xlink="http://www.w3.org/1999/xlink" width="201" height="198" viewBox="0 0 201 198" fill="none" xmlns="http://www.w3.org/2000/svg" class="tailwind-hidden order-1 mb-10 shrink-0 dark:hidden sm:order-2 sm:block"><path d="M192.03 35.74H8.48a8.23 8.23 0 0 0-8.23 8.23v114.48a8.23 8.23 0 0 0 8.23 8.23h144.63c1.15 0 2.28.46 3.06 1.31 1.7 1.85 2.8 3.67 3.55 5.26 3.58 7.66 1.61 16.08-1.3 22.65a.96.96 0 0 0 .3 1.17c.41.31 1 .24 1.33-.16l23.5-28.69c.8-.98 2-1.54 3.27-1.54h5.2a8.23 8.23 0 0 0 8.23-8.23V43.97a8.23 8.23 0 0 0-8.22-8.23Z" fill="url(&quot;#ts_a&quot;)"></path><path d="m12.49 62.41-2.1 7.28-.76-3.02c.94 0 1.7.27 2.3.8.6.55.9 1.3.9 2.25a3 3 0 0 1-3.2 3.14c-.91 0-1.68-.28-2.3-.84-.6-.58-.89-1.35-.89-2.3 0-.26.02-.52.06-.78.05-.27.15-.58.28-.96.13-.37.32-.86.58-1.45l1.8-4.12h3.33Zm7.33 0-2.1 7.28-.75-3.02c.93 0 1.7.27 2.3.8.6.55.9 1.3.9 2.25a3 3 0 0 1-3.2 3.14c-.92 0-1.68-.28-2.3-.84-.6-.58-.9-1.35-.9-2.3 0-.26.03-.52.06-.78.06-.27.15-.58.28-.96.13-.37.33-.86.6-1.45l1.78-4.12h3.33Z" fill="url(&quot;#ts_b&quot;)"></path><path d="M175.42 75H25.67a3.67 3.67 0 1 0 0 7.35h149.75a3.67 3.67 0 1 0 0-7.35Z" fill="url(&quot;#ts_c&quot;)"></path><path opacity="0.9" d="M175.42 94H25.67a3.67 3.67 0 0 0 0 7.35h149.75a3.67 3.67 0 1 0 0-7.35Z" fill="url(&quot;#ts_d&quot;)"></path><path opacity="0.85" d="M175.42 114H25.67a3.67 3.67 0 0 0 0 7.35h149.75a3.67 3.67 0 1 0 0-7.35Z" fill="url(&quot;#ts_e&quot;)"></path><path opacity="0.75" d="M175.42 134H25.67a3.67 3.67 0 0 0 0 7.35h149.75a3.67 3.67 0 1 0 0-7.35Z" fill="url(&quot;#ts_f&quot;)"></path><path d="m102.91 1.47 7.67 15.52a2.62 2.62 0 0 0 1.98 1.44l17.13 2.49a2.63 2.63 0 0 1 1.46 4.49l-12.4 12.08c-.61.6-.9 1.48-.75 2.33l2.93 17.06a2.63 2.63 0 0 1-3.82 2.78l-15.33-8.06c-.77-.4-1.68-.4-2.45 0L84 59.66a2.63 2.63 0 0 1-3.82-2.78l2.93-17.06a2.63 2.63 0 0 0-.75-2.33l-12.4-12.08a2.63 2.63 0 0 1 1.46-4.5l17.13-2.48c.86-.13 1.6-.66 1.99-1.44L98.2 1.47a2.63 2.63 0 0 1 4.72 0Z" fill="url(&quot;#ts_g&quot;)"></path><path d="m48 16.76 5.48 11.12c.27.56.8.94 1.42 1.03l12.26 1.78a1.88 1.88 0 0 1 1.05 3.22l-8.88 8.65a1.9 1.9 0 0 0-.55 1.67l2.1 12.21a1.88 1.88 0 0 1-2.73 1.99l-10.97-5.77a1.9 1.9 0 0 0-1.75 0l-10.98 5.77c-1.38.73-3-.45-2.73-1.99l2.1-12.21c.1-.61-.1-1.23-.54-1.67l-8.88-8.65a1.88 1.88 0 0 1 1.04-3.22l12.27-1.78a1.89 1.89 0 0 0 1.42-1.03l5.48-11.12a1.88 1.88 0 0 1 3.38 0Z" fill="url(&quot;#ts_h&quot;)"></path><path d="m157.2 16.76 5.47 11.12c.28.56.8.94 1.42 1.03l12.27 1.78a1.88 1.88 0 0 1 1.04 3.22l-8.88 8.65a1.9 1.9 0 0 0-.54 1.67l2.1 12.21a1.88 1.88 0 0 1-2.73 1.99l-10.98-5.77a1.9 1.9 0 0 0-1.75 0l-10.97 5.77c-1.38.73-3-.45-2.73-1.99l2.1-12.21c.1-.61-.1-1.23-.55-1.67l-8.87-8.65a1.88 1.88 0 0 1 1.04-3.22l12.27-1.78a1.88 1.88 0 0 0 1.41-1.03l5.49-11.12a1.88 1.88 0 0 1 3.37 0h.01Z" fill="url(&quot;#ts_i&quot;)"></path><defs><linearGradient id="ts_a" x1="99.55" y1="36" x2="99.55" y2="197" gradientUnits="userSpaceOnUse"><stop stop-color="#AAA9FF"></stop><stop offset="1" stop-color="#00C7B2"></stop></linearGradient><linearGradient id="ts_b" x1="13.31" y1="56.19" x2="13.31" y2="83.19" gradientUnits="userSpaceOnUse"><stop stop-color="#CCCBFF"></stop><stop offset="1" stop-color="#CCCBFF" stop-opacity="0.4"></stop></linearGradient><linearGradient id="ts_c" x1="100.54" y1="75" x2="100.54" y2="82.35" gradientUnits="userSpaceOnUse"><stop stop-color="#CCCBFF"></stop><stop offset="0.39" stop-color="#C6C5FF"></stop><stop offset="0.52" stop-color="#C3C2FF"></stop><stop offset="0.84" stop-color="#C1C0FF"></stop><stop offset="1" stop-color="#BAB9FA"></stop></linearGradient><linearGradient id="ts_d" x1="100.54" y1="94" x2="100.54" y2="101.35" gradientUnits="userSpaceOnUse"><stop stop-color="#CCCBFF"></stop><stop offset="0.39" stop-color="#C6C5FF"></stop><stop offset="0.52" stop-color="#C3C2FF"></stop><stop offset="0.84" stop-color="#C1C0FF"></stop><stop offset="1" stop-color="#BAB9FA"></stop></linearGradient><linearGradient id="ts_e" x1="100.54" y1="114" x2="100.54" y2="121.35" gradientUnits="userSpaceOnUse"><stop stop-color="#CCCBFF"></stop><stop offset="0.39" stop-color="#C6C5FF"></stop><stop offset="0.52" stop-color="#C3C2FF"></stop><stop offset="0.84" stop-color="#C1C0FF"></stop><stop offset="1" stop-color="#BAB9FA"></stop></linearGradient><linearGradient id="ts_f" x1="100.54" y1="134" x2="100.54" y2="141.35" gradientUnits="userSpaceOnUse"><stop stop-color="#CCCBFF"></stop><stop offset="0.39" stop-color="#C6C5FF"></stop><stop offset="0.52" stop-color="#C3C2FF"></stop><stop offset="0.84" stop-color="#C1C0FF"></stop><stop offset="1" stop-color="#BAB9FA"></stop></linearGradient><linearGradient id="ts_g" x1="100.56" y1="-22.83" x2="100.56" y2="120.13" gradientUnits="userSpaceOnUse"><stop offset="0.15" stop-color="#AAA9FF"></stop><stop offset="0.2" stop-color="#A2A1FB"></stop><stop offset="0.28" stop-color="#8D8BF2"></stop><stop offset="0.38" stop-color="#6B68E2"></stop><stop offset="0.47" stop-color="#4643D2"></stop><stop offset="0.51" stop-color="#413EC5"></stop><stop offset="0.58" stop-color="#3633A5"></stop><stop offset="0.66" stop-color="#232271"></stop><stop offset="0.73" stop-color="#131242"></stop></linearGradient><linearGradient id="ts_h" x1="46.31" y1="-10.19" x2="46.31" y2="139.71" gradientUnits="userSpaceOnUse"><stop offset="0.15" stop-color="#AAA9FF"></stop><stop offset="0.2" stop-color="#A2A1FB"></stop><stop offset="0.28" stop-color="#8D8BF2"></stop><stop offset="0.38" stop-color="#6B68E2"></stop><stop offset="0.47" stop-color="#4643D2"></stop><stop offset="0.51" stop-color="#413EC5"></stop><stop offset="0.58" stop-color="#3633A5"></stop><stop offset="0.66" stop-color="#232271"></stop><stop offset="0.73" stop-color="#131242"></stop></linearGradient><linearGradient id="ts_i" x1="155.5" y1="-10.19" x2="155.5" y2="139.71" gradientUnits="userSpaceOnUse"><stop offset="0.15" stop-color="#AAA9FF"></stop><stop offset="0.2" stop-color="#A2A1FB"></stop><stop offset="0.28" stop-color="#8D8BF2"></stop><stop offset="0.38" stop-color="#6B68E2"></stop><stop offset="0.47" stop-color="#4643D2"></stop><stop offset="0.51" stop-color="#413EC5"></stop><stop offset="0.58" stop-color="#3633A5"></stop><stop offset="0.66" stop-color="#232271"></stop><stop offset="0.73" stop-color="#131242"></stop></linearGradient><linearGradient id="ts_a" x1="99.55" y1="36" x2="99.55" y2="197" gradientUnits="userSpaceOnUse"><stop stop-color="#AAA9FF"></stop><stop offset="1" stop-color="#00C7B2"></stop></linearGradient><linearGradient id="ts_b" x1="13.31" y1="56.19" x2="13.31" y2="83.19" gradientUnits="userSpaceOnUse"><stop stop-color="#CCCBFF"></stop><stop offset="1" stop-color="#CCCBFF" stop-opacity="0.4"></stop></linearGradient><linearGradient id="ts_c" x1="100.54" y1="75" x2="100.54" y2="82.35" gradientUnits="userSpaceOnUse"><stop stop-color="#CCCBFF"></stop><stop offset="0.39" stop-color="#C6C5FF"></stop><stop offset="0.52" stop-color="#C3C2FF"></stop><stop offset="0.84" stop-color="#C1C0FF"></stop><stop offset="1" stop-color="#BAB9FA"></stop></linearGradient><linearGradient id="ts_d" x1="100.54" y1="94" x2="100.54" y2="101.35" gradientUnits="userSpaceOnUse"><stop stop-color="#CCCBFF"></stop><stop offset="0.39" stop-color="#C6C5FF"></stop><stop offset="0.52" stop-color="#C3C2FF"></stop><stop offset="0.84" stop-color="#C1C0FF"></stop><stop offset="1" stop-color="#BAB9FA"></stop></linearGradient><linearGradient id="ts_e" x1="100.54" y1="114" x2="100.54" y2="121.35" gradientUnits="userSpaceOnUse"><stop stop-color="#CCCBFF"></stop><stop offset="0.39" stop-color="#C6C5FF"></stop><stop offset="0.52" stop-color="#C3C2FF"></stop><stop offset="0.84" stop-color="#C1C0FF"></stop><stop offset="1" stop-color="#BAB9FA"></stop></linearGradient><linearGradient id="ts_f" x1="100.54" y1="134" x2="100.54" y2="141.35" gradientUnits="userSpaceOnUse"><stop stop-color="#CCCBFF"></stop><stop offset="0.39" stop-color="#C6C5FF"></stop><stop offset="0.52" stop-color="#C3C2FF"></stop><stop offset="0.84" stop-color="#C1C0FF"></stop><stop offset="1" stop-color="#BAB9FA"></stop></linearGradient><linearGradient id="ts_g" x1="100.56" y1="-22.83" x2="100.56" y2="120.13" gradientUnits="userSpaceOnUse"><stop offset="0.15" stop-color="#AAA9FF"></stop><stop offset="0.2" stop-color="#A2A1FB"></stop><stop offset="0.28" stop-color="#8D8BF2"></stop><stop offset="0.38" stop-color="#6B68E2"></stop><stop offset="0.47" stop-color="#4643D2"></stop><stop offset="0.51" stop-color="#413EC5"></stop><stop offset="0.58" stop-color="#3633A5"></stop><stop offset="0.66" stop-color="#232271"></stop><stop offset="0.73" stop-color="#131242"></stop></linearGradient><linearGradient id="ts_h" x1="46.31" y1="-10.19" x2="46.31" y2="139.71" gradientUnits="userSpaceOnUse"><stop offset="0.15" stop-color="#AAA9FF"></stop><stop offset="0.2" stop-color="#A2A1FB"></stop><stop offset="0.28" stop-color="#8D8BF2"></stop><stop offset="0.38" stop-color="#6B68E2"></stop><stop offset="0.47" stop-color="#4643D2"></stop><stop offset="0.51" stop-color="#413EC5"></stop><stop offset="0.58" stop-color="#3633A5"></stop><stop offset="0.66" stop-color="#232271"></stop><stop offset="0.73" stop-color="#131242"></stop></linearGradient><linearGradient id="ts_i" x1="155.5" y1="-10.19" x2="155.5" y2="139.71" gradientUnits="userSpaceOnUse"><stop offset="0.15" stop-color="#AAA9FF"></stop><stop offset="0.2" stop-color="#A2A1FB"></stop><stop offset="0.28" stop-color="#8D8BF2"></stop><stop offset="0.38" stop-color="#6B68E2"></stop><stop offset="0.47" stop-color="#4643D2"></stop><stop offset="0.51" stop-color="#413EC5"></stop><stop offset="0.58" stop-color="#3633A5"></stop><stop offset="0.66" stop-color="#232271"></stop><stop offset="0.73" stop-color="#131242"></stop></linearGradient></defs></svg>