<svg xmlns:xlink="http://www.w3.org/1999/xlink" width="24" height="24" viewBox="0 0 24 24" fill="none" xmlns="http://www.w3.org/2000/svg" class="h-6 w-6 dark:hidden"><g clip-path="url(#tc_a)" fill="none"><path d="M21.23 15.14H1.05V8.86h20.18a2.78 2.78 0 0 1 2.78 2.77v.74a2.78 2.78 0 0 1-2.78 2.77Z" fill="#091363"></path><path d="M20.47 16H0V8h20.47A3.54 3.54 0 0 1 24 11.52v.93A3.53 3.53 0 0 1 20.47 16Z" fill="#DFDFFF"></path><path d="M3.53 0H24v8H3.53A3.53 3.53 0 0 1 0 4.47v-.93A3.54 3.54 0 0 1 3.53 0Z" fill="#33329E"></path><path d="M3.53 16H24v8H3.53A3.53 3.53 0 0 1 0 20.47v-.93A3.53 3.53 0 0 1 3.53 16Z" fill="url(&quot;#tc_b&quot;)"></path><path d="M3.81 16.86H24v6.28H3.81a2.78 2.78 0 0 1-2.77-2.78v-.72a2.78 2.78 0 0 1 2.77-2.78Z" fill="url(&quot;#tc_c&quot;)"></path><path d="M20.18 15.13H0V8.86h20.2a2.78 2.78 0 0 1 2.77 2.77v.73a2.77 2.77 0 0 1-2.78 2.77Z" fill="url(&quot;#tc_d&quot;)"></path><path d="M3.81.86H24v6.28H3.81a2.78 2.78 0 0 1-2.77-2.78v-.72A2.78 2.78 0 0 1 3.8.86Z" fill="url(&quot;#tc_e&quot;)"></path></g><defs><linearGradient id="tc_b" x1="0" y1="20" x2="24" y2="20" gradientUnits="userSpaceOnUse"><stop offset="0.39" stop-color="#131245"></stop><stop offset="1" stop-color="#0E0D2B"></stop></linearGradient><linearGradient id="tc_c" x1="30.47" y1="20.12" x2="-13.56" y2="19.81" gradientUnits="userSpaceOnUse"><stop offset="0.15" stop-color="#A9A8FF"></stop><stop offset="0.2" stop-color="#A1A0FC"></stop><stop offset="0.28" stop-color="#8C8AF3"></stop><stop offset="0.38" stop-color="#6A67E6"></stop><stop offset="0.47" stop-color="#4743D9"></stop><stop offset="0.51" stop-color="#423ECC"></stop><stop offset="0.57" stop-color="#3734AC"></stop><stop offset="0.66" stop-color="#242278"></stop><stop offset="0.73" stop-color="#131245"></stop></linearGradient><linearGradient id="tc_d" x1="-10.25" y1="8.58" x2="23.21" y2="14.17" gradientUnits="userSpaceOnUse"><stop offset="0.33" stop-color="#00CAB1"></stop><stop offset="0.42" stop-color="#09BDB9"></stop><stop offset="0.58" stop-color="#219BCF"></stop><stop offset="0.8" stop-color="#4864F3"></stop><stop offset="0.86" stop-color="#5553FF"></stop></linearGradient><linearGradient id="tc_e" x1="39.97" y1="3.45" x2="-23.85" y2="4.8" gradientUnits="userSpaceOnUse"><stop offset="0.22" stop-color="#CBCAFF"></stop><stop offset="0.29" stop-color="#C3C2FF"></stop><stop offset="0.38" stop-color="#AEACFF"></stop><stop offset="0.51" stop-color="#8B89FF"></stop><stop offset="0.64" stop-color="#5B59FF"></stop><stop offset="0.66" stop-color="#5553FF"></stop></linearGradient><clipPath id="tc_a"><path fill="#fff" d="M0 0h24v24H0z"></path></clipPath><linearGradient id="tc_b" x1="0" y1="20" x2="24" y2="20" gradientUnits="userSpaceOnUse"><stop offset="0.39" stop-color="#131245"></stop><stop offset="1" stop-color="#0E0D2B"></stop></linearGradient><linearGradient id="tc_c" x1="30.47" y1="20.12" x2="-13.56" y2="19.81" gradientUnits="userSpaceOnUse"><stop offset="0.15" stop-color="#A9A8FF"></stop><stop offset="0.2" stop-color="#A1A0FC"></stop><stop offset="0.28" stop-color="#8C8AF3"></stop><stop offset="0.38" stop-color="#6A67E6"></stop><stop offset="0.47" stop-color="#4743D9"></stop><stop offset="0.51" stop-color="#423ECC"></stop><stop offset="0.57" stop-color="#3734AC"></stop><stop offset="0.66" stop-color="#242278"></stop><stop offset="0.73" stop-color="#131245"></stop></linearGradient><linearGradient id="tc_d" x1="-10.25" y1="8.58" x2="23.21" y2="14.17" gradientUnits="userSpaceOnUse"><stop offset="0.33" stop-color="#00CAB1"></stop><stop offset="0.42" stop-color="#09BDB9"></stop><stop offset="0.58" stop-color="#219BCF"></stop><stop offset="0.8" stop-color="#4864F3"></stop><stop offset="0.86" stop-color="#5553FF"></stop></linearGradient><linearGradient id="tc_e" x1="39.97" y1="3.45" x2="-23.85" y2="4.8" gradientUnits="userSpaceOnUse"><stop offset="0.22" stop-color="#CBCAFF"></stop><stop offset="0.29" stop-color="#C3C2FF"></stop><stop offset="0.38" stop-color="#AEACFF"></stop><stop offset="0.51" stop-color="#8B89FF"></stop><stop offset="0.64" stop-color="#5B59FF"></stop><stop offset="0.66" stop-color="#5553FF"></stop></linearGradient></defs></svg>